<?xml version="1.0" standalone="no"?>
<!DOCTYPE svg PUBLIC "-//W3C//DTD SVG 1.1//EN" "http://www.w3.org/Graphics/SVG/1.1/DTD/svg11.dtd" >
<svg>
<metadata>
Created by FontForge 20110222 at Mon Mar 11 01:22:09 2013
 By Orthosie Webmaster
(c)2006 Patrick Broderick/www.rotodesign.com
</metadata>
<defs>
<font id="JinkyRegular" horiz-adv-x="392" >
  <font-face 
    font-family="JinkyRegular"
    font-weight="400"
    font-stretch="normal"
    units-per-em="1000"
    panose-1="0 0 4 0 0 0 0 0 0 0"
    ascent="800"
    descent="-200"
    x-height="305"
    cap-height="482"
    bbox="-76 -352 468 800"
    underline-thickness="20"
    underline-position="-123"
    unicode-range="U+0020-2265"
  />
<missing-glyph horiz-adv-x="500" 
d="M63 0v800h375v-800h-375zM125 63h250v675h-250v-675z" />
    <glyph glyph-name=".notdef" horiz-adv-x="500" 
d="M63 0v800h375v-800h-375zM125 63h250v675h-250v-675z" />
    <glyph glyph-name=".null" horiz-adv-x="0" 
 />
    <glyph glyph-name="nonmarkingreturn" horiz-adv-x="357" 
 />
    <glyph glyph-name="space" unicode=" " horiz-adv-x="357" 
 />
    <glyph glyph-name="exclam" unicode="!" horiz-adv-x="136" 
d="M96 422l9 -69v-33l1 -39l4 -47l4 -22l-3 -31l-3 -44l-7 -4h-5l-6 7l-6 41v26l-9 53l3 14l-3 16v57l-5 42v28l-9 27l9 8l10 2l16 -2v-30zM46 33l7 -7l-1 -18l-7 -8h-14l-16 7l-6 10l2 13l16 10l9 -2z" />
    <glyph glyph-name="quotedbl" unicode="&#x22;" horiz-adv-x="336" 
d="M298 316l-14 -14l-16 -5h-30l-2 10l-7 11l-3 -4h-8l-5 5h-42l-7 -13l-7 -9l-21 -11l-23 -7l-19 2l-11 7l-5 7v7l-4 4v10l7 11l23 10l9 2l10 5l16 -2l22 -6v-3l3 -3h9l3 3h46l10 -6l17 12l8 5l11 4l21 -2l9 -10v-20zM243 248l-3 -13l-11 -7l-2 -2h-3l-4 8l7 10l-1 1l3 6
h11zM315 350l-3 -4l-13 4v1l-3 4l-21 3l-4 6h-3v11l17 8l-17 11v3l-9 4l-41 -4l-5 -3l-39 -6l-56 -16l-13 -6l-19 -6l-14 -5l-3 -4l-9 -9v-3l-16 -9v-5l-2 -2l8 -5l5 -5l-5 -9l6 -6v-5l-9 -5v-9l8 -12l12 -11l-7 -3l-5 -5v-11l14 -11h5l5 5l11 -3l4 -7l1 -17l8 -14l5 -6
l5 -11l7 -5l2 -7l10 -9l12 -12l18 -12h5l2 3v6h9v-2l2 -2h2l5 5v4l-7 4l-2 8l7 5l23 2l7 -10l16 1l15 21l18 37l-1 13l7 11l-4 10v19l16 4l12 2h2l3 -9l8 -7l-2 -16v-3l-12 -9l-14 -8l-36 -70l-12 -19l4 -9v-16l-4 -4h-5l-4 9l-5 13h-7l-4 -4l4 -14l-2 -4v-5h-12l-2 8v5
l-2 1l-9 -12h-5l-5 11v3l1 2l-3 3h-7l-23 7l-16 16l-16 18l-4 7l-8 10l-14 25l-5 14l-22 5l-12 14v32l-3 6l-4 9v1l-3 4l-6 -4h-3l-8 9l4 7l-4 3v13l6 2h2l1 1v4l-6 5l3 13l9 3l2 2v3l-6 4h-3l-16 18l-14 10l2 12l15 14v6l14 8l4 5l21 18l18 13l7 2l2 1v4l16 5l15 9v7
l-12 14l-2 5v5l4 4l9 -1h3l2 3v5l7 3l9 -3l5 -12l2 -13l3 -5l43 5l45 6l60 -2l12 -9h6l9 -12l-6 -23l-10 -28l-2 -18h-6l-1 -7l19 -11l2 -5v-5l-5 -5v-4l10 -5v-12zM217 239l-4 -4h-19l-7 -4h-5l-2 3v5l30 12l7 -2v-10zM236 173l-10 -3l-6 2l-7 7h-33l-7 -6l-15 -3l-3 -5
l-2 -2h-3v10l23 14l21 8l19 -2l22 -9l1 -5v-6zM259 482v3h-2v-5zM178 478h-11l-10 -1l-9 -6h2zM287 322v5l-7 6v-19h2v4h-2l2 1zM289 239v10h-4l2 -12zM152 311l-16 -11h2l5 2zM104 325h-1l-8 -6zM211 146h-12v-3l3 -5h8v5z" />
    <glyph glyph-name="numbersign" unicode="#" horiz-adv-x="459" 
d="M146 568l23 -6l14 -7h5l3 -5l14 -5l6 -5l14 -8l51 -39l17 -19l11 -17l9 -20l7 -9l-5 -47l-5 -72l5 -48l3 -5l-5 -14l-11 -13l-3 -12l-6 -10l-15 -39l-11 -19l-3 -11l-4 -3l7 -4v-9l-9 -7l-1 2h-4l-4 -16l-11 -14l-8 -20l-1 -9l-6 -3l-5 2h-4l-3 9l2 5v3h3l6 8l5 10l-14 7
l-57 6l-12 5h-2l-1 -2l-16 16l-5 12v14l5 7l5 5l37 6l21 -4l47 -7l14 -8v-3l3 -1l8 10l2 7l7 9l2 9l-16 2l-51 3l-7 2h-6v16l14 4l4 7l23 9l11 6l15 -5l8 -10l10 -9v-2l2 -2l5 6l13 35v14l-16 7l-18 14v21l4 4l1 15l9 20l15 16l8 2l3 9v8l2 44l-7 9l-1 18l-8 12l-1 7l-44 44
l-8 1l-10 9l-12 9h-4l-7 7l-24 11l-23 8l-20 4l-33 -6l-13 -8l-10 -3l-26 -16l-35 -29l-27 -27l-6 -17l2 -1l-5 -9l-3 -86l1 -76l7 -60l4 -3v-2l-6 3l-5 18l-4 58l-3 73v91l18 26l35 34l18 14l9 3l6 8l23 10l7 7l27 12l4 6l17 -2zM396 379l-6 -5h-10l-5 -4v-3l-5 -3h-6v8
l6 7l9 9l10 5l7 -3v-11zM165 384l21 -5l22 -10l3 -22l2 -26l3 -19v-6l6 -5l-2 -10l-18 -14l-3 -6l-13 -10l-21 -9l-32 -5l-35 1l-16 5l-24 18l-4 11v4l5 5l13 -4l10 -18l16 -8l22 -4l41 4l8 5l12 3l9 11v3l1 3h-8l-7 -6l-16 -9l-30 -5l-27 7l-24 24l2 6l8 10l8 22l12 14
l14 14l30 -11l23 -16l14 -19h7l2 -2v25l-9 25l-7 10l-14 7h-102l-8 -3l-5 -9v-44l5 -23l-1 -2v-4l-9 -1h-4l-3 5v93l3 6l57 -6h63zM299 276h-7l-1 1h-4l-7 19l2 20l10 19l5 4v-62zM153 326l5 -6l2 -3h4v-3l5 -3l5 -18v-4l4 -3l-11 -9l-9 -1l-12 -6h-25l-18 12l-8 14v7l19 23
l6 4l10 1l20 -5h3zM426 320l-2 -8l-23 -3l-16 -7h-3l-3 7l1 5v2l4 4l17 1l9 4h7zM146 307l5 -9l-1 -14l-9 -8l-11 1l-10 12l-4 7l5 18l9 3l7 -1zM417 256v-9l-7 -4l-9 6l-19 2l-6 7l9 9l13 -2zM253 199l-39 2l-1 2l21 7l15 -5zM9 168l9 -30l24 -47l17 -15l61 -14l36 -5l27 1
l7 4l7 -2v-11l-6 -6h-45l-48 6l-7 4l-2 -1l-3 3l-39 5l-7 7v6l-17 26l-8 14l-21 57l-7 15l-5 9l3 4l9 -2zM223 141l6 -5l-46 4l-7 5l-21 -2l-4 -7l7 -12l6 -6l12 6l26 -4h23l5 -2h8l-4 -7h-16l-5 4l-53 3l-14 8l-11 15l12 9l4 2l48 -3z" />
    <glyph glyph-name="dollar" unicode="$" horiz-adv-x="230" 
d="M225 344h-9l-48 16l-15 1h-4l-2 3l-10 -20l-9 -33l-2 -16l-3 -6l3 -12l5 -5l11 -2l21 -12l10 -4l18 -10l12 -18v-19l-10 -14l-14 -11l-30 -7l-7 -5l-18 -2l-5 -7l5 -30l9 -16v-14l-18 -14h-10l-9 14l-7 26l-4 4l-5 37l-32 17l-10 24l2 20l3 4l19 -2l4 -5l-1 -8l5 -9l6 -6
h3l6 11l4 23l2 17l-15 9l-20 7l-21 14l-23 23l-11 16l2 21l14 17l30 13l18 4l45 12l9 19v25l-2 2l7 5l9 2l23 -2l7 -12v-11l-9 -18v-5l13 -7l22 -5l14 -5l20 -17l2 -11v-6zM105 356h-14l-15 -3l-11 -7l-20 -5l-5 -13l5 -11l16 -11l21 -13h12v2l2 19l4 16zM172 218l-2 1v1
l-14 11l-32 11l-4 -2l3 -37l3 -3l2 1h1l29 6z" />
    <glyph glyph-name="percent" unicode="%" horiz-adv-x="330" 
d="M285 500l-6 -21l-20 -38l-31 -43l-60 -89l-36 -60l-29 -58l-14 -39l-5 -19l-2 -15v-5h7l4 3l1 14l6 6h12l3 -6v-6l-8 -13l-5 -16l-13 -21l-9 -10l-10 -8l-18 2l-3 58l5 9l2 14l3 4l6 23l17 42l6 7l3 11l11 14l1 7l4 2l8 14l4 16l13 15l8 16l9 11l2 8l14 24l19 28l11 17
l11 13l28 49l5 5v5l-4 4l-106 -21l-20 -6l-7 -10l-4 -16l-2 -12l-8 -23l-23 -24l-20 -17l-35 -13l-9 1l-9 4l-6 8l-3 14v11l9 18l11 14l10 10l34 39l-7 10v22l17 9l17 -2l22 -11h16l26 4l16 5l22 4l44 11l35 6l9 4l12 -2zM314 124l-6 -24l-9 -14l-14 -8l-20 -7l-10 5l-23 2
l-21 12l-14 23l-6 20l-5 5l4 33l7 12l19 9l12 4l28 -4l29 -14h3l20 -28zM71 434l-3 8h-9l-24 -30l-16 -30v-17h3l16 7l23 23l9 17zM279 113v5l-1 15l-19 26l-31 7l-3 -2v-5l1 -25l13 -18l14 -8h16z" />
    <glyph glyph-name="ampersand" unicode="&#x26;" horiz-adv-x="265" 
d="M257 83l-4 -14l-12 -19l-9 -9l2 -11l5 -5l-1 -10l-11 -9h-7l-12 10l-11 -1l-56 -35l-20 -8l-39 -10l-45 5l-25 19l-10 25v28l7 34l24 53l18 27l5 14l30 48l5 13l9 10v7l6 5l9 73l5 24l3 22l6 10v7l22 32h5l17 11l21 -3l10 -8l5 -23v-13l-5 -10l-3 -11l-2 -1v-5l-5 -6
l-9 -19l-29 -46l-1 -9l-18 -22l-5 -22l2 -7v-37l3 -17l11 -44l25 -41l5 -2l19 -19l11 -5l14 14l-5 15l12 11l16 -2l5 -3zM170 365v16l-19 -25l-3 -14l-7 -28h3l6 7zM178 35l-5 6l-13 7l-17 21l-11 19l-14 39l-9 32v19l-3 18h-4l-11 -14l-26 -48l-24 -56l-3 -13l-5 -12
l-1 -33l10 -20l12 -7l50 2l7 5l18 4l8 7l9 2l7 5l14 7z" />
    <glyph glyph-name="quotesingle" unicode="'" 
d="M176 501v-7l3 -4v-6l25 -4l44 -11l44 -23h5l9 9l25 26v9l11 8h5v-22l-7 -22l-16 -52l2 -105l3 -6l7 9l6 19l2 13l9 2h5l8 -15l2 -35l-4 -3l-1 -23l-9 -33l-4 -11l-15 -7l-16 -2l-4 -41l-10 -31l-9 -23l-9 -21l-14 -21l-9 -6l-7 -1l-1 -2l-9 2l-9 7l-35 5l-6 -2l-10 5
l-32 5l-23 8h-16l-3 3h-9l-16 20l-6 3l-14 27l-10 30l-5 19l-2 2l-7 -7l-39 10l-14 7l-8 16l-6 20l2 113l5 1h4l6 -18l20 -27l4 5l3 26l11 62l3 5l6 25l8 14l6 6l5 6l14 2l19 9l6 5l14 3l8 8h18l4 3v26l-6 7v13l6 5l12 -1zM165 481l-1 -17l-11 -10l-10 3l7 11l9 24h3z
M256 451l24 -14l4 -6l10 -9l-5 -6l8 -12l8 -5l5 -12v-57l-2 -2v2l-7 7l-17 -3l-13 -18l-4 -14v-2l6 -5h7l7 10v8l18 1l3 4h-2v3h2v-26l-5 4l-12 -4l-4 -16l-2 -4v-5l9 -9l11 -1h5v-13l-10 -7l-4 -5v-9l9 -33h-13l-14 3l-5 43l-7 19l-2 16l-5 16h-16l-3 -6l3 -10l9 -22l9 -44
l-2 -14v-5h-7l-2 2l-7 -4h-5l-2 2l-7 -7v-4l5 -5h23l5 -5h9l7 13v1l-1 -1l-2 2l1 1l9 -9l18 -3l-9 -35l-5 -8l-23 4v5h7l7 7l-4 7l-3 4l-78 5l-10 6h-6l-5 -6v-12l9 -9l5 -12l9 -8l12 -1h44v-4l4 -3h7l7 7h7l4 -4h2l-8 -16l-12 -19l-33 1l-53 9l-54 16v2l-4 4h-9l-23 22
l-12 29v7l-5 11l-4 17l-7 9l-14 -4l-27 2l-17 7l-4 5l-7 22v88l14 -22l25 -33l2 2v3h1l2 2l-5 4l-7 12l5 10l2 16l8 57l4 9l-1 6l5 11v7l12 20l10 1l13 14l7 2l7 7l9 2l5 5h17l-11 -8v-8l5 -6h6l4 3l9 -7l32 4l11 8l1 18l4 2l44 -8zM319 432l-5 2v7l10 13l-2 -13zM204 349
l13 -26l-8 -7h-10l-5 21l-4 4v7l-5 6l-3 12l-4 3l-18 -3l-30 -14h-5l-5 8l9 6l15 3l6 3l10 6h8l1 1l10 4h13zM195 313l4 -13l4 -3l-6 -13l-3 -3l-30 2v3l-5 4v23l15 10h9zM183 295l-5 2v11l9 -9zM349 261l-5 -22l-4 -9l-5 -4h-4l-3 4v12l8 19v9l9 9l5 14v-32h-1zM206 189
l3 -3v-5l-5 -4h-31l-16 -7l-4 -3h-7l-2 8l13 9l19 3l11 4l14 -2h5zM209 140h-5v5h5v-5zM248 138v-5h-16v12l15 -2z" />
    <glyph glyph-name="parenleft" unicode="(" horiz-adv-x="142" 
d="M125 468l-2 -10l-26 -18l-20 -23l-16 -26l-16 -53l-5 -69l5 -48l11 -26l3 -12l39 -46l21 -14l4 -4v-6l-4 -4l-16 1l-26 13l-32 31l-10 20v3l-12 15l-9 53l-4 31l4 13l-2 20v9l19 73l16 33l6 7v5l24 20l21 21l4 2l15 -2z" />
    <glyph glyph-name="parenright" unicode=")" horiz-adv-x="190" 
d="M183 272l-5 -34l-9 -19l-12 -32l-21 -26l-11 -18l-25 -23l-6 -1h-5l2 14l33 40l24 55l7 35l-7 23l-1 15l-18 38l-14 19l-62 55l-35 29l-6 9v6l6 5l18 -2l38 -21l59 -51l33 -45l12 -34l2 -22z" />
    <glyph glyph-name="asterisk" unicode="*" horiz-adv-x="279" 
d="M263 378l-5 -11l-9 -6l-18 1l-25 11l-14 10l-22 8l-14 -2l-11 -16l-7 -26l-2 -13l-7 -17l2 -13l-11 -1h-5l-7 20l4 22l3 7v18l3 5l-3 3l-65 -21l-29 -5h-17l-13 15l2 13l13 9h63l39 12l19 4v6l-28 18l-16 7l-9 8l-3 5v9h26l11 -6l26 -7l7 -4l6 4l12 19l11 25l3 27l12 10
l15 -2l10 -10l-9 -23l-5 -9l-5 -18l-18 -29v-4l14 -9h33l13 4h9l3 -4l-23 -14l13 -11l21 -10z" />
    <glyph glyph-name="plus" unicode="+" horiz-adv-x="297" 
d="M-1 335l9 7l92 3l3 4l-3 21l-3 16l-6 23l1 23l16 6l11 -5l3 -19l13 -42l1 -18l5 -5h68l49 -7l13 -6l5 -5l-3 -7h-33l-90 -2l-5 -3l4 -19l3 -5l2 -13l7 -16v-10l-11 -11l-19 2l-9 12l-9 27l-3 28l-4 3l-54 -5l-44 -11l-5 2z" />
    <glyph glyph-name="comma" unicode="," 
d="M176 501v-7l3 -4v-6l25 -4l44 -11l44 -23h5l9 9l25 26v9l11 8h5v-22l-7 -22l-16 -52l2 -105l3 -6l7 9l6 19l2 13l9 2h5l8 -15l2 -35l-4 -3l-1 -23l-9 -33l-4 -11l-15 -7l-16 -2l-4 -41l-10 -31l-9 -23l-9 -21l-14 -21l-9 -6l-7 -1l-1 -2l-9 2l-9 7l-35 5l-6 -2l-10 5
l-32 5l-23 8h-16l-3 3h-9l-16 20l-6 3l-14 27l-10 30l-5 19l-2 2l-7 -7l-39 10l-14 7l-8 16l-6 20l2 113l5 1h4l6 -18l20 -27l4 5l3 26l11 62l3 5l6 25l8 14l6 6l5 6l14 2l19 9l6 5l14 3l8 8h18l4 3v26l-6 7v13l6 5l12 -1zM165 481l-1 -17l-11 -10l-10 3l7 11l9 24h3z
M256 451l24 -14l4 -6l10 -9l-5 -6l8 -12l8 -5l5 -12v-57l-2 -2v2l-7 7l-17 -3l-13 -18l-4 -14v-2l6 -5h7l7 10v8l18 1l3 4h-2v3h2v-26l-5 4l-12 -4l-4 -16l-2 -4v-5l9 -9l11 -1h5v-13l-10 -7l-4 -5v-9l9 -33h-13l-14 3l-5 43l-7 19l-2 16l-5 16h-16l-3 -6l3 -10l9 -22l9 -44
l-2 -14v-5h-7l-2 2l-7 -4h-5l-2 2l-7 -7v-4l5 -5h23l5 -5h9l7 13v1l-1 -1l-2 2l1 1l9 -9l18 -3l-9 -35l-5 -8l-23 4v5h7l7 7l-4 7l-3 4l-78 5l-10 6h-6l-5 -6v-12l9 -9l5 -12l9 -8l12 -1h44v-4l4 -3h7l7 7h7l4 -4h2l-8 -16l-12 -19l-33 1l-53 9l-54 16v2l-4 4h-9l-23 22
l-12 29v7l-5 11l-4 17l-7 9l-14 -4l-27 2l-17 7l-4 5l-7 22v88l14 -22l25 -33l2 2v3h1l2 2l-5 4l-7 12l5 10l2 16l8 57l4 9l-1 6l5 11v7l12 20l10 1l13 14l7 2l7 7l9 2l5 5h17l-11 -8v-8l5 -6h6l4 3l9 -7l32 4l11 8l1 18l4 2l44 -8zM319 432l-5 2v7l10 13l-2 -13zM204 349
l13 -26l-8 -7h-10l-5 21l-4 4v7l-5 6l-3 12l-4 3l-18 -3l-30 -14h-5l-5 8l9 6l15 3l6 3l10 6h8l1 1l10 4h13zM195 313l4 -13l4 -3l-6 -13l-3 -3l-30 2v3l-5 4v23l15 10h9zM183 295l-5 2v11l9 -9zM349 261l-5 -22l-4 -9l-5 -4h-4l-3 4v12l8 19v9l9 9l5 14v-32h-1zM206 189
l3 -3v-5l-5 -4h-31l-16 -7l-4 -3h-7l-2 8l13 9l19 3l11 4l14 -2h5zM209 140h-5v5h5v-5zM248 138v-5h-16v12l15 -2z" />
    <glyph glyph-name="hyphen" unicode="-" horiz-adv-x="251" 
d="M232 353l-21 -21l-10 -5h-8l-10 13l-41 -2l-49 -5l-23 -5h-37l-23 -1l-5 8v5l12 9l37 7l23 2l3 4l33 1l5 4l23 1l45 8l13 6l21 -1l12 -13v-15z" />
    <glyph glyph-name="hyphen" unicode="&#x2010;" horiz-adv-x="251" 
d="M232 353l-21 -21l-10 -5h-8l-10 13l-41 -2l-49 -5l-23 -5h-37l-23 -1l-5 8v5l12 9l37 7l23 2l3 4l33 1l5 4l23 1l45 8l13 6l21 -1l12 -13v-15z" />
    <glyph glyph-name="period" unicode="." horiz-adv-x="77" 
d="M56 132l-2 -23l-3 -11v-2l-15 -1h-5l-13 18l-5 19l2 5l9 7l16 4l8 -4z" />
    <glyph glyph-name="slash" unicode="/" horiz-adv-x="250" 
d="M245 553l-33 -63l-9 -13l-2 -9l-21 -44l-8 -15v-5l-13 -16v-6l-11 -14l-3 -12l-6 -5l-1 -9l-14 -23l-2 -9l-9 -14v-5l-9 -14l-49 -105l-10 -41v-30l-16 -14l-20 -8l-5 2l-7 12v18l10 26l2 9l9 20l16 38l3 6l4 9l18 36l7 11l3 12l62 122l3 10l9 14l14 25l6 18l15 30l11 28
l5 11l2 19l16 19l7 2l14 -2l12 -7v-14z" />
    <glyph glyph-name="zero" unicode="0" horiz-adv-x="342" 
d="M323 177l-6 -22l-10 -18l-21 -20l-16 -12l-53 -24l-42 -13l-41 -9l-15 4h-18l-35 1l-5 4l-29 13l-7 6h-6l-10 16l-14 16l-3 11l-8 10l-3 21v35l3 9l2 20l4 3l2 15l8 11v13l17 20v1l-4 4l-11 -5h-9l4 14l39 24l22 7h23l7 5l23 3l30 -4l37 -7l39 -13l20 -9l24 -17l34 -33
l17 -29zM290 186l-11 30l-11 12v6l-47 44l-20 10l-51 16l-62 6l-12 -8l-28 -26l-18 -28l-12 -43v-49l5 -14l18 -23l16 -11l28 -10l46 -4l49 9l57 22l22 12l23 19l5 14z" />
    <glyph glyph-name="one" unicode="1" horiz-adv-x="57" 
d="M59 78l-3 -11l-18 -14l-11 2l-7 9l-2 17l-3 14l-2 16l-5 6v61l-4 41l-1 80l-4 18l2 48l3 3l5 -2l9 -9l2 -22l6 -55v-28l3 -18v-45l2 -25l5 -32l7 -19l2 -16l12 -18z" />
    <glyph glyph-name="two" unicode="2" horiz-adv-x="188" 
d="M173 25l-12 -7l-27 1h-37l-19 -3l-53 2l-9 3l-10 15v26l3 10l12 19l2 11l6 4l8 15l19 25v6l17 19l22 35l14 28l9 13l11 23v9l3 6l-3 15l-6 9h-31l-42 -22l-9 -12l-11 -7l-12 2l-3 5l-4 12l1 14l14 9l15 14l37 18l22 5l14 2l24 -5l7 -6l17 -23v-35l-14 -35l-12 -18l-4 -12
l-15 -19l-13 -27l-39 -56l-14 -23l-9 -23v-4l20 -7l56 4l18 3l20 2l8 4l5 -2l4 -4v-38z" />
    <glyph glyph-name="three" unicode="3" horiz-adv-x="213" 
d="M190 119l-2 -23l-10 -25l-27 -22l-26 -18l-21 -12l-51 -22l-11 5l-5 9l-2 16l18 11l19 2l9 5l16 4l42 26l16 23l1 9l-10 17l-16 13l-24 5l-8 5l-16 2l-6 5l-16 2l-22 9l-15 17l5 9l1 14l42 35l31 38l10 15l8 15v17l-13 11l-34 -2l-19 -7l-26 -14l-13 -11l-6 2l-11 24l2 8
l28 16l5 5h7l31 14h15l7 4l28 -3l25 -14l7 -14l3 -25l-5 -20l-17 -29l-18 -22l-40 -46v-6l10 -9l9 -1l23 -13l23 -6l23 -13l22 -26z" />
    <glyph glyph-name="four" unicode="4" horiz-adv-x="234" 
d="M221 -5l-2 -11l-10 -6l-21 4l-11 15l-12 49l1 108l-3 4l-25 -4l-25 -5h-60l-24 19l-12 25l-4 120l-7 12l2 24l12 11l11 3l12 -3l7 -39l-2 -37v-12l5 -62l9 -16l16 -12l44 2l34 5l12 7l3 12l6 66v33l3 32l-3 10v29l3 10l8 7l8 2l19 -7l4 -3l-9 -62v-21l-3 -25l-5 -81v-16
l-6 -23l-3 -54l1 -73l9 -15l2 -9l13 -9z" />
    <glyph glyph-name="five" unicode="5" horiz-adv-x="234" 
d="M234 320l-14 -11l-24 -2l-17 -7h-19l-85 -15l-17 -8l-6 -8v-9l-12 -18v-15l15 -15l26 -12l35 -12l30 -23l14 -21l3 -20l-9 -21l-11 -17l-33 -25l-15 -7l-14 -3l-25 1l-12 7l-2 6v5l7 5l14 -4l21 7l21 18l14 10l4 6v10l-13 22l-26 14l-49 17l-23 13l-12 17l-2 9v13l2 14
l12 22l2 8l8 11l3 29l5 10l7 6h51l81 8l46 -3l12 -3h4l3 -4v-5z" />
    <glyph glyph-name="six" unicode="6" horiz-adv-x="217" 
d="M209 88l-3 -18l-4 -9l-15 -19l-18 -11l-30 -9l-53 2l-34 12l-28 29l-17 33l-10 -7l-13 3l7 24l14 17v32l3 9l4 24l9 32l9 16v9l8 14l6 12l17 21v4l44 51l35 30l18 -4l4 -5l-2 -19l-11 -14l-19 -9l-44 -46l-16 -24l-15 -39l-4 -8l-4 -15l-5 -9l-4 -25v-9l4 -3l43 7l45 -4
l49 -26l23 -25l4 -15zM173 74v12l-24 26l-24 15l-39 8l-12 -2l-23 -5l-9 -9v-3l7 -22l14 -20l22 -15l59 -1l16 7z" />
    <glyph glyph-name="seven" unicode="7" horiz-adv-x="217" 
d="M199 287l-10 -31l-8 -14l-3 -16l-14 -23v-7l-11 -17l-7 -20l-9 -23l-1 -18l-2 -31l5 -11l-2 -9v-3l-5 -6l-12 2l-11 4l-10 30l5 44l13 32l3 10l8 16l3 11l5 5v8l9 11l16 45l1 24l-16 16l-26 5l-55 -5l-30 -11l-17 -3l-9 3h-5l-6 15l2 8l9 9l17 5l4 4l18 1l12 4l48 7h14
l1 2h9l4 -4l30 -3l23 -11l10 -28v-27z" />
    <glyph glyph-name="eight" unicode="8" horiz-adv-x="216" 
d="M199 387l-6 -16l-5 -9l-14 -30l-83 -100l-4 -9l8 -18l12 -21l9 -17v-7l10 -21l2 -13l3 -6l-1 -25l-4 -11l-9 -19l-21 -20l-20 -5l-25 3l-14 15l-8 3l-22 39v44l8 14v9l11 16l2 7l14 15l1 11v6l-6 5l-4 10l-25 34l-7 36l6 11l3 11l14 20l5 1l9 14l16 5h13l14 -14l-4 -17
l-28 -20l-4 -5v-23l11 -27l9 -10h5l56 65l9 13l9 9l3 9l6 2l2 9l14 25v5l-9 8l-60 -18l-13 -7h-5v11l41 29h3l9 9l16 6l35 -2l13 -13v-26zM89 93v32l-12 36l-12 20h-6l-10 -17l-9 -18l-6 -18v-6l3 -10l5 -7l5 -12l12 -12l17 -5l5 2z" />
    <glyph glyph-name="nine" unicode="9" horiz-adv-x="279" 
d="M268 330l-1 -16l-9 -14l-16 -16l-14 -18l-21 -40l-28 -77l-8 -15l-7 -26v-9l9 -7l-2 -17l-8 -13l-20 -16l-8 -3h-8l-10 11l2 30l17 49l5 19l9 12v8l5 10l11 29l4 15l3 13v3l-2 2l-16 -7l-20 -7l-29 -11l-24 -7l-53 -7l-29 9l-10 12l-5 11l1 32l22 41l8 9l2 6l12 9l20 19
l44 26l44 17l17 5l34 -2l5 -3h16l16 -20l2 -32l4 -3l11 2l11 3h4zM221 328v6h-6l-10 -2l-11 11v3l-12 16h-6l-10 1l-17 -1l-17 -4l-38 -15l-51 -39l-21 -34l-4 -15l5 -16l43 -4l25 4l3 3l23 7l62 28l20 20l6 13z" />
    <glyph glyph-name="colon" unicode=":" horiz-adv-x="104" 
d="M67 382l-5 -9v-6l-18 -13h-12l-5 4l-9 3l-9 12l2 21l3 8l11 10l5 2l16 -3l4 -4h10l7 -16v-9zM66 240l-11 -13l-27 2l-10 5v16l15 16l8 4h7l12 -13l6 -5v-12z" />
    <glyph glyph-name="semicolon" unicode=";" horiz-adv-x="124" 
d="M85 230l-1 -18l-5 -6l-8 3l-10 14l-4 12l6 7h11zM94 59l-5 -9l-19 -26l-20 -22l-40 -63l-9 -25l-7 -7l-11 4v19l5 18l6 7l3 14l15 26l15 24l18 35v12l11 8l7 3l16 -3l6 -3z" />
    <glyph glyph-name="less" unicode="&#x3c;" horiz-adv-x="253" 
d="M229 246l-5 -9l-18 -7l-12 1l-13 16l-44 21l-8 2l-11 7l-53 21l-27 20l-11 1l-14 15l-19 6l-6 9v11l11 18l12 10l12 2l41 35l68 42l8 9h3l5 9l4 4l16 1l2 2l20 -2l4 -5l-2 -16l-33 -23l-25 -14l-67 -51l-12 -12l2 -13l7 -11l28 -17l9 -2l21 -12l40 -19l4 -4l14 -4l12 -3
l20 -10l11 -2l6 -11v-15z" />
    <glyph glyph-name="equal" unicode="=" horiz-adv-x="366" 
d="M351 191l-2 -17l-11 -24h-3l-6 -10l-6 -2l-10 -7h-9l-32 -87l-2 -15l-5 -20l-51 -9l-39 9l-11 6h-22l-2 1h-4v4l-16 16l-28 24l-40 46l-4 7l-8 11l5 11l11 -4l1 -2l13 -24l12 -13v-4l46 -40l19 -14l16 -4l14 -6l14 -4l12 -5l41 1l8 13l25 51l8 25l11 30l3 12l-13 19
l-10 9l-4 9l-2 -2h-5l-10 5l-29 4l-42 -20l-30 -15h-4l-3 -6l-11 -3l-17 -15v9l14 13l5 2l30 18l29 15l14 5l6 6h4l11 10l17 -3l23 -11l13 -9l14 -13h1l2 1l-3 10l1 11l5 2l9 14v3l-1 3l3 2v13l-3 4h-6l-2 -2v-6l-17 -10l-19 1l-8 11v6h4l9 14l12 5l14 -2l2 -1h3v-4l2 -2
l6 7l3 9l-2 16l-7 14v7l-7 12v9l-5 5l-5 21l-8 13l-1 12l-7 9l-2 10l-7 11l-2 -8v-6l6 -3l1 -7l-7 -9l2 -16l-4 -3v-8l-12 -8l-12 1l-4 9l2 9l-3 11l-13 22l-8 11v3l-23 23l-11 7l-2 6l-17 8h-38l-15 -15l-16 3l-18 -12l-4 -7l-8 -9l-18 -30l-5 -16h-2l-5 -17l2 -25l3 -13
l6 -10l8 -11h-8l-11 16l-2 5v4l-4 4l-3 -4l-3 -28l6 -26l3 -11v-5l-8 -4l4 -5l4 -9l-3 -5l-1 -2h-5l-13 16h-3l-7 -28l2 -32l5 -16l8 -12l11 -4h16l2 -5l-6 -9l-19 2l-21 17l-7 21l-2 53l4 4v9l9 16l7 5l5 -4l1 53l4 4l9 40l9 25l14 32l9 12l12 19l21 17l11 27l17 32l14 30
l7 18l9 10l9 20l32 45l12 18h10l9 -10l9 -57l6 -18l1 -12l4 -18l1 -15l13 -59l10 -24l15 -16l10 -30l10 -28l4 -18l23 -56l2 -13l5 -11l10 -11v-6h-1l-7 -10l-5 -20l13 -8zM182 224l-7 -10l-14 -9h-25l-7 5l-10 8l-5 15l5 21l3 4v1h4l3 -3l-3 -14v-14l10 -10h28l9 11l-1 16
l-11 11l-8 -3l-8 -6l-7 -9h-5l-2 2l5 13l11 9l11 5l14 -2l10 -12v-29zM255 145l-14 -2l-27 -5l-9 2l-2 1v4l29 9h19l4 -4v-5zM276 105l-4 -11l-5 -6l-9 -1h-3l-4 5h-57l-12 -4h-32v9l6 4l58 4h44l2 1zM242 55l-40 -2l-4 4v3l9 6l23 3l12 -1v-13zM36 161l-2 -2h-5l-11 9
l-14 25v8l9 8l9 -2l4 -25l10 -20v-1zM247 390v30l-3 23l-6 14l-10 54l-12 57l-2 2v6l-3 4l-3 13l-5 14l-1 1v6l-5 6l-17 -15l-12 -18l-9 -12l-9 -18l-6 -11l-27 -58l-6 -19l-2 -14l55 3l25 -10l18 -18l26 -36l5 -15h4zM294 237v3l-3 2h-10l-9 -7l10 -4zM335 184l-5 7l-9 -9
l-8 -17l1 -9l-5 -6v-7l20 14v8l5 3z" />
    <glyph glyph-name="greater" unicode="&#x3e;" horiz-adv-x="295" 
d="M280 397l-34 -36l-12 -7l-14 -5l-21 -13l-21 -15l-18 -11l-16 -12l-35 -28l-5 -11l-2 -9l-7 -7l-25 -4l-14 8l-4 9l4 16l27 23l5 1l20 14l11 11l6 1h3l9 9l64 48l6 9l-5 5l-24 4l-35 12l-52 7l-19 5l-44 16l-9 4l-8 10v11l11 15l15 8l9 -2l20 -17l18 -6l16 -11l14 -1
l9 -4l23 -3l33 -8l23 -5l23 -4h9l12 -3l20 1l10 -8z" />
    <glyph glyph-name="question" unicode="?" horiz-adv-x="164" 
d="M157 386l-9 -42l-15 -39l-16 -30l-22 -40l-6 -19l-8 -20l-6 -19l1 -13v-5l16 -12l11 -2l5 -7l-2 -9l-19 -7l-16 2l-14 5l-17 28v30l15 29l11 22l12 22l2 5l26 45l6 20l5 9l2 12l3 3l-2 43l-8 6l-23 -2l-25 -13l-7 -11v-12l-11 -9h-24l-18 11l3 14l4 5l2 12l5 3l11 2
l14 13l47 25l11 4l27 -3l11 -6l13 -22zM152 -10l-4 -12l-19 -18l-19 7l-6 16l2 15l13 8l14 1l14 -5z" />
    <glyph glyph-name="at" unicode="@" horiz-adv-x="314" 
d="M296 66l-16 -10l-9 -1l-9 -8l-35 -7l-37 -5l-60 -4l-60 6l-38 23l-24 28l-11 26l-6 29l4 53l3 8l2 21l8 29l18 33l38 46l21 19l35 21l38 16l21 3l29 -3l24 -7l20 -16l19 -29l8 -11l13 -51v-44l-2 -15l-19 -50l-19 -25l-26 -23l-34 -23l-25 -11l-19 2l-9 4l-23 24l-2 13
l-1 17l-32 -7l-20 9l-19 16l-5 10l9 34l6 14l24 26l44 27l21 5l14 -7l3 -3v-8l-10 -6l-19 -8l-20 -14l-21 -19l-12 -21l1 -14l8 -4l9 2h3l17 20l6 10l1 9l11 14l11 8l17 -3l4 -3v-27l-11 -25v-40l4 -5l9 -6h21l17 13h4l28 25l7 15l9 9v6l7 8l7 25l-2 51l-5 19l-7 13l-11 22
l-12 18l-11 4l-8 7h-44l-17 -4l-29 -12l-26 -18l-39 -45l-9 -13l-20 -48l-7 -69l4 -19l5 -25l14 -20l16 -16l32 -18l39 -5h28l75 7l25 5l24 7l9 5h2l4 -3v-6z" />
    <glyph glyph-name="A" unicode="A" horiz-adv-x="301" 
d="M297 81l-2 -10l-9 -9v-4l-11 -5l-13 1l-12 24v15l-9 14l-4 24l-9 29l-5 9l-5 30l-7 16l-41 4l-84 3l-5 -3l-4 -32l-3 -18l-4 -12l2 -25l3 -5l2 -12v-14l-21 -20h-16l-10 17v24l1 12l11 44v14l7 20v8l-12 4l-97 -2l-11 14l-5 12l1 11l9 7l21 7l14 -5l22 -2l44 -7h21l9 14
l9 41l7 19l5 25l7 16l6 22l5 11l8 34l16 49l6 31l5 18v16l10 16l13 7l26 -2l5 -12l4 -71l4 -17l8 -62l4 -5l2 -20l26 -146l14 -53l17 -53l14 -36zM202 254v7l-5 26l-2 18l-5 22v20l-3 7l-6 21l-11 53l-8 44h-4l-1 -1l-9 -27l-18 -55l-16 -47l-4 -16l-15 -56v-11z" />
    <glyph glyph-name="B" unicode="B" horiz-adv-x="197" 
d="M186 194l-1 -37l-11 -30l-21 -28l-43 -28l-56 -2l-18 -14h-8l-18 17l-5 38v84l1 14l4 5l-4 8l4 36l-2 35l-7 9l2 22l12 25l-1 36l-4 52l-13 21l-5 3v25l4 10l14 9l16 -2l74 -1l12 -4l20 -11l14 -19l5 -16l-2 -19l-8 -25l-48 -58l-30 -24l-5 -8v-5l16 -11l20 -6l33 -18
l11 -7l24 -23l14 -21zM114 446l-5 7l-11 7l-18 3l-19 -1l-7 -7l-4 -16v-76h4l5 2l24 19l17 18l12 26zM151 193l-5 15l-22 29l-17 9l-16 11l-44 9l-3 -1v-6l-3 -2v-28l-2 -8v-96l17 -26l10 12l43 -1l28 22l5 13l7 12z" />
    <glyph glyph-name="C" unicode="C" horiz-adv-x="252" 
d="M297 133l-58 -29l-21 -12l-35 -14l-34 -9h-63l-9 3l-13 2l-26 15l-24 25l-15 28l-6 29l-3 21v44l11 62l5 23l17 40l20 39l25 35l14 18l16 14l24 14l4 5l18 7l2 1l23 -5l8 -14l-2 -10l-9 -7l-20 -8l-16 -5l-23 -15l-34 -39l-30 -58l-19 -70l2 -86l12 -33l18 -22l31 -22
l18 -5h37l41 10l27 13l29 7l42 14l9 5h7v-11z" />
    <glyph glyph-name="D" unicode="D" horiz-adv-x="257" 
d="M259 476l-2 -63l-5 -30l-11 -34l-12 -28l-2 -9l-14 -23l-1 -8l-30 -50l-18 -32l-79 -108l-32 -22l-6 2l-10 7l-9 21l-1 28l-7 18l-6 45l-3 33l-4 11l-10 161l-5 10l1 17l9 14h9l10 -6l9 -11l7 -77l4 -64l5 -41l5 -25l4 -32l5 -10l5 -27l7 -2h6l40 49l12 20l30 44v5l41 66
l23 72l5 39l-2 24l-5 11l-16 16l-33 10l-58 -4l-32 -15l-3 -6l-6 -10v-4l-12 -9h-11l-5 8l1 21l6 18l5 9l13 8l38 14l43 4l31 -2l27 -5l19 -11l21 -21z" />
    <glyph glyph-name="E" unicode="E" horiz-adv-x="280" 
d="M259 112l-10 -9l-21 -5l-22 -1l-98 1l-18 5l-26 3l-29 10l-5 12l2 23l5 10l-3 15v40h-16l-6 -3l-44 -4l-10 2l-7 14l1 19l6 5l16 4l3 4h46l9 3v58l-3 87l-6 19v32l-3 8l-11 13l2 16l18 14h15l7 10l6 4l8 4l19 -4l25 -5l44 5h72l8 1h5v-5l-13 -9l-31 -8l-42 -7l-6 -4
l-20 -3l-6 -4l-32 -4l-21 -5l-2 2l-7 -7l4 -78l7 -88l1 -38h136l22 -9v-9l-14 -7l-66 -5l-21 -4l-19 -1l-9 -4h-23l-6 -5l6 -53l25 -23l30 -11l26 -1l72 -6h23l6 -3l1 -6v-5z" />
    <glyph glyph-name="F" unicode="F" horiz-adv-x="275" 
d="M266 461l-7 -7h-73l-6 -4h-30l-49 -5l-4 -5l5 -99v-56l-1 -2v-5l5 -4l40 5l27 9l44 7l42 -1l-2 -9l-15 -9l-20 -2l-7 -7l-12 -2l-13 -5l-19 -4l-70 -22l-4 -6l-4 -91l4 -22v-15l7 -26l3 -8l14 -5l4 -4l-2 -14l-14 -12l-14 1l-12 6l-15 21l-1 12l-4 4l-4 53l4 93l-4 4
l-13 -2h-9l-22 23l3 14l5 9l40 3l2 18l3 58l-3 43l-8 41l-3 4l-5 5l-60 2l-10 7v34l16 10l20 -4l13 -6l26 1l5 4l22 -7h74l70 3l28 -6l9 -6l4 -5v-7z" />
    <glyph glyph-name="G" unicode="G" horiz-adv-x="274" 
d="M262 145l-5 -4l-4 -3l2 -28l4 -44l-4 -18l-9 -5h-6l-15 15l-7 22l-3 30l-2 1l-29 -11l-44 -8l-35 8l-26 10l-39 30l-18 23l-1 9l-13 17l-10 44l-4 25l-1 28v14l1 30l13 40l5 6l4 12l17 29l5 10l43 45l19 13l13 -2l12 -7l3 -5l4 -4l-2 -26l-16 -10l-18 -3l-12 -5l-28 -31
l-16 -34l-9 -33l-3 -27l3 -51l4 -9l2 -15l5 -11l2 -13l19 -29v-4l32 -28l15 -9l29 -7l42 5l21 8l4 1l5 5l-2 31l-3 38l-4 4l-1 14l-6 7v11l-16 19v9l14 12h13l19 -21l7 -13v-6l5 -9l5 -27l6 -7v-10l7 -11v-9l-2 2h-2l-1 -11v-5l10 -5v-7z" />
    <glyph glyph-name="H" unicode="H" horiz-adv-x="297" 
d="M278 118l-13 -9l-5 -8l-11 -8l-23 23v35l-10 50v14l-5 68l-4 117l-3 37l-4 11l-5 20l10 13l11 -2l5 -9l8 -3l5 -9l3 -25l3 -86l3 -48l1 -31l7 -58l9 -41l4 -7l10 -11l4 -9v-24zM193 197l-5 -5h-21l-18 -3h-19l-33 -6h-3l-3 -3l3 -25l9 -19l9 -38l-4 -6l4 -8l-5 -12h-16
l-14 23l-5 16l-4 3l-14 55l-4 6l-3 3l-41 -6l-12 -1l-16 -5l-8 1l-3 14l-3 5l-3 17v5l6 5l15 2l32 2h27l4 3l-1 60v81l3 32l3 8l3 29l5 19v19l5 15l10 7l15 -4l10 -5l5 -9l-1 -15l-14 -33l-6 -23l-5 -26v-116l5 -25v-12l50 -3h28l12 -4l16 -2l5 -5v-11z" />
    <glyph glyph-name="I" unicode="I" horiz-adv-x="87" 
d="M78 117l-2 -9l-6 -4l-17 -1l-15 10l-7 21l-9 23l-4 53v21l4 83l4 21v20l3 7v30l3 45v37l6 6l9 2l12 -4l12 -16l-12 -100l-7 -88l1 -64l6 -37l11 -30l5 -10z" />
    <glyph glyph-name="J" unicode="J" horiz-adv-x="116" 
d="M89 13l-5 -18l1 -14l-16 -20v-1l-10 -8l-18 8l-5 3l-2 18l6 5l-2 35l-4 41l-5 84v140l4 6l-4 38l4 24l-4 16v35l-9 23l-4 11l4 15l13 9l19 4l17 -4l8 -14l-2 -25l-4 -5l-2 -15l-3 -4v-53l-2 -187l4 -59v-14l3 -11v-22l6 -19l12 -7v-15z" />
    <glyph glyph-name="K" unicode="K" horiz-adv-x="239" 
d="M229 445l-3 -14l-5 -8l-3 -10l-36 -44l-14 -14l-39 -53l-14 -14l-9 -16l12 -12l20 -33l41 -55l9 -9v-4l29 -29l9 -25l-2 -9l-6 -4l-17 4l-7 10l-15 11l-82 94l-14 10l-2 6l-1 1l-9 -16l-7 -23l-9 -5l-18 13h-4l-3 -4v-65l11 -19v-18l-16 -12l-25 1l-5 21l2 108l10 121v25
l-1 113l-4 5l-2 2v5l14 9l11 -2l16 -11l-2 -144l-3 -5l3 -12l-2 -20l-4 -26l3 -27l1 -1l67 84l44 53l30 43l5 26l14 12l27 -9z" />
    <glyph glyph-name="L" unicode="L" horiz-adv-x="239" 
d="M219 81l-4 -5l-5 -6l-34 -9l-31 -10l-9 -5l-15 -4l-9 -5l-22 -4l-17 -5l-38 -2l-24 20l-3 3l3 9l-9 23v68l4 43v12l9 53l20 141l-5 57v19l14 7l20 -6l5 -7l4 -16l-4 -17v-36l-3 -21l-4 -24l-3 -30l-6 -9v-28l-9 -46l-3 -44l-3 -51v-30l6 -31l4 -8l11 -7h23l12 4l23 2
l45 14l25 3l19 -2l9 -3z" />
    <glyph glyph-name="M" unicode="M" horiz-adv-x="313" 
d="M300 83l-2 -11l-12 -10l-11 -2l-10 4l-12 16l-14 112l-2 147l-2 10v5l-4 4h-3l-42 -116l-27 -64l-7 -10l-4 -14l-14 -21l-8 -9h-14l-13 14l-9 26l-12 23l-10 37l-5 9l-4 19l-18 58l-7 11l-4 -3v-124l6 -20v-33l5 -22v-24l-12 -12l-13 -2l-12 18l-2 28l-3 21l-2 25l-2 32
v181l-7 17l2 17l11 12h19l19 -12l6 -9l1 -9l9 -16l2 -10l7 -11l9 -28l5 -11l4 -19l10 -33l9 -31l7 -10l2 -16l5 -7l2 -9l7 -7l9 13l15 26l17 42l5 7l5 22l21 63l5 10l4 16l10 27v17l9 13l9 5l11 1l14 -5l7 -6l5 -47v-5l4 -21l1 -148l6 -51l3 -16v-10l5 -37l4 -6l1 -12z" />
    <glyph glyph-name="N" unicode="N" horiz-adv-x="314" 
d="M288 96l-7 -16l-11 -17l-7 -6l-24 6l-9 11l-7 18l-14 15l-36 45l-46 60l-20 36l-24 33l-14 16l-1 5l-5 4l-3 1l-5 -9l-5 -100l4 -21l5 -39l5 -20v-5l-4 -3l-21 -3l-19 8l-5 6l7 8v9l-6 55l3 24v37l3 32v65l-14 14l-11 6l-3 14l3 21l18 7h12l2 2l10 -2l16 -11l8 -14l1 -11
l40 -63l22 -28l21 -41l15 -17l31 -48l21 -23l9 -6h1v29l-7 39l-31 137l-13 38l4 12v3l5 6l16 -2l8 -5l18 -22l4 -3v-11l-11 -10l4 -12l2 -22l7 -16l1 -17l9 -27l2 -19l3 -5l4 -25l5 -26l9 -32v-13l11 -35l14 -5v-12z" />
    <glyph glyph-name="O" unicode="O" horiz-adv-x="404" 
d="M400 275l-3 -57l-5 -17l-16 -35l-31 -36l-9 -5l-10 -11l-48 -33l-25 -9l-27 -14l-55 -7l-41 -4l-42 9l-52 23l-10 7h-5l-6 5v6l-14 14l-17 33l-11 36l-3 44l3 49l4 6l1 15l4 4l7 28l11 17v6l26 33l23 21l23 6l26 -4l23 -12l60 12l40 6l30 -6l39 -7l36 -14l19 -14l39 -44
l12 -28zM366 229v51l-10 26l-30 39l-8 4l-10 9l-13 1l-10 8l-30 10l-55 4l-18 -4l-44 -7l-6 -6l-2 -6l-9 -9l-11 -4l-5 4l-11 3l-5 -1l-14 -4l-12 -10l-19 -6l-5 3l-13 -14l-16 -52l-2 -62l7 -40l11 -18l5 -16l14 -14l5 -9l24 -15l38 -16l50 -4l17 4l20 3l38 14l60 37l48 46
l16 33z" />
    <glyph glyph-name="P" unicode="P" horiz-adv-x="236" 
d="M223 245l-9 -21l-18 -22l-44 -28l-21 -7l-3 -3l-16 -2l-13 -9l-17 -4l-4 -3l4 -21v-20l2 -15l15 -60l-1 -5l-14 -13h-16l-13 16l-1 13l-8 38l-5 69l-3 106l-11 98l-3 11l-4 4l-14 1l-9 7l-7 18l-2 2l4 8l16 11l2 25l6 5l13 2l25 -7l5 -6l1 -13l3 -17l61 -30l42 -26
l38 -35l19 -39v-28zM186 250l-4 21l-7 14l-28 29l-34 23l-17 6l-27 9v-26l8 -67l1 -83h6l33 20l16 5l28 19l20 18z" />
    <glyph glyph-name="Q" unicode="Q" horiz-adv-x="406" 
d="M402 181l-13 -30l-14 -19l-35 -30l-23 -13l-39 -17l-26 -14l-21 -7l-44 -16l-14 -4l-6 -8l-3 -39l5 -55l-2 -8v-5l6 -6v-3l-11 -9l-9 5l-9 13l-6 17l-8 24l-1 64l-6 5l-32 2l-49 17l-21 14l-21 25l-16 28l-4 11l-3 27v44l11 45l24 57l20 33l3 16l14 12h12l15 -7l9 -14
l-3 -14l-5 -7l-12 -3l-16 -20l-8 -18v-5l-9 -12l-20 -57l4 -63l14 -35l17 -19l20 -16l26 -9l36 -2l3 18l3 47l5 21l-1 11l5 18l11 10l14 4l18 -9v-11l-8 -15l-8 -50l-2 -17v-16h19l71 26l61 34l23 20l23 27l3 21v27l-11 30l-29 36l-45 33l-39 14l-61 -3l-20 -5l-24 -9
l-44 -27l-17 -4l-3 5v4l15 19l5 2l8 9l28 14l14 12l44 10l5 3l57 -4l53 -18l10 -8l16 -6l44 -47l19 -30l2 -13l6 -10v-48z" />
    <glyph glyph-name="R" unicode="R" horiz-adv-x="300" 
d="M296 279l-9 -35l-22 -39l-27 -26l-34 -25l-22 -15l-8 -8l3 -5l22 -26l11 -5l39 -53l2 -13l3 -3v-7l-11 -6l-14 4l-22 17l-29 29l-14 9l-12 12l-23 12l-16 5l-18 -5l-6 -5l-18 -5l-4 -4l8 -58l-3 -5l-12 -9h-14l-9 5l-4 9l-1 35l-9 5l-10 2l-15 21l9 9l2 4l14 10l-9 118
l-10 71v8l-4 9l-3 18l-5 16l-3 42l13 17h65l2 3l72 -3l48 -11l32 -15l19 -12l31 -32l15 -28zM256 263v18l-4 20l-14 19l-25 25l-30 15l-35 11l-24 3l-34 2l-23 -5l-17 -2l-17 -14l13 -74l4 -48l5 -44v-20l3 -16l2 -28l4 -4h3l14 4l29 11l12 13l24 5l22 11l54 42l21 23l9 18z
" />
    <glyph glyph-name="S" unicode="S" horiz-adv-x="133" 
d="M138 425l-2 -17l-31 -18l-36 -31l-21 -39l-1 -9l-6 -10l-5 -27l5 -49l6 -9l3 -20l28 -66l13 -27l10 -33l4 -11l2 -40l-2 -16l-14 -28l-28 -32l-13 -7l-16 -13h-9l-8 13v14l16 20l12 6l19 25l5 23l-1 32l-14 44l-6 7l-3 14l-7 9l-5 16l-5 9v6l-17 33l-12 63l4 26v14l7 25
l9 21l42 56l35 32l17 7l8 2l10 -2z" />
    <glyph glyph-name="T" unicode="T" horiz-adv-x="379" 
d="M374 314h-48l-12 4l-49 2h-30l-39 -4l-51 -3l-5 -6v-81l-4 -37l-5 -31l-4 -69l6 -32v-12l-14 -16v-2l-4 -4l-19 6l-6 3l-3 16l3 41v19l6 51l9 90l-3 58l-6 7h-103l-12 12l-3 11l3 14l16 9l44 -2l12 -3h28l6 23l15 9h9l18 -18l4 -14v-4l8 -5l168 -2l14 -4l30 -5l17 -5z
" />
    <glyph glyph-name="U" unicode="U" horiz-adv-x="241" 
d="M220 217l-3 -71l-9 -25l-21 -34l-30 -27l-23 -9l-4 -4l-40 5l-35 22l-22 24l-10 25l-4 16l-12 98l-3 6l-4 21v16l-16 28v17l5 6h21l9 -15l9 -17l7 -24l16 -127l7 -18l4 -12l12 -20l23 -16l30 3l18 11l1 8l13 5l15 17l9 27l2 20v63l-4 14v25l-1 12l-6 19l-9 13l8 21l5 3
l20 -2l3 -3l5 -7l9 -55z" />
    <glyph glyph-name="V" unicode="V" horiz-adv-x="239" 
d="M228 421l-2 -22l-4 -8l-1 -14l-4 -6l-4 -42l-8 -98l-6 -32l-6 -41l-18 -85l-11 -27l-6 -20l-9 -18l-4 -14l-4 -3l-3 -14l-10 -6l-6 -12l-8 -5l-11 1l-9 8l-5 30l-36 158l-16 58l-1 13l-8 28l-2 5l-3 17l-5 24l-12 38l-7 11l-4 18v10l6 4l26 -4l7 -5l7 -10l5 -27l7 -21
l2 -13l21 -97l23 -86l9 -49l9 -27l2 -1l9 9l10 21l9 33l3 14l16 69l9 61l7 96l4 19v16l1 46l7 12l14 4l13 -6z" />
    <glyph glyph-name="W" unicode="W" horiz-adv-x="310" 
d="M297 290l-1 -33l-4 -5l-2 -24l-5 -69v-54l3 -16l-5 -37l-3 -13l-19 -17l-11 -7l-11 3l-40 58l-11 20l-9 26l-5 9l-4 16l-19 44l-5 21l-12 23l-8 20l-5 11l-5 6l-18 -30l-3 -16l-8 -18l-8 -80v-17l-3 -31l-11 -16l-7 -7h-18l-8 10l-8 18v12l-3 4v23l-6 23l-3 33l-9 67
l-9 35l-6 28l-8 9v13l10 11l15 3l12 -2l11 -16l4 -32l3 -5l2 -19l3 -9l7 -56l5 -4l6 14l3 16l11 23l4 14l8 18l7 33l-1 4v5l5 5l1 9l4 4l21 6l18 -6l7 -9l2 -18l5 -30l30 -74l3 -15l11 -25l35 -85l11 -11l5 8l2 21l3 74l8 60l-4 30l1 25l13 8l9 3l10 -5z" />
    <glyph glyph-name="X" unicode="X" horiz-adv-x="310" 
d="M290 359l-3 -14l-14 -10l-39 -43l-16 -15l-53 -71v-7l34 -63l26 -39l39 -44l10 -5v-22l-8 -3l-11 -11h-16l-9 11l-1 7l-30 44v3l-16 16l-33 57l-9 19h-5l-36 -46l-41 -60l-17 -32l-11 -35v-16l-1 -1l7 -13l-2 -10l-12 -5l-17 1l-15 23l4 30l6 21l13 22l23 41l79 110v14
l-32 53l-25 31l-26 39v7l16 13l10 3h8l19 -24l3 -11l53 -85l5 -1l13 14l2 5l10 11l18 23l19 26l15 14v4l15 19l4 8l19 20l16 -6z" />
    <glyph glyph-name="Y" unicode="Y" horiz-adv-x="309" 
d="M289 332l-8 -12l-20 -107l-16 -64l-11 -38l-9 -22l-24 -64l-18 -45v-7l-9 -12l-4 -21l-6 -20l-4 -24l-2 -4v-5l12 -13l-5 -21l-26 -18h-14l-13 13v21l4 4l4 23l24 82l9 21l7 20l14 31l2 14l-6 4l-12 2l-12 8l-3 27l-36 46l-95 141l-10 24l1 13l11 8l18 -1l15 -23l49 -88
l20 -26v-4l14 -18l51 -63l12 -6l11 25l16 67l14 67v62l14 17l19 -3l16 -7h2z" />
    <glyph glyph-name="Z" unicode="Z" horiz-adv-x="320" 
d="M400 44l-2 -12l-23 -11h-28l-58 -5l-23 -4h-46l-21 -6l-93 -11l-26 -5l-88 -16l-18 3l-7 23l2 21l15 11l175 241l10 20v5l-17 4l-45 -6l-44 -14h-5l-28 -18l-16 4l-17 20v10l3 7l16 12h35l26 7l22 2l31 9l43 3l39 4l8 -2h4l7 -12l-2 -16l-9 -14l-8 -13l-25 -33l-2 -5
l-9 -9l-19 -27l-3 -6l-8 -5l-47 -68l-5 -10l-9 -11l-55 -82v-4l6 -5h33l17 6h24l158 18l116 7l10 -1z" />
    <glyph glyph-name="bracketleft" unicode="[" horiz-adv-x="489" 
d="M468 475l-2 -12l-20 -17l-17 -2l-18 2l-9 18l-14 -3l-26 -17l-12 -13l-6 -12l-3 -4l-5 2h-2l-3 3v13l8 8l14 11l38 23l3 4h-11l-33 -20l-21 -18l-11 -12l-10 -18l-25 -1l-9 21l-5 5h-4l-9 -12l-5 -42v-25l2 -2v-5l-5 -2l-6 -7h-5l-3 3v11l-6 11l-19 42l-21 36l-7 2l-8 8
l-10 -2l-3 -3l-9 5l3 10l9 9v4h2l33 49v3l9 9l14 21h-10l-35 -30v-3l-8 -3l-39 -53l-8 -29l-3 -19v-2l-8 4l-3 5l7 25l-2 1l-7 -6l-14 -4l-17 -21l-15 -25l-7 -17l-2 -9h-1l-19 -88l5 -7v-2l1 -2l-1 -4l-29 18l-20 23h-3v-33l11 -63l6 -11l5 -6h16l3 4h9v-9l-18 -12l-14 1
l-9 8l-9 14l-3 24l-5 25l-7 72l1 5v6l9 3l13 -17l9 -13l19 -17l7 12l12 63l16 41l11 18l24 37l11 5l9 -2l6 -5l8 12l10 20l39 44l35 35v4l8 6l-4 5l5 8l16 -4l10 -4l18 -5l19 -14l11 -12l-2 -16l-10 -8l-9 -6l-16 -3l-11 3l-14 20l-8 -8l-3 -6l-17 -20l-27 -44v-4l3 -1l3 3
l12 -2h20l28 -3l7 2h5l11 -9l8 -4l11 -9l9 -8v-4l9 -9l14 21l31 29l32 18l18 6l5 4l2 1v4h34l20 -10l9 -11zM353 248l-3 -18l-9 -9h-5l2 9v12l-4 8v5l5 5l11 -1zM320 220l-3 -11l-18 -12l-26 -13h-8l-1 7v6l5 3h10l11 6l7 1l11 9l-11 5l-28 -4l-5 -2v8l17 7l23 2l9 -4l5 -3z
M380 299l-2 -84l-7 -17l-5 -7l-11 -9l-12 4v2l-2 2h-5l-22 -52l-17 -31l-18 -25l-3 -14l-14 -3l-27 -16l-26 -8l-41 3l-17 8l-36 27l-22 26l-22 35l-10 25l-7 19l3 4l6 -2l5 -9l6 -15l28 -52l22 -26l5 -2l18 -16l26 -12l29 -4l26 7l14 9l13 9v5l9 9l6 2l16 21l9 16l5 7
l13 28v5h1l6 23l-2 9v4h32v-2l2 -2l6 4l8 21l3 34l-3 31v10l-2 3l-14 -24v-9l-16 -5l-2 2h-5l-9 -12l-4 -4l-15 2l-13 14v18l4 3l18 9l12 -2l9 -9l5 23v46l-9 27l-7 10v9l4 1l9 -1l10 -21l2 -16l4 -14v-44l1 -2l5 7l5 27l4 3l2 2h5v-2l2 -2h5zM204 264l-2 -11l-11 -9
l-20 -12l-27 2l-11 8l-4 9l-3 16l2 27l4 3h3l-3 -19l3 -19l14 -17h19l18 11l7 7v7l-12 21l-9 9h-14l-11 -9h-3l2 12l8 9l8 2l14 -3l8 -9l7 -7l7 -13zM281 144l-3 -6l-9 -1l-7 5h-3l-9 -10l-15 -14l-20 -6l-22 7l-17 23v11l-13 5l-3 4l5 3l44 -9l35 -3l4 6h7l1 -5l18 -1l4 -6
zM36 216l-5 -5h-14l-7 9l-4 10v20l-1 1l5 9l11 -1v-9l-4 -11l4 -13zM452 473l-8 12l-25 5v-2h1l4 -8v-19l11 -2l14 7zM276 549l-6 10l-17 14l-21 6l-2 -7l11 1l10 -8v-11l-3 -3l5 -9l3 -4l11 2zM237 383v14l-3 -10zM314 273v5l-5 5l-5 -7h-4v-3l6 -6h3zM239 140l-2 2l-33 2
l-14 5v-5l8 -12l11 -4l12 -2l14 7z" />
    <glyph glyph-name="backslash" unicode="\" horiz-adv-x="366" 
d="M351 191l-2 -17l-11 -24h-3l-6 -10l-6 -2l-10 -7h-9l-32 -87l-2 -15l-5 -20l-51 -9l-39 9l-11 6h-22l-2 1h-4v4l-16 16l-28 24l-40 46l-4 7l-8 11l5 11l11 -4l1 -2l13 -24l12 -13v-4l46 -40l19 -14l16 -4l14 -6l14 -4l12 -5l41 1l8 13l25 51l8 25l11 30l3 12l-13 19
l-10 9l-4 9l-2 -2h-5l-10 5l-29 4l-42 -20l-30 -15h-4l-3 -6l-11 -3l-17 -15v9l14 13l5 2l30 18l29 15l14 5l6 6h4l11 10l17 -3l23 -11l13 -9l14 -13h1l2 1l-3 10l1 11l5 2l9 14v3l-1 3l3 2v13l-3 4h-6l-2 -2v-6l-17 -10l-19 1l-8 11v6h4l9 14l12 5l14 -2l2 -1h3v-4l2 -2
l6 7l3 9l-2 16l-7 14v7l-7 12v9l-5 5l-5 21l-8 13l-1 12l-7 9l-2 10l-7 11l-2 -8v-6l6 -3l1 -7l-7 -9l2 -16l-4 -3v-8l-12 -8l-12 1l-4 9l2 9l-3 11l-13 22l-8 11v3l-23 23l-11 7l-2 6l-17 8h-38l-15 -15l-16 3l-18 -12l-4 -7l-8 -9l-18 -30l-5 -16h-2l-5 -17l2 -25l3 -13
l6 -10l8 -11h-8l-11 16l-2 5v4l-4 4l-3 -4l-3 -28l6 -26l3 -11v-5l-8 -4l4 -5l4 -9l-3 -5l-1 -2h-5l-13 16h-3l-7 -28l2 -32l5 -16l8 -12l11 -4h16l2 -5l-6 -9l-19 2l-21 17l-7 21l-2 53l4 4v9l9 16l7 5l5 -4l1 53l4 4l9 40l9 25l14 32l9 12l12 19l21 17l11 27l17 32l14 30
l7 18l9 10l9 20l32 45l12 18h10l9 -10l9 -57l6 -18l1 -12l4 -18l1 -15l13 -59l10 -24l15 -16l10 -30l10 -28l4 -18l23 -56l2 -13l5 -11l10 -11v-6h-1l-7 -10l-5 -20l13 -8zM182 224l-7 -10l-14 -9h-25l-7 5l-10 8l-5 15l5 21l3 4v1h4l3 -3l-3 -14v-14l10 -10h28l9 11l-1 16
l-11 11l-8 -3l-8 -6l-7 -9h-5l-2 2l5 13l11 9l11 5l14 -2l10 -12v-29zM255 145l-14 -2l-27 -5l-9 2l-2 1v4l29 9h19l4 -4v-5zM276 105l-4 -11l-5 -6l-9 -1h-3l-4 5h-57l-12 -4h-32v9l6 4l58 4h44l2 1zM242 55l-40 -2l-4 4v3l9 6l23 3l12 -1v-13zM36 161l-2 -2h-5l-11 9
l-14 25v8l9 8l9 -2l4 -25l10 -20v-1zM247 390v30l-3 23l-6 14l-10 54l-12 57l-2 2v6l-3 4l-3 13l-5 14l-1 1v6l-5 6l-17 -15l-12 -18l-9 -12l-9 -18l-6 -11l-27 -58l-6 -19l-2 -14l55 3l25 -10l18 -18l26 -36l5 -15h4zM294 237v3l-3 2h-10l-9 -7l10 -4zM335 184l-5 7l-9 -9
l-8 -17l1 -9l-5 -6v-7l20 14v8l5 3z" />
    <glyph glyph-name="bracketright" unicode="]" horiz-adv-x="325" 
d="M312 187l-5 -12l-5 -7l-19 -9l-3 -35l3 -2l-4 -4l-2 -12l-12 -23l-13 -18l-14 -5l-14 -9h-49l-48 3l-27 10l-40 35l-10 13l-14 26l1 2l-7 8l-15 3l-25 26l-11 19l2 26l12 22l13 5l5 5l-4 5v11l-6 4l-6 5v1l2 3l-5 10v30l3 19l6 18l14 3v23l12 21l3 11l4 7l-2 12l-16 13
l-4 10l4 13l9 12l11 16l10 16l5 21l16 10v4l6 4l30 1l5 4l12 1h7l4 -6l16 -13l58 -26l33 -18v-4l23 -22v-5l5 -4l4 -9l15 -18l-1 -21v-25l4 -9l-3 -6h-1l-1 -2v-3l5 -4l3 -48v-16l-2 -1l4 -4l-8 -10l3 -13l1 -1l4 -13l-2 -16v-5l9 -7l9 -16l1 -28zM271 342l-1 2v7l-5 5l-7 2
l5 -12l7 -5zM265 377l-2 3l-2 10l4 39l-15 17l-3 11l-20 19l-3 9l-16 12l-35 18l-20 7v1l-20 6l-18 12v2h-11l-31 -9l-27 -42l-12 -21l-2 -12l7 -8l6 -5l3 -7l2 -19l-7 -9v-7l-6 -9l2 -2l-5 -12l16 5l72 5l111 -5l8 -6zM252 307v5l-2 20l-6 5v4l-6 -14v-22l7 -2zM210 369
l-10 3l-4 -3l7 -14l2 1zM171 363v13h-9zM189 327v6h-2v-6h2zM259 258l-5 7l-5 1l-5 -1l1 -9l11 -2zM296 180v6l-2 24l-5 7l-1 -42zM164 324l-3 17l-4 5l-4 -28l4 -9h4l1 2zM142 369v8h-47l-14 -3l-1 -2l5 -5v-4l13 2l10 -5v-5l7 -11l5 18l9 14zM129 307l-2 20v-18zM103 316
l-4 7l-1 1v8l-3 -5v-22l3 2h2zM62 369h-7l-9 -4l2 -51l2 2v7l4 4v6l6 22v5l-1 2zM71 302l-2 12l-2 10l-5 -24h5zM18 347v6l-2 5l-1 2l-4 -2l-4 -17l8 -4v7zM30 294v11l-3 6l-2 -2v-16zM275 219v25h-5v-4l-2 -1l-23 -3l-18 18l-1 14l14 15l12 1l18 -10v9l-9 -3l-11 8h-15
l-16 3l-50 6l-33 -4l-46 -5h-16l-19 -8l-12 -6l-11 3l-3 -3h-9l1 -21l2 -3v-5l-2 -1h-9l-5 -4l-14 -18v-26l14 -18l25 -17l18 -5v-3l9 -26l15 -19l21 -14l8 -11l10 -5l34 -13l45 -1l35 7l17 11v5l1 2l5 1v4l9 9l6 17l1 14l4 32zM177 245l-6 -9l-9 -5l-10 -3l-21 3l-9 14
l2 21l12 13l7 1l25 -1l9 -16v-18zM235 166l-13 -5l-7 -5l-5 1v11l9 5l7 2h7l2 -4v-5zM197 171l-3 -3l-19 -2l-4 -4h-2l-3 4v2l11 7l10 2h7zM196 92l-4 -3h-9l-6 6l-20 -1l-1 -2l-4 2l17 9l14 1l6 -1l7 -5v-6zM48 186l-9 -6l-14 6l-2 5l-8 14l-4 12l4 2l14 -2l5 -8v-4l-2 -2
l5 -8l8 -4v-2zM162 258l-9 8h-3l-16 -7v-9l8 -6l11 -2l8 5z" />
    <glyph glyph-name="asciicircum" unicode="^" horiz-adv-x="426" 
d="M391 378l-6 -7l-2 -20v-13l4 -9l1 -13v-72l-3 -16l-5 -16l2 -5h-11v20l7 14v74l-7 15l2 49l7 8h11v-9zM188 385l-2 -14l-7 -6h-7l-18 39l-15 83l-4 13l-4 3l-8 -9l-2 -18l2 -56l12 -28l19 -18v-5l2 -1l-7 -4l-4 -5h-6l-30 33l-11 34l-5 47v19l-7 8h-9l-9 -15v-45l11 -34
l19 -19l11 -5l1 -8l-9 -9l-12 4l-18 19l-6 18l-9 23l-2 2l-2 -9l5 -19l9 -18l5 -7l-1 -9v-1l-9 -4l-26 15l-18 18l1 11l8 1h5l9 -15l7 -4l1 2l-3 4v16l-3 54l-2 7v5l5 4h11l5 10l1 11l18 12h15l10 -12l5 -16h2l9 24l7 9l5 6l11 -2l7 -9l3 -53l9 -47l14 -30h11zM368 154
l-2 -12l-13 -11h-5l-7 9l-51 4l-30 -4l-18 -45l-17 -25l-9 -5l-10 -3l-6 -5l-16 8l-42 6l-38 9l-9 6l-11 1l-5 5l-8 3l-14 15l-12 26l-5 43l2 1h5l4 -8l3 -28l7 -22l19 -21l15 -3l14 -7h10l5 -5l32 -6l3 -3l50 -2l14 11l14 24l10 25l-6 5h-60v2l-4 2h-5l-2 -2l-8 -3h-13
l-1 1v4l44 14l38 17l6 5l20 3l4 5l2 72l2 11v5l-2 1l-9 -10l-11 -7h-17l-5 3l-4 9l2 8l12 10l12 4h13v-3l7 -6l2 1l-8 14l2 11l6 4v14l-9 19h-2l-6 9l8 16l12 3h4l12 12l21 24l11 24v29l-11 24l-21 17l-18 9h-1v-12l7 -11l5 -22v-34l-18 -32l-14 -16l-21 -19h-5l-4 7v6l7 5
v3l12 9l18 19l9 16l4 22v17l-9 16l-27 21l-8 1v-10l3 -3l2 -16l3 -21l-1 -38l-15 -19l-15 -12l-2 2v5l17 19l6 11v46l-2 7l-7 24l-7 11h-14l-5 5l-2 4v5l8 5l11 -1l12 -7l11 10l4 2l15 -7l39 -13l19 -11l20 -24l7 -23v-19l-5 -17l-11 -22l-14 -16l-12 -12l9 -8l-4 -17
l-7 -12l-3 -32v-17l-8 -9l13 -10l12 -6l11 -14l-2 -15l-12 -18l-9 -9l-9 -7l-4 -4l-1 -14l-4 -4l5 -6l-1 -2l3 -4h12l25 -3l32 -2l9 9h7zM223 197l-5 -6h-6l-3 6l-2 1l5 5h4zM148 277l-6 -12l-9 -7l-9 4l-3 7h-7l-4 3v5l18 11l16 -3zM206 202l-31 -4l-1 2h-4l4 9l15 3h9
l8 -5v-5zM82 233l-21 -12l-7 4l-2 5v2l-9 4h-5l4 11l3 4l-7 7l-7 -3l-5 -6v-13l9 -15v-5h-6l-12 20l1 19l13 16l-4 1l-5 5v11h-18l-6 -12v-51l6 -22l6 -10l7 -5l12 1v-14h-11l-6 5l-13 18l-5 18l-3 17l1 44l16 20l-5 27l4 19l-3 16l6 6h7l4 -5v-7l-3 -2h9l6 4l21 2l2 2l4 -4
l-6 -5l-14 -4l-14 -7h12l19 7h4l4 -3l-13 -9l-14 -4l-14 -10h18l3 1h6l3 -6l-2 -2v-6l2 -1l2 -6v-5l-13 -13v-1l13 -4v-3l10 -5l-1 -7l-14 -7l-3 -2v-2h25v-5l-3 -4l7 -1h5v-8zM114 438l-2 18h-2l2 -18h2zM290 249l-4 4h-1l-13 2l2 -39l14 14zM244 276v5h-3l-9 -5v-4l1 -1h4
l2 1zM294 156v2h-8v-2h8zM237 156v3l-1 6h-4l-7 -4l-19 -7l1 -1z" />
    <glyph glyph-name="underscore" unicode="_" horiz-adv-x="415" 
d="M381 359l-8 -5h-7l-4 -4l-14 -7l-16 -14l-5 2v7l14 14l11 4l14 8l15 -1v-4zM394 301l-15 -5l-17 -2l-8 -4l-8 4l2 4v5l18 5l26 -2l2 -1v-4zM398 237l-4 -3h-32l-5 7v4l7 5l25 -5l9 -5v-3zM253 281l-12 -11h-20l-3 5l-4 4l2 8l4 11l7 5l17 -2l5 -5l4 -9v-6zM235 234l-1 -8
l-21 -18l-5 2h-3v7l15 14l-9 5h-16l-1 -2h-6l-2 6l4 6l12 4l19 -2zM364 461l-2 -15l-22 -35l-20 -24l-19 -24l-8 -7l-1 -9l-5 -2l-5 -8l-11 -9h-4l-2 1l-7 -10h-3l-3 -4l-8 5l-1 8l-48 6l-48 -1l-35 -7l-33 -18l-7 -12l-13 -7l-6 3l-15 -24l4 -7v-4h-16v2l-2 2l-10 -6
l-22 -23l-3 -12l3 -16l13 -11h5l5 -5h20l5 5l2 -1h3l2 -13h7l7 -30l6 -17l6 -16l11 -16l24 -17l25 -9l55 2l26 9l34 19l23 26l7 16l7 28l-2 25l-7 16l-5 -4l-4 -7h-7l4 19l1 6l9 3l5 -1l13 -23v-53l-4 -3v-8l-17 -31l-39 -30l-9 -2l-9 -7l-12 -2l-6 -5l-44 -6l-33 6l-7 5
l-15 4l-27 26l-14 27v6l-3 4v10l-4 4l-2 25h-19l-28 4l-18 15l-3 11l1 23l14 17l15 11h3v67l8 17l4 16l11 28l12 16l11 11l19 5l11 6l29 10l35 -2h33l3 -3l33 14l31 8l10 8l23 3l3 3l38 6h6l2 2l18 -2l9 -3zM142 275l-3 -14l-13 -6l-9 4l-6 9v5l8 6v2l13 4h3zM248 167
l-16 -15l-18 -9l-24 -8l-20 4l-20 9l-13 9l-14 -2h-6l-3 7l7 5l29 7h6l16 5l14 3l30 8l22 11l5 -4l5 -5v-25zM350 447l-2 13l-2 1l-26 4l-16 -4l-21 -6l-26 -6l-43 -18l-18 -6l-10 -8v-1l2 -2l2 -14l-7 -9h-6l-3 3v8l-5 6l-14 -8v-9l-5 -5h-4l-4 3l-17 -16l-23 -23l-20 -22
l15 5l35 7l15 5h78l32 -8l3 -6l2 9l28 27l23 29l14 12l2 8l8 9l8 12zM126 422v3h-9v-3h9zM239 287l-1 2v1h-6v-6h3zM114 374l-2 1l-5 -5l1 -1zM235 178h-5l-10 -4l3 -10h6l1 2zM209 157l-7 12l-6 2l-6 -4l5 -14h10zM176 155l-4 7l-5 2l-7 -4h1l6 -5h9zM28 270v5h-2v-7z" />
    <glyph glyph-name="grave" unicode="`" horiz-adv-x="366" 
d="M351 191l-2 -17l-11 -24h-3l-6 -10l-6 -2l-10 -7h-9l-32 -87l-2 -15l-5 -20l-51 -9l-39 9l-11 6h-22l-2 1h-4v4l-16 16l-28 24l-40 46l-4 7l-8 11l5 11l11 -4l1 -2l13 -24l12 -13v-4l46 -40l19 -14l16 -4l14 -6l14 -4l12 -5l41 1l8 13l25 51l8 25l11 30l3 12l-13 19
l-10 9l-4 9l-2 -2h-5l-10 5l-29 4l-42 -20l-30 -15h-4l-3 -6l-11 -3l-17 -15v9l14 13l5 2l30 18l29 15l14 5l6 6h4l11 10l17 -3l23 -11l13 -9l14 -13h1l2 1l-3 10l1 11l5 2l9 14v3l-1 3l3 2v13l-3 4h-6l-2 -2v-6l-17 -10l-19 1l-8 11v6h4l9 14l12 5l14 -2l2 -1h3v-4l2 -2
l6 7l3 9l-2 16l-7 14v7l-7 12v9l-5 5l-5 21l-8 13l-1 12l-7 9l-2 10l-7 11l-2 -8v-6l6 -3l1 -7l-7 -9l2 -16l-4 -3v-8l-12 -8l-12 1l-4 9l2 9l-3 11l-13 22l-8 11v3l-23 23l-11 7l-2 6l-17 8h-38l-15 -15l-16 3l-18 -12l-4 -7l-8 -9l-18 -30l-5 -16h-2l-5 -17l2 -25l3 -13
l6 -10l8 -11h-8l-11 16l-2 5v4l-4 4l-3 -4l-3 -28l6 -26l3 -11v-5l-8 -4l4 -5l4 -9l-3 -5l-1 -2h-5l-13 16h-3l-7 -28l2 -32l5 -16l8 -12l11 -4h16l2 -5l-6 -9l-19 2l-21 17l-7 21l-2 53l4 4v9l9 16l7 5l5 -4l1 53l4 4l9 40l9 25l14 32l9 12l12 19l21 17l11 27l17 32l14 30
l7 18l9 10l9 20l32 45l12 18h10l9 -10l9 -57l6 -18l1 -12l4 -18l1 -15l13 -59l10 -24l15 -16l10 -30l10 -28l4 -18l23 -56l2 -13l5 -11l10 -11v-6h-1l-7 -10l-5 -20l13 -8zM182 224l-7 -10l-14 -9h-25l-7 5l-10 8l-5 15l5 21l3 4v1h4l3 -3l-3 -14v-14l10 -10h28l9 11l-1 16
l-11 11l-8 -3l-8 -6l-7 -9h-5l-2 2l5 13l11 9l11 5l14 -2l10 -12v-29zM255 145l-14 -2l-27 -5l-9 2l-2 1v4l29 9h19l4 -4v-5zM276 105l-4 -11l-5 -6l-9 -1h-3l-4 5h-57l-12 -4h-32v9l6 4l58 4h44l2 1zM242 55l-40 -2l-4 4v3l9 6l23 3l12 -1v-13zM36 161l-2 -2h-5l-11 9
l-14 25v8l9 8l9 -2l4 -25l10 -20v-1zM247 390v30l-3 23l-6 14l-10 54l-12 57l-2 2v6l-3 4l-3 13l-5 14l-1 1v6l-5 6l-17 -15l-12 -18l-9 -12l-9 -18l-6 -11l-27 -58l-6 -19l-2 -14l55 3l25 -10l18 -18l26 -36l5 -15h4zM294 237v3l-3 2h-10l-9 -7l10 -4zM335 184l-5 7l-9 -9
l-8 -17l1 -9l-5 -6v-7l20 14v8l5 3z" />
    <glyph glyph-name="a" unicode="a" horiz-adv-x="254" 
d="M239 83l-6 -14l-15 -9h-14l-13 12l6 39v5h-9l-14 -9l-9 -1l-14 -9l-30 -13l-26 -3l-12 -3l-50 1l-12 8l-21 6l-21 25l-6 13l2 26l9 19l9 9v4l16 19l44 44l31 25l19 10l48 13l43 -4l3 5l-16 50l-10 15l-15 20l-23 16h-26l-19 -11l-23 -28l-6 -14v-11l-11 -11l-6 3l-12 15
v18l7 19l13 18l8 10l34 23l20 6l32 -4l23 -14l18 -17l17 -27l14 -26l13 -48l6 -79v-90l4 -41v-10zM200 153l-3 7l3 26l-5 57l-4 7l-14 14l-30 4l-8 -4l-36 -12l-26 -19l-44 -44l-14 -22l-5 -17l1 -14l8 -13l19 -12l44 -2l23 2l28 9l51 16l11 10z" />
    <glyph glyph-name="b" unicode="b" horiz-adv-x="200" 
d="M187 265l-2 -32l-10 -28l-10 -18l-2 -9l-16 -19l-51 -72l-23 -16h-11l-19 13l-7 19l-14 25l-4 17l-5 51l-5 59l-9 11v15l4 7h1l7 7v32l5 65l4 17l4 92v44l3 9l2 3l10 7h9l9 -12v-48l-5 -54v-13l-4 -47l-1 -41v-47h30l31 3l13 -3l19 -2l31 -14zM152 247l-9 14l-17 9l-20 2
l-1 -2h-18l-34 -4l-5 -5l-4 -10l4 -43l5 -41l9 -27l9 -12l7 6l7 2l9 9l44 60l11 21z" />
    <glyph glyph-name="c" unicode="c" horiz-adv-x="234" 
d="M277 144l-27 -20l-17 -7l-44 -9l-45 -3l-33 6l-27 8l-10 7l-9 2l-44 32l-21 30l-9 28l-4 5l2 51l4 5v13l30 48l33 27l19 8l6 5l22 4h17l1 1l15 -4l17 -5l18 -9l3 -10l-3 -16l-11 -5l-33 10h-32l-25 -14l-33 -33l-6 -11l-7 -28l4 -46l12 -26l34 -33l21 -9l25 -8l52 -6
l52 6l40 13l5 4h8v-11z" />
    <glyph glyph-name="d" unicode="d" horiz-adv-x="240" 
d="M219 588l-4 -14l-15 -20l-8 -15l-9 -32l-1 -16l-20 -132l-14 -141v-30l2 -62l11 -7l-4 -17l4 -23l15 -4l6 -5l1 -37l-12 -21l-7 -4l-14 4l-9 7l-5 27l-13 31h-53l-10 5l-12 2l-16 12l-6 9l-11 13l-15 51l6 37l3 25l12 38l16 28l28 33l41 25l23 6l18 113l6 45l9 43l4 5v14
l17 25l4 1l26 -6zM120 281v9l-2 11l-5 9h-7l-28 -21l-19 -27l-17 -44l-5 -44l4 -30l12 -25l26 -15h25l14 6v20l-4 13v110z" />
    <glyph glyph-name="e" unicode="e" horiz-adv-x="236" 
d="M251 71l-24 -17l-30 -10l-12 -8h-55l-28 9l-28 20l-41 44l-26 65l-13 81l4 19l3 21l16 28l18 15l35 15l10 3h36l5 -4l11 1l7 -6h3l25 -29l7 -18l2 -13l3 -17v-63l-8 -17l-9 -4l-25 2l-35 2l-32 5h-14l-14 3h-2v-16l14 -44l9 -17l25 -25v-3l19 -13l7 -9l32 -12l42 4l21 7
l11 5l19 2l6 3l6 -1v-8zM148 251l-6 37l-9 18l-19 14l-23 2l-20 -5l-20 -17l-15 -22l-1 -36h3l9 -1l44 -7l41 -4l10 5z" />
    <glyph glyph-name="f" unicode="f" horiz-adv-x="244" 
d="M204 257l-2 -13l-6 -2l-3 -4l-44 -7l-3 -4l-4 -29v-34l-5 -9l3 -18l-3 -40l-2 -44l-4 -20v-33l-3 -39l2 -104l3 -9l19 -1l4 -16v-21l-4 -16l-3 -10l-14 -13l-14 4l-13 17l-3 9l-7 38l-4 25v71l20 248l5 30l-2 9v2l-3 3l-69 -2l-11 -3h-14l-5 -4l-17 4l-2 -2h-2l-13 16
l6 17l11 11l7 4l14 -2l30 -2l9 -3l19 5l14 -4l26 2l5 7l9 162l6 58v20l3 42v95l-5 16l5 16l6 3l9 4h8l11 -16v-77l-4 -9l-9 -157l-3 -13l-2 -33v-30l-4 -5l-1 -70l-4 -11l5 -5l36 -2z" />
    <glyph glyph-name="g" unicode="g" horiz-adv-x="247" 
d="M399 -176l-4 -27l-9 -31l-10 -15l-48 -39l-51 -31l-14 -4l-7 -5l-16 -4l-5 -5l-23 -6l-44 -5l-39 2l-61 21l-30 21l-20 18l-30 47l-7 22l-4 3l-3 16l-5 25v33l5 23l3 16v3l38 44l37 32l40 20l29 10l24 4l14 3l-3 16l-13 17v4l-40 49l-6 18l2 9v2l-3 3l-39 6l-30 11
l-18 15l-21 29l-8 27v41l24 56l7 12l16 14h30l9 -5l8 -15l13 6l17 7l9 13v3l37 34l9 10h3l38 35l26 -1l11 -19l-4 -20v-16l-9 -7h-10v1l-5 6l-13 -6l-20 -13l-20 -28l35 -39l21 -41v-33l-14 -32l-27 -23l-35 -19l-1 -2l12 -14l7 -21l22 -30l27 -49l16 -31l9 -6l3 -15l-2 -5
l8 -5h22l38 -9l26 -10l28 -24l28 -35l12 -29l4 -16zM180 235l-4 3v13l-31 39l-19 16h-23l-20 -7l-12 -2l-5 3v11l-4 4h-9l-3 -2l-15 -14l-1 -8l-9 -9l-5 -14l-4 -12v-29l8 -25l14 -19l8 -6l23 -9l30 -2l9 4l13 2l22 12v2l32 24zM365 -163l-9 30l-31 39l-23 14l-35 12l-73 2
l-9 -4l-19 -3l-30 -11l-44 -35l-10 -2l-5 4v9l3 14l23 26l15 9l13 9l44 14l-16 12h-9l-2 -2l-19 -1l-30 -9l-42 -25l-24 -23l-11 -15l-11 -22l-5 -17l-2 -34l11 -44l18 -39l35 -38l17 -9l16 -9l28 -7h44l53 10l21 6l28 14l48 32l27 25l14 24z" />
    <glyph glyph-name="h" unicode="h" horiz-adv-x="190" 
d="M196 44l-2 -11l-9 -7l-12 2l-9 5l-12 19l-13 87v54l-5 32l-7 25l-2 16l-10 20h-4l-12 -19l-14 -35l-4 -5l-5 -18l-7 -16l-7 -24l-4 -4l-1 -14l-6 -7l-1 -14l-6 -17l-7 -14l-6 -4l-6 1h-3l-16 25l-2 11l2 447l7 5l10 6l9 -4l5 -5l-6 -273l2 -102l3 -2h3l5 11l6 17l5 7
l5 21l25 50v7l5 7v10l7 9h30l23 -33l4 -13l1 -19l4 -9l1 -16l4 -8l2 -18l5 -35v-23l7 -79l5 -20z" />
    <glyph glyph-name="i" unicode="i" horiz-adv-x="113" 
d="M66 473l-1 -7l-8 -4l-40 6l-14 7l-11 16v10l7 13l9 5l21 -2l14 -11l11 -20zM86 63l-2 -34h-16l-8 9v5l-6 5v8l-5 7v59l-4 6l4 5l-2 71l-4 42v9l-5 17l2 14l11 11l17 -4l9 -7l3 -3v-51l4 -5l-4 -9v-79l2 -52z" />
    <glyph glyph-name="j" unicode="j" horiz-adv-x="106" 
d="M121 554l-2 -9l-9 -7h-12l-24 7h-2l-14 23l7 17l12 8l20 -8l8 -5zM70 -166l-16 -17h-10l-13 8l-5 15l-1 29l-4 9l-2 33l-3 7l3 123l3 32l-1 102l4 20l-6 70l-3 12l1 18l14 12l8 2l12 -3h3l9 -9l-2 -20l-3 -9l-2 -106l-7 -160l2 -100l10 -18l2 -24l7 -9v-17z" />
    <glyph glyph-name="k" unicode="k" horiz-adv-x="219" 
d="M220 36l-5 -7l-14 2l-25 20v4l-66 65l-29 25l-21 14l-12 -14l-6 -12l2 -18l7 -22l-2 -13l-8 -12h-19l-11 17l-2 13l-5 12l-2 76l-4 111l6 84v69l3 44v62l4 5l7 3l21 -3l3 -4l-1 -44l-6 -58l-2 -30l-5 -118v-68l4 -47l3 -3h4l65 81l20 19l15 20l25 30l12 10l13 4l15 -7
l5 -9l-1 -9l-44 -40l-76 -87v-3l14 -9l11 -17l55 -57l22 -37l30 -33v-9z" />
    <glyph glyph-name="l" unicode="l" horiz-adv-x="88" 
d="M68 564l-4 -46l-2 -100l-8 -134l-4 -33l1 -122l4 -13l2 -15l3 -4l4 -23l-4 -5v-3l-10 -4l-7 1l-11 11l-11 27l-3 39v77l3 61l6 66v45l3 39l4 39l-2 72l-8 15v10l8 10l5 2l22 -5l3 -2z" />
    <glyph glyph-name="m" unicode="m" horiz-adv-x="311" 
d="M293 78l-1 -24l-16 -11l-12 2l-13 14l-3 83v70l1 37l-3 6h-7l-37 -47l-32 -52l-7 -18l-12 -7l-2 -6l-11 -6l-12 3l-10 18l10 49v33l4 8l-2 42l-3 5v11l-6 16h-8l-41 -43l-21 -31l-5 -13l-9 -12l1 -47l8 -34l3 -25l-3 -7l-8 -5l-10 2l-15 17l-5 30l-5 23v34l-9 14l-1 7v5
l9 21v85l-4 23l-4 5v10l19 16l9 2h9l4 -3l2 -94l1 -2h6l35 45l9 5l17 16l20 5l21 -4l16 -28l5 -44l-4 -47l6 -5h3l21 27l18 25l30 33l9 9h10l16 -9l4 -5l5 -10l4 -39l-4 -87v-77z" />
    <glyph glyph-name="n" unicode="n" horiz-adv-x="222" 
d="M211 105l-1 -12l-13 -11l-12 2l-7 4l-7 11l-7 73v74l-9 37l-2 1l-8 -10l-8 -14l-22 -40l-23 -44l-43 -57l-17 -14l-6 2l-17 14l-5 12l1 25l13 72l2 19l3 6l-2 32l-7 21l2 9l14 11l16 4l9 -7l5 -5v-60l-5 -18l-2 -16l-5 -26l-2 -2v-5l5 -6l22 24l24 47l9 20l11 17l17 27
l14 14l11 3l17 -2l9 -9l12 -70l2 -102l7 -40z" />
    <glyph glyph-name="o" unicode="o" horiz-adv-x="261" 
d="M255 250l-6 -44l-11 -32l-17 -21l-5 -11l-14 -8l-18 -18l-35 -25l-48 -23l-26 -3l-16 3l-23 11l-28 42l-4 28l-3 4l3 17l2 41l3 7l-1 10l-7 5l10 34l42 44l6 5l46 20l23 5l50 -3l41 -22l28 -35zM217 241l-5 10l-1 15l-39 36l-14 6l-25 2l-16 -2l-7 -6l-13 -1l-40 -27v-3
l2 -2l3 -14l-7 -13l-9 -26l-7 -49l6 -44l12 -18l19 -2h21l61 34l36 33l18 32l4 14z" />
    <glyph glyph-name="p" unicode="p" horiz-adv-x="220" 
d="M208 207l-6 -10l-5 -20l-6 -21l-9 -17l-60 -59l-37 -24l-11 -4l-7 -7l2 -68l5 -41l9 -37l7 -10l-3 -17l-8 -5l-12 4l-11 10l-3 18l-14 78l-2 83l-3 75l-4 4l-4 28v45l-5 35l-5 20l-5 16l1 11l8 10l-16 21l2 16l14 11l21 3l47 -8l25 -9l28 -16l39 -37l21 -39l4 -14l3 -4
v-21zM169 195v37l-16 33l-24 27l-30 14l-40 5l-13 -2l2 -1l12 -9v-111l4 -40v-18l5 -48h4l15 11l21 17l49 55z" />
    <glyph glyph-name="q" unicode="q" horiz-adv-x="270" 
d="M251 217l-9 -23l-19 -25l-17 -15l-8 -90l-3 -18l-2 -33l-5 -29v-59l-4 -46l4 -5l2 -76l5 -5l-5 -20l5 -15v-11l6 -3l5 -6v-10l9 -17l3 -14l9 -12v-18l-29 -19l-10 2l-11 11l-5 17v36l-14 84l1 136l3 9l3 72l5 46l2 50l4 9l-2 5l-2 3l-23 -8l-17 -12l-13 -2l-6 -5l-17 -2
l-8 -3h-37l-34 9l-14 12l-12 17l-8 16l-1 14l-5 5l10 39l5 27l13 26l22 27l50 46l18 10l23 16l21 10l15 4l20 -5l5 -4l36 -2l5 -6l1 -53l13 -9l14 -20l3 -23v-35zM181 263l-4 39v12l-12 21h-11l-15 -9l-9 -1l-39 -25l-11 -10l-10 -6l-26 -29l-20 -34l-5 -18l-2 -42l13 -25
l21 -11l28 -1l17 7l18 2l18 9l16 10l9 2l13 10l6 25l3 24z" />
    <glyph glyph-name="r" unicode="r" horiz-adv-x="191" 
d="M182 285l-5 -9l-14 -10l-17 -2l-18 -14l-4 -13l-14 -15l-7 -18l-5 -21l-16 -39l-14 -39l-9 -31l-7 -13l-11 -3l-10 -9l-12 2l-11 10l3 97l3 21v53l-6 18v12l-5 16v6l12 8h5l13 -11l8 -19l3 -28l3 -14v-60l2 -2l10 18l4 17l12 22l4 3l1 19l8 18l17 26l16 14l19 9l37 -1
l-1 -2l6 -3v-13z" />
    <glyph glyph-name="s" unicode="s" horiz-adv-x="193" 
d="M174 357l-3 -12l-2 -5l-11 -6l-18 6l-7 5l-16 -4l-21 -10l-13 -9l-17 -14l-18 -25l-9 -20l4 -46l25 -52l30 -44l24 -49v-32l-17 -21l-27 -11l-33 2l-9 5l-2 6v7l5 5l27 4l11 5l10 12l-1 22l-9 11l-4 11l-14 28l-17 22l-22 38l-7 18l-7 14l-2 18l-3 25l-2 1h-4l4 19l9 16
l2 -1l37 38v4l19 14l20 16l33 16l17 5l20 -7z" />
    <glyph glyph-name="t" unicode="t" horiz-adv-x="239" 
d="M222 41l-2 -13l-3 -9l-30 -27l-40 -16l-33 2l-20 8l-27 27l-23 39l-7 17l-5 9l-4 16l-5 16l-6 26l-3 6l-2 28l-3 4v22l-7 13l-2 97l2 53l4 38l1 47v30l-4 6v28l17 16l21 -2l5 -3l5 -9l-1 -25l-4 -5l-2 -21l-3 -15l-4 -40l-3 -21l-2 -72v-32l3 -31h35l13 3l22 2l42 5h14
l44 -4l8 -5v-14l-5 -3l-28 -2l-23 -6l-16 -1l-36 -8l-29 -5l-11 -5l-21 -4l-5 -5l3 -45l5 -11l4 -19l16 -44l23 -43l23 -23l19 -5l44 14l21 16l5 12h11l5 -3z" />
    <glyph glyph-name="u" unicode="u" horiz-adv-x="216" 
d="M205 195l-3 -49l-7 -21l-11 -18l-3 -10l-18 -23l-23 -12l-47 10l-34 23l-21 28l-16 42l-5 18l-2 20l-4 11l-1 20l-4 22l-9 11l5 20l8 7h16l14 -9l1 -60l4 -21l7 -35l19 -40l25 -23l27 -8l24 11l4 6l13 24l4 12l7 50l-8 74l-11 10l2 15l3 3l9 2h7l19 -23l2 -18l7 -32v-37z
" />
    <glyph glyph-name="v" unicode="v" horiz-adv-x="197" 
d="M176 280l-3 -18l-2 -35l-6 -20v-33l-10 -39v-14l-5 -11l-2 -26l-5 -10l-14 -18l-5 -5h-14l-9 12l-6 2l-7 19l-11 14l-1 9l-9 11l-28 75l-21 62l-5 10l-11 8v17l2 10l5 6l19 -3l13 -4v-5l7 -9l1 -14l6 -11l8 -45l4 -6l7 -21l2 -9l5 -9l5 -19l9 -14l15 -18l8 9l9 49l7 27
v12l3 9v17l4 9l4 22l3 40l3 12l9 8h9l7 -8v-45z" />
    <glyph glyph-name="w" unicode="w" horiz-adv-x="299" 
d="M287 178l-5 -34l-5 -20l-4 -22l-16 -44l-9 -5l-5 -9l-7 -7l-11 2l-35 38l-24 43l-18 42l-9 32l-9 9l-8 -9l-8 -17l-31 -57l-2 -9l-23 -23l-21 7l-9 13l-2 16l-21 64l-4 27l-10 61l-5 15l-7 9l-4 14l12 12l16 2l11 -2l11 -11l5 -23l1 -70l14 -53l6 -12v-2l3 -3l11 10l9 20
l5 3l10 25l11 16l6 21l1 19l18 10l16 -3l10 -7l11 -12l4 -22l14 -54l3 -16l5 -7l4 -17l19 -39l13 -11l8 14l2 13l9 15l5 30l6 19v36l3 21l3 51l-3 9l9 9l12 -2l9 -12v-68l-4 -8z" />
    <glyph glyph-name="x" unicode="x" horiz-adv-x="235" 
d="M212 39l-9 -14l-9 -3l-10 2l-18 19l-6 14l-22 30l-19 34l-22 23h-3l-22 -34l-8 -23l-6 -14l-5 -7l-25 -74l-10 -11l-7 2l-3 6l3 49l14 40l5 8l7 22l18 30l11 28l10 17l-4 10l-5 5l-1 9l-41 61l-12 14v20l14 9h21l10 -7l4 -7v-11l26 -54l6 -9l30 33l7 15l15 19l14 22
l24 23l20 -3l6 -6v-14l-41 -44l-56 -80l3 -14l24 -36l10 -19l10 -11v-3l27 -28l21 -21l4 -8v-9z" />
    <glyph glyph-name="y" unicode="y" horiz-adv-x="252" 
d="M234 325l-2 -13l-8 -23l-3 -12l-8 -14l-9 -30l-13 -35l-9 -27l-17 -45l-7 -25l-11 -19l-19 -55l-21 -80l-7 -53l2 -27l3 -6l-3 -16l-5 -3l-11 2l-11 10l-5 38l2 31l5 37l3 7l4 18l10 39l24 70v14l-16 30l-62 107l-28 55l-9 8l-5 17v3l8 7l9 2l13 -2l37 -68l23 -44l26 -45
l14 -17l4 -9l4 -4h2l11 22l7 24l4 4l7 31l9 24l4 14l2 6v20l6 9l3 28l6 3h19l14 -5z" />
    <glyph glyph-name="z" unicode="z" horiz-adv-x="250" 
d="M249 51l-3 -8l-32 -11l-32 -6l-37 -12l-25 -5l-10 -7l-25 -6l-41 -12l-30 2l-14 14l-3 10v4l11 12l9 22l36 50l27 43l63 93l16 34l-7 7l-39 -6l-11 -6l-11 -2l-52 -28h-22l-13 14v22l9 6l31 3l17 8h5l10 8l11 2l19 11l23 5l16 4l18 6l7 2l18 -3l17 -5l3 -25l-10 -22
l-13 -26l-36 -59l-36 -50l-42 -65l-16 -29v-10h16l23 9l26 4l26 8l17 2l22 5l58 -1z" />
    <glyph glyph-name="braceleft" unicode="{" horiz-adv-x="366" 
d="M351 191l-2 -17l-11 -24h-3l-6 -10l-6 -2l-10 -7h-9l-32 -87l-2 -15l-5 -20l-51 -9l-39 9l-11 6h-22l-2 1h-4v4l-16 16l-28 24l-40 46l-4 7l-8 11l5 11l11 -4l1 -2l13 -24l12 -13v-4l46 -40l19 -14l16 -4l14 -6l14 -4l12 -5l41 1l8 13l25 51l8 25l11 30l3 12l-13 19
l-10 9l-4 9l-2 -2h-5l-10 5l-29 4l-42 -20l-30 -15h-4l-3 -6l-11 -3l-17 -15v9l14 13l5 2l30 18l29 15l14 5l6 6h4l11 10l17 -3l23 -11l13 -9l14 -13h1l2 1l-3 10l1 11l5 2l9 14v3l-1 3l3 2v13l-3 4h-6l-2 -2v-6l-17 -10l-19 1l-8 11v6h4l9 14l12 5l14 -2l2 -1h3v-4l2 -2
l6 7l3 9l-2 16l-7 14v7l-7 12v9l-5 5l-5 21l-8 13l-1 12l-7 9l-2 10l-7 11l-2 -8v-6l6 -3l1 -7l-7 -9l2 -16l-4 -3v-8l-12 -8l-12 1l-4 9l2 9l-3 11l-13 22l-8 11v3l-23 23l-11 7l-2 6l-17 8h-38l-15 -15l-16 3l-18 -12l-4 -7l-8 -9l-18 -30l-5 -16h-2l-5 -17l2 -25l3 -13
l6 -10l8 -11h-8l-11 16l-2 5v4l-4 4l-3 -4l-3 -28l6 -26l3 -11v-5l-8 -4l4 -5l4 -9l-3 -5l-1 -2h-5l-13 16h-3l-7 -28l2 -32l5 -16l8 -12l11 -4h16l2 -5l-6 -9l-19 2l-21 17l-7 21l-2 53l4 4v9l9 16l7 5l5 -4l1 53l4 4l9 40l9 25l14 32l9 12l12 19l21 17l11 27l17 32l14 30
l7 18l9 10l9 20l32 45l12 18h10l9 -10l9 -57l6 -18l1 -12l4 -18l1 -15l13 -59l10 -24l15 -16l10 -30l10 -28l4 -18l23 -56l2 -13l5 -11l10 -11v-6h-1l-7 -10l-5 -20l13 -8zM182 224l-7 -10l-14 -9h-25l-7 5l-10 8l-5 15l5 21l3 4v1h4l3 -3l-3 -14v-14l10 -10h28l9 11l-1 16
l-11 11l-8 -3l-8 -6l-7 -9h-5l-2 2l5 13l11 9l11 5l14 -2l10 -12v-29zM255 145l-14 -2l-27 -5l-9 2l-2 1v4l29 9h19l4 -4v-5zM276 105l-4 -11l-5 -6l-9 -1h-3l-4 5h-57l-12 -4h-32v9l6 4l58 4h44l2 1zM242 55l-40 -2l-4 4v3l9 6l23 3l12 -1v-13zM36 161l-2 -2h-5l-11 9
l-14 25v8l9 8l9 -2l4 -25l10 -20v-1zM247 390v30l-3 23l-6 14l-10 54l-12 57l-2 2v6l-3 4l-3 13l-5 14l-1 1v6l-5 6l-17 -15l-12 -18l-9 -12l-9 -18l-6 -11l-27 -58l-6 -19l-2 -14l55 3l25 -10l18 -18l26 -36l5 -15h4zM294 237v3l-3 2h-10l-9 -7l10 -4zM335 184l-5 7l-9 -9
l-8 -17l1 -9l-5 -6v-7l20 14v8l5 3z" />
    <glyph glyph-name="bar" unicode="|" 
d="M176 501v-7l3 -4v-6l25 -4l44 -11l44 -23h5l9 9l25 26v9l11 8h5v-22l-7 -22l-16 -52l2 -105l3 -6l7 9l6 19l2 13l9 2h5l8 -15l2 -35l-4 -3l-1 -23l-9 -33l-4 -11l-15 -7l-16 -2l-4 -41l-10 -31l-9 -23l-9 -21l-14 -21l-9 -6l-7 -1l-1 -2l-9 2l-9 7l-35 5l-6 -2l-10 5
l-32 5l-23 8h-16l-3 3h-9l-16 20l-6 3l-14 27l-10 30l-5 19l-2 2l-7 -7l-39 10l-14 7l-8 16l-6 20l2 113l5 1h4l6 -18l20 -27l4 5l3 26l11 62l3 5l6 25l8 14l6 6l5 6l14 2l19 9l6 5l14 3l8 8h18l4 3v26l-6 7v13l6 5l12 -1zM165 481l-1 -17l-11 -10l-10 3l7 11l9 24h3z
M256 451l24 -14l4 -6l10 -9l-5 -6l8 -12l8 -5l5 -12v-57l-2 -2v2l-7 7l-17 -3l-13 -18l-4 -14v-2l6 -5h7l7 10v8l18 1l3 4h-2v3h2v-26l-5 4l-12 -4l-4 -16l-2 -4v-5l9 -9l11 -1h5v-13l-10 -7l-4 -5v-9l9 -33h-13l-14 3l-5 43l-7 19l-2 16l-5 16h-16l-3 -6l3 -10l9 -22l9 -44
l-2 -14v-5h-7l-2 2l-7 -4h-5l-2 2l-7 -7v-4l5 -5h23l5 -5h9l7 13v1l-1 -1l-2 2l1 1l9 -9l18 -3l-9 -35l-5 -8l-23 4v5h7l7 7l-4 7l-3 4l-78 5l-10 6h-6l-5 -6v-12l9 -9l5 -12l9 -8l12 -1h44v-4l4 -3h7l7 7h7l4 -4h2l-8 -16l-12 -19l-33 1l-53 9l-54 16v2l-4 4h-9l-23 22
l-12 29v7l-5 11l-4 17l-7 9l-14 -4l-27 2l-17 7l-4 5l-7 22v88l14 -22l25 -33l2 2v3h1l2 2l-5 4l-7 12l5 10l2 16l8 57l4 9l-1 6l5 11v7l12 20l10 1l13 14l7 2l7 7l9 2l5 5h17l-11 -8v-8l5 -6h6l4 3l9 -7l32 4l11 8l1 18l4 2l44 -8zM319 432l-5 2v7l10 13l-2 -13zM204 349
l13 -26l-8 -7h-10l-5 21l-4 4v7l-5 6l-3 12l-4 3l-18 -3l-30 -14h-5l-5 8l9 6l15 3l6 3l10 6h8l1 1l10 4h13zM195 313l4 -13l4 -3l-6 -13l-3 -3l-30 2v3l-5 4v23l15 10h9zM183 295l-5 2v11l9 -9zM349 261l-5 -22l-4 -9l-5 -4h-4l-3 4v12l8 19v9l9 9l5 14v-32h-1zM206 189
l3 -3v-5l-5 -4h-31l-16 -7l-4 -3h-7l-2 8l13 9l19 3l11 4l14 -2h5zM209 140h-5v5h5v-5zM248 138v-5h-16v12l15 -2z" />
    <glyph glyph-name="braceright" unicode="}" horiz-adv-x="366" 
d="M351 191l-2 -17l-11 -24h-3l-6 -10l-6 -2l-10 -7h-9l-32 -87l-2 -15l-5 -20l-51 -9l-39 9l-11 6h-22l-2 1h-4v4l-16 16l-28 24l-40 46l-4 7l-8 11l5 11l11 -4l1 -2l13 -24l12 -13v-4l46 -40l19 -14l16 -4l14 -6l14 -4l12 -5l41 1l8 13l25 51l8 25l11 30l3 12l-13 19
l-10 9l-4 9l-2 -2h-5l-10 5l-29 4l-42 -20l-30 -15h-4l-3 -6l-11 -3l-17 -15v9l14 13l5 2l30 18l29 15l14 5l6 6h4l11 10l17 -3l23 -11l13 -9l14 -13h1l2 1l-3 10l1 11l5 2l9 14v3l-1 3l3 2v13l-3 4h-6l-2 -2v-6l-17 -10l-19 1l-8 11v6h4l9 14l12 5l14 -2l2 -1h3v-4l2 -2
l6 7l3 9l-2 16l-7 14v7l-7 12v9l-5 5l-5 21l-8 13l-1 12l-7 9l-2 10l-7 11l-2 -8v-6l6 -3l1 -7l-7 -9l2 -16l-4 -3v-8l-12 -8l-12 1l-4 9l2 9l-3 11l-13 22l-8 11v3l-23 23l-11 7l-2 6l-17 8h-38l-15 -15l-16 3l-18 -12l-4 -7l-8 -9l-18 -30l-5 -16h-2l-5 -17l2 -25l3 -13
l6 -10l8 -11h-8l-11 16l-2 5v4l-4 4l-3 -4l-3 -28l6 -26l3 -11v-5l-8 -4l4 -5l4 -9l-3 -5l-1 -2h-5l-13 16h-3l-7 -28l2 -32l5 -16l8 -12l11 -4h16l2 -5l-6 -9l-19 2l-21 17l-7 21l-2 53l4 4v9l9 16l7 5l5 -4l1 53l4 4l9 40l9 25l14 32l9 12l12 19l21 17l11 27l17 32l14 30
l7 18l9 10l9 20l32 45l12 18h10l9 -10l9 -57l6 -18l1 -12l4 -18l1 -15l13 -59l10 -24l15 -16l10 -30l10 -28l4 -18l23 -56l2 -13l5 -11l10 -11v-6h-1l-7 -10l-5 -20l13 -8zM182 224l-7 -10l-14 -9h-25l-7 5l-10 8l-5 15l5 21l3 4v1h4l3 -3l-3 -14v-14l10 -10h28l9 11l-1 16
l-11 11l-8 -3l-8 -6l-7 -9h-5l-2 2l5 13l11 9l11 5l14 -2l10 -12v-29zM255 145l-14 -2l-27 -5l-9 2l-2 1v4l29 9h19l4 -4v-5zM276 105l-4 -11l-5 -6l-9 -1h-3l-4 5h-57l-12 -4h-32v9l6 4l58 4h44l2 1zM242 55l-40 -2l-4 4v3l9 6l23 3l12 -1v-13zM36 161l-2 -2h-5l-11 9
l-14 25v8l9 8l9 -2l4 -25l10 -20v-1zM247 390v30l-3 23l-6 14l-10 54l-12 57l-2 2v6l-3 4l-3 13l-5 14l-1 1v6l-5 6l-17 -15l-12 -18l-9 -12l-9 -18l-6 -11l-27 -58l-6 -19l-2 -14l55 3l25 -10l18 -18l26 -36l5 -15h4zM294 237v3l-3 2h-10l-9 -7l10 -4zM335 184l-5 7l-9 -9
l-8 -17l1 -9l-5 -6v-7l20 14v8l5 3z" />
    <glyph glyph-name="asciitilde" unicode="~" horiz-adv-x="415" 
d="M381 359l-8 -5h-7l-4 -4l-14 -7l-16 -14l-5 2v7l14 14l11 4l14 8l15 -1v-4zM394 301l-15 -5l-17 -2l-8 -4l-8 4l2 4v5l18 5l26 -2l2 -1v-4zM398 237l-4 -3h-32l-5 7v4l7 5l25 -5l9 -5v-3zM253 281l-12 -11h-20l-3 5l-4 4l2 8l4 11l7 5l17 -2l5 -5l4 -9v-6zM235 234l-1 -8
l-21 -18l-5 2h-3v7l15 14l-9 5h-16l-1 -2h-6l-2 6l4 6l12 4l19 -2zM364 461l-2 -15l-22 -35l-20 -24l-19 -24l-8 -7l-1 -9l-5 -2l-5 -8l-11 -9h-4l-2 1l-7 -10h-3l-3 -4l-8 5l-1 8l-48 6l-48 -1l-35 -7l-33 -18l-7 -12l-13 -7l-6 3l-15 -24l4 -7v-4h-16v2l-2 2l-10 -6
l-22 -23l-3 -12l3 -16l13 -11h5l5 -5h20l5 5l2 -1h3l2 -13h7l7 -30l6 -17l6 -16l11 -16l24 -17l25 -9l55 2l26 9l34 19l23 26l7 16l7 28l-2 25l-7 16l-5 -4l-4 -7h-7l4 19l1 6l9 3l5 -1l13 -23v-53l-4 -3v-8l-17 -31l-39 -30l-9 -2l-9 -7l-12 -2l-6 -5l-44 -6l-33 6l-7 5
l-15 4l-27 26l-14 27v6l-3 4v10l-4 4l-2 25h-19l-28 4l-18 15l-3 11l1 23l14 17l15 11h3v67l8 17l4 16l11 28l12 16l11 11l19 5l11 6l29 10l35 -2h33l3 -3l33 14l31 8l10 8l23 3l3 3l38 6h6l2 2l18 -2l9 -3zM142 275l-3 -14l-13 -6l-9 4l-6 9v5l8 6v2l13 4h3zM248 167
l-16 -15l-18 -9l-24 -8l-20 4l-20 9l-13 9l-14 -2h-6l-3 7l7 5l29 7h6l16 5l14 3l30 8l22 11l5 -4l5 -5v-25zM350 447l-2 13l-2 1l-26 4l-16 -4l-21 -6l-26 -6l-43 -18l-18 -6l-10 -8v-1l2 -2l2 -14l-7 -9h-6l-3 3v8l-5 6l-14 -8v-9l-5 -5h-4l-4 3l-17 -16l-23 -23l-20 -22
l15 5l35 7l15 5h78l32 -8l3 -6l2 9l28 27l23 29l14 12l2 8l8 9l8 12zM126 422v3h-9v-3h9zM239 287l-1 2v1h-6v-6h3zM114 374l-2 1l-5 -5l1 -1zM235 178h-5l-10 -4l3 -10h6l1 2zM209 157l-7 12l-6 2l-6 -4l5 -14h10zM176 155l-4 7l-5 2l-7 -4h1l6 -5h9zM28 270v5h-2v-7z" />
    <glyph glyph-name="nonbreakingspace" unicode="&#xa0;" horiz-adv-x="357" 
 />
    <glyph glyph-name="exclamdown" unicode="&#xa1;" horiz-adv-x="362" 
d="M160 551l-1 -26l-2 -2l-7 4l-2 -39l2 -2h1l8 20l12 33v6l7 3l3 3l4 -1l7 -8l-6 -15l-6 -4l-4 -5l-5 -12l-5 -25v-5l1 -2l13 12l1 11l23 44l4 9l5 1l9 -10l-5 -35l-4 -9l-2 -14l-1 -9v-6l1 -1l23 47l4 14l7 4h3l6 -7v-11l-6 -11v-8l-3 -3v-9l-6 -11v-9l18 -10l18 -14
l8 -15l3 -9l6 -19l2 -19l9 -11l-2 -15l-3 -6v-12l5 -11l7 -12l17 -5l9 -9v-23l-10 -18l-10 -16l-4 -1l-7 -9l-11 -9l-5 -16l-2 -24l-9 -34l-3 -15v-3l16 -1l25 -2l5 -3l3 -4v-11l-35 -19v-10l-6 -8l-28 -3l-5 -4l4 -14v-3l-11 -11l-10 2v6l-23 20h-18l-6 -10v-32l-10 -7
l-5 2l-7 10l-2 11l-9 16l-12 16l-19 1h-4l-2 2l-9 -5l-53 2l-10 3l-4 4v8l11 14l-3 6l-5 -2l-34 14l-10 9l-13 9l-5 7l1 4l17 10l15 2h5l11 -9l4 16l14 -2l15 -7h2v21l-3 25l5 9h5l4 -29l8 -30l25 -15l14 -13l11 -3l14 -9l28 -5l37 1l9 4h8l15 9l12 3l12 28v8l4 3l13 92v33
l-3 2l-3 7l2 5l9 11l-5 10l-13 -12l-16 -3h-9l-7 9v8l-16 3v8l8 5h44l3 -4l3 4l-1 9l-7 21l3 5l-1 30l-9 19l-18 16l-14 4h-3l-3 -18v-5l-5 -6h-8l-13 18l-15 20l-3 5l-13 1h-2l-4 4l-3 -9l-5 -3h-6l-5 8v6l-14 2l-3 5l-8 -5l-17 -2h-5l-6 -6l-11 -2l-15 -15h-6l-12 -16
l-8 -22l-4 -4l-4 -21l-3 -18v-42l-2 -2l7 -4l3 -5v-5l-5 -4l-12 2v4l-7 5l-3 3l-8 -3l-4 -3l-2 -39l2 -4l3 -26l3 -4v-6l11 -17l19 -3v-7l-5 -4h-6l-13 7l-9 13l-8 21l-1 61l-7 8l2 5v4l5 3l5 14l18 3l1 30l15 49l15 34v9l4 4l5 3h16l2 2l7 1l18 13l3 33l3 16v25l2 1v4h14
l4 -5l1 -28l4 -7l2 -2l5 37v4l-2 1l9 5l11 -3zM127 484l4 -3h1v-7h-1v5l-4 4h-7l-2 24l7 -14zM194 488l1 2l-1 -14v12zM180 351l-2 -8l-5 -1l-6 -16l-10 -7h-21l-8 7l-3 7h-5l-4 -6h-5v8l11 8l9 8l28 10l16 -4zM155 336l-5 -3h-5l-3 5l4 5l5 -3zM319 269l-7 -8v-4l-13 -12
h-3l3 37v5l9 4l11 -2v-20zM32 263l2 -9v-6l5 -5h5l2 -5l-7 -9h-7l-7 9l-6 26l2 10l2 6h7zM245 273l-15 -18l-5 -1h-5v15l16 11h9v-7zM215 273v-4l-30 -12h-4l-5 12v5l25 3l2 1h10zM203 211l52 6h11v-13l-11 -5l-3 -21l-11 -6v-1l-12 -4l-16 2l-7 3l-5 -3l-32 2l-10 5l-13 18
l-5 12l-5 5l1 6l8 2l31 -4zM194 201l1 -12l-3 -4l-19 4l-9 6l3 8l22 -2h5zM238 189l-5 -4l-18 5v11l23 -2v-10zM39 125h-14l-12 9v2l-4 3l21 2l2 1l11 -10zM283 106l-10 -2h-7l9 5l14 -2zM101 93l-17 -6h-17l3 10l11 9l17 -4zM230 70l-10 11v3l13 3v-15zM173 67l-2 -2v-5
l-7 9l5 9h4v-11z" />
    <glyph glyph-name="cent" unicode="&#xa2;" horiz-adv-x="227" 
d="M257 239l-1 -9l-20 -15l-21 -7l-20 -8h-6l-11 -6l-16 -3h-11l-5 -4l-39 -7l-1 -2l10 -19l-1 -17l-18 -16l-12 -4h-7l-13 12v46l-28 17l-18 9l-20 34l-6 25l3 5l3 18l14 24l45 39l18 7l7 5l7 2l7 14v44l-4 14l14 14h15l9 -19l3 -21l-2 -32l-3 -7v-7l12 -9v-23l-7 -10
l-14 -9l-4 -12l-1 -16l-9 -51l1 -23l13 -4l37 6l12 5l30 3l29 11l14 11l5 1h5zM83 316l-4 3h-5l-3 -1l-28 -21l-9 -20v-21l1 -12l14 -14l11 -6h7l5 21v9z" />
    <glyph glyph-name="sterling" unicode="&#xa3;" horiz-adv-x="426" 
d="M391 378l-6 -7l-2 -20v-13l4 -9l1 -13v-72l-3 -16l-5 -16l2 -5h-11v20l7 14v74l-7 15l2 49l7 8h11v-9zM188 385l-2 -14l-7 -6h-7l-18 39l-15 83l-4 13l-4 3l-8 -9l-2 -18l2 -56l12 -28l19 -18v-5l2 -1l-7 -4l-4 -5h-6l-30 33l-11 34l-5 47v19l-7 8h-9l-9 -15v-45l11 -34
l19 -19l11 -5l1 -8l-9 -9l-12 4l-18 19l-6 18l-9 23l-2 2l-2 -9l5 -19l9 -18l5 -7l-1 -9v-1l-9 -4l-26 15l-18 18l1 11l8 1h5l9 -15l7 -4l1 2l-3 4v16l-3 54l-2 7v5l5 4h11l5 10l1 11l18 12h15l10 -12l5 -16h2l9 24l7 9l5 6l11 -2l7 -9l3 -53l9 -47l14 -30h11zM368 154
l-2 -12l-13 -11h-5l-7 9l-51 4l-30 -4l-18 -45l-17 -25l-9 -5l-10 -3l-6 -5l-16 8l-42 6l-38 9l-9 6l-11 1l-5 5l-8 3l-14 15l-12 26l-5 43l2 1h5l4 -8l3 -28l7 -22l19 -21l15 -3l14 -7h10l5 -5l32 -6l3 -3l50 -2l14 11l14 24l10 25l-6 5h-60v2l-4 2h-5l-2 -2l-8 -3h-13
l-1 1v4l44 14l38 17l6 5l20 3l4 5l2 72l2 11v5l-2 1l-9 -10l-11 -7h-17l-5 3l-4 9l2 8l12 10l12 4h13v-3l7 -6l2 1l-8 14l2 11l6 4v14l-9 19h-2l-6 9l8 16l12 3h4l12 12l21 24l11 24v29l-11 24l-21 17l-18 9h-1v-12l7 -11l5 -22v-34l-18 -32l-14 -16l-21 -19h-5l-4 7v6l7 5
v3l12 9l18 19l9 16l4 22v17l-9 16l-27 21l-8 1v-10l3 -3l2 -16l3 -21l-1 -38l-15 -19l-15 -12l-2 2v5l17 19l6 11v46l-2 7l-7 24l-7 11h-14l-5 5l-2 4v5l8 5l11 -1l12 -7l11 10l4 2l15 -7l39 -13l19 -11l20 -24l7 -23v-19l-5 -17l-11 -22l-14 -16l-12 -12l9 -8l-4 -17
l-7 -12l-3 -32v-17l-8 -9l13 -10l12 -6l11 -14l-2 -15l-12 -18l-9 -9l-9 -7l-4 -4l-1 -14l-4 -4l5 -6l-1 -2l3 -4h12l25 -3l32 -2l9 9h7zM223 197l-5 -6h-6l-3 6l-2 1l5 5h4zM148 277l-6 -12l-9 -7l-9 4l-3 7h-7l-4 3v5l18 11l16 -3zM206 202l-31 -4l-1 2h-4l4 9l15 3h9
l8 -5v-5zM82 233l-21 -12l-7 4l-2 5v2l-9 4h-5l4 11l3 4l-7 7l-7 -3l-5 -6v-13l9 -15v-5h-6l-12 20l1 19l13 16l-4 1l-5 5v11h-18l-6 -12v-51l6 -22l6 -10l7 -5l12 1v-14h-11l-6 5l-13 18l-5 18l-3 17l1 44l16 20l-5 27l4 19l-3 16l6 6h7l4 -5v-7l-3 -2h9l6 4l21 2l2 2l4 -4
l-6 -5l-14 -4l-14 -7h12l19 7h4l4 -3l-13 -9l-14 -4l-14 -10h18l3 1h6l3 -6l-2 -2v-6l2 -1l2 -6v-5l-13 -13v-1l13 -4v-3l10 -5l-1 -7l-14 -7l-3 -2v-2h25v-5l-3 -4l7 -1h5v-8zM114 438l-2 18h-2l2 -18h2zM290 249l-4 4h-1l-13 2l2 -39l14 14zM244 276v5h-3l-9 -5v-4l1 -1h4
l2 1zM294 156v2h-8v-2h8zM237 156v3l-1 6h-4l-7 -4l-19 -7l1 -1z" />
    <glyph glyph-name="yen" unicode="&#xa5;" horiz-adv-x="426" 
d="M391 378l-6 -7l-2 -20v-13l4 -9l1 -13v-72l-3 -16l-5 -16l2 -5h-11v20l7 14v74l-7 15l2 49l7 8h11v-9zM188 385l-2 -14l-7 -6h-7l-18 39l-15 83l-4 13l-4 3l-8 -9l-2 -18l2 -56l12 -28l19 -18v-5l2 -1l-7 -4l-4 -5h-6l-30 33l-11 34l-5 47v19l-7 8h-9l-9 -15v-45l11 -34
l19 -19l11 -5l1 -8l-9 -9l-12 4l-18 19l-6 18l-9 23l-2 2l-2 -9l5 -19l9 -18l5 -7l-1 -9v-1l-9 -4l-26 15l-18 18l1 11l8 1h5l9 -15l7 -4l1 2l-3 4v16l-3 54l-2 7v5l5 4h11l5 10l1 11l18 12h15l10 -12l5 -16h2l9 24l7 9l5 6l11 -2l7 -9l3 -53l9 -47l14 -30h11zM368 154
l-2 -12l-13 -11h-5l-7 9l-51 4l-30 -4l-18 -45l-17 -25l-9 -5l-10 -3l-6 -5l-16 8l-42 6l-38 9l-9 6l-11 1l-5 5l-8 3l-14 15l-12 26l-5 43l2 1h5l4 -8l3 -28l7 -22l19 -21l15 -3l14 -7h10l5 -5l32 -6l3 -3l50 -2l14 11l14 24l10 25l-6 5h-60v2l-4 2h-5l-2 -2l-8 -3h-13
l-1 1v4l44 14l38 17l6 5l20 3l4 5l2 72l2 11v5l-2 1l-9 -10l-11 -7h-17l-5 3l-4 9l2 8l12 10l12 4h13v-3l7 -6l2 1l-8 14l2 11l6 4v14l-9 19h-2l-6 9l8 16l12 3h4l12 12l21 24l11 24v29l-11 24l-21 17l-18 9h-1v-12l7 -11l5 -22v-34l-18 -32l-14 -16l-21 -19h-5l-4 7v6l7 5
v3l12 9l18 19l9 16l4 22v17l-9 16l-27 21l-8 1v-10l3 -3l2 -16l3 -21l-1 -38l-15 -19l-15 -12l-2 2v5l17 19l6 11v46l-2 7l-7 24l-7 11h-14l-5 5l-2 4v5l8 5l11 -1l12 -7l11 10l4 2l15 -7l39 -13l19 -11l20 -24l7 -23v-19l-5 -17l-11 -22l-14 -16l-12 -12l9 -8l-4 -17
l-7 -12l-3 -32v-17l-8 -9l13 -10l12 -6l11 -14l-2 -15l-12 -18l-9 -9l-9 -7l-4 -4l-1 -14l-4 -4l5 -6l-1 -2l3 -4h12l25 -3l32 -2l9 9h7zM223 197l-5 -6h-6l-3 6l-2 1l5 5h4zM148 277l-6 -12l-9 -7l-9 4l-3 7h-7l-4 3v5l18 11l16 -3zM206 202l-31 -4l-1 2h-4l4 9l15 3h9
l8 -5v-5zM82 233l-21 -12l-7 4l-2 5v2l-9 4h-5l4 11l3 4l-7 7l-7 -3l-5 -6v-13l9 -15v-5h-6l-12 20l1 19l13 16l-4 1l-5 5v11h-18l-6 -12v-51l6 -22l6 -10l7 -5l12 1v-14h-11l-6 5l-13 18l-5 18l-3 17l1 44l16 20l-5 27l4 19l-3 16l6 6h7l4 -5v-7l-3 -2h9l6 4l21 2l2 2l4 -4
l-6 -5l-14 -4l-14 -7h12l19 7h4l4 -3l-13 -9l-14 -4l-14 -10h18l3 1h6l3 -6l-2 -2v-6l2 -1l2 -6v-5l-13 -13v-1l13 -4v-3l10 -5l-1 -7l-14 -7l-3 -2v-2h25v-5l-3 -4l7 -1h5v-8zM114 438l-2 18h-2l2 -18h2zM290 249l-4 4h-1l-13 2l2 -39l14 14zM244 276v5h-3l-9 -5v-4l1 -1h4
l2 1zM294 156v2h-8v-2h8zM237 156v3l-1 6h-4l-7 -4l-19 -7l1 -1z" />
    <glyph glyph-name="brokenbar" unicode="&#xa6;" horiz-adv-x="325" 
d="M312 187l-5 -12l-5 -7l-19 -9l-3 -35l3 -2l-4 -4l-2 -12l-12 -23l-13 -18l-14 -5l-14 -9h-49l-48 3l-27 10l-40 35l-10 13l-14 26l1 2l-7 8l-15 3l-25 26l-11 19l2 26l12 22l13 5l5 5l-4 5v11l-6 4l-6 5v1l2 3l-5 10v30l3 19l6 18l14 3v23l12 21l3 11l4 7l-2 12l-16 13
l-4 10l4 13l9 12l11 16l10 16l5 21l16 10v4l6 4l30 1l5 4l12 1h7l4 -6l16 -13l58 -26l33 -18v-4l23 -22v-5l5 -4l4 -9l15 -18l-1 -21v-25l4 -9l-3 -6h-1l-1 -2v-3l5 -4l3 -48v-16l-2 -1l4 -4l-8 -10l3 -13l1 -1l4 -13l-2 -16v-5l9 -7l9 -16l1 -28zM271 342l-1 2v7l-5 5l-7 2
l5 -12l7 -5zM265 377l-2 3l-2 10l4 39l-15 17l-3 11l-20 19l-3 9l-16 12l-35 18l-20 7v1l-20 6l-18 12v2h-11l-31 -9l-27 -42l-12 -21l-2 -12l7 -8l6 -5l3 -7l2 -19l-7 -9v-7l-6 -9l2 -2l-5 -12l16 5l72 5l111 -5l8 -6zM252 307v5l-2 20l-6 5v4l-6 -14v-22l7 -2zM210 369
l-10 3l-4 -3l7 -14l2 1zM171 363v13h-9zM189 327v6h-2v-6h2zM259 258l-5 7l-5 1l-5 -1l1 -9l11 -2zM296 180v6l-2 24l-5 7l-1 -42zM164 324l-3 17l-4 5l-4 -28l4 -9h4l1 2zM142 369v8h-47l-14 -3l-1 -2l5 -5v-4l13 2l10 -5v-5l7 -11l5 18l9 14zM129 307l-2 20v-18zM103 316
l-4 7l-1 1v8l-3 -5v-22l3 2h2zM62 369h-7l-9 -4l2 -51l2 2v7l4 4v6l6 22v5l-1 2zM71 302l-2 12l-2 10l-5 -24h5zM18 347v6l-2 5l-1 2l-4 -2l-4 -17l8 -4v7zM30 294v11l-3 6l-2 -2v-16zM275 219v25h-5v-4l-2 -1l-23 -3l-18 18l-1 14l14 15l12 1l18 -10v9l-9 -3l-11 8h-15
l-16 3l-50 6l-33 -4l-46 -5h-16l-19 -8l-12 -6l-11 3l-3 -3h-9l1 -21l2 -3v-5l-2 -1h-9l-5 -4l-14 -18v-26l14 -18l25 -17l18 -5v-3l9 -26l15 -19l21 -14l8 -11l10 -5l34 -13l45 -1l35 7l17 11v5l1 2l5 1v4l9 9l6 17l1 14l4 32zM177 245l-6 -9l-9 -5l-10 -3l-21 3l-9 14
l2 21l12 13l7 1l25 -1l9 -16v-18zM235 166l-13 -5l-7 -5l-5 1v11l9 5l7 2h7l2 -4v-5zM197 171l-3 -3l-19 -2l-4 -4h-2l-3 4v2l11 7l10 2h7zM196 92l-4 -3h-9l-6 6l-20 -1l-1 -2l-4 2l17 9l14 1l6 -1l7 -5v-6zM48 186l-9 -6l-14 6l-2 5l-8 14l-4 12l4 2l14 -2l5 -8v-4l-2 -2
l5 -8l8 -4v-2zM162 258l-9 8h-3l-16 -7v-9l8 -6l11 -2l8 5z" />
    <glyph glyph-name="section" unicode="&#xa7;" horiz-adv-x="459" 
d="M146 568l23 -6l14 -7h5l3 -5l14 -5l6 -5l14 -8l51 -39l17 -19l11 -17l9 -20l7 -9l-5 -47l-5 -72l5 -48l3 -5l-5 -14l-11 -13l-3 -12l-6 -10l-15 -39l-11 -19l-3 -11l-4 -3l7 -4v-9l-9 -7l-1 2h-4l-4 -16l-11 -14l-8 -20l-1 -9l-6 -3l-5 2h-4l-3 9l2 5v3h3l6 8l5 10l-14 7
l-57 6l-12 5h-2l-1 -2l-16 16l-5 12v14l5 7l5 5l37 6l21 -4l47 -7l14 -8v-3l3 -1l8 10l2 7l7 9l2 9l-16 2l-51 3l-7 2h-6v16l14 4l4 7l23 9l11 6l15 -5l8 -10l10 -9v-2l2 -2l5 6l13 35v14l-16 7l-18 14v21l4 4l1 15l9 20l15 16l8 2l3 9v8l2 44l-7 9l-1 18l-8 12l-1 7l-44 44
l-8 1l-10 9l-12 9h-4l-7 7l-24 11l-23 8l-20 4l-33 -6l-13 -8l-10 -3l-26 -16l-35 -29l-27 -27l-6 -17l2 -1l-5 -9l-3 -86l1 -76l7 -60l4 -3v-2l-6 3l-5 18l-4 58l-3 73v91l18 26l35 34l18 14l9 3l6 8l23 10l7 7l27 12l4 6l17 -2zM396 379l-6 -5h-10l-5 -4v-3l-5 -3h-6v8
l6 7l9 9l10 5l7 -3v-11zM165 384l21 -5l22 -10l3 -22l2 -26l3 -19v-6l6 -5l-2 -10l-18 -14l-3 -6l-13 -10l-21 -9l-32 -5l-35 1l-16 5l-24 18l-4 11v4l5 5l13 -4l10 -18l16 -8l22 -4l41 4l8 5l12 3l9 11v3l1 3h-8l-7 -6l-16 -9l-30 -5l-27 7l-24 24l2 6l8 10l8 22l12 14
l14 14l30 -11l23 -16l14 -19h7l2 -2v25l-9 25l-7 10l-14 7h-102l-8 -3l-5 -9v-44l5 -23l-1 -2v-4l-9 -1h-4l-3 5v93l3 6l57 -6h63zM299 276h-7l-1 1h-4l-7 19l2 20l10 19l5 4v-62zM153 326l5 -6l2 -3h4v-3l5 -3l5 -18v-4l4 -3l-11 -9l-9 -1l-12 -6h-25l-18 12l-8 14v7l19 23
l6 4l10 1l20 -5h3zM426 320l-2 -8l-23 -3l-16 -7h-3l-3 7l1 5v2l4 4l17 1l9 4h7zM146 307l5 -9l-1 -14l-9 -8l-11 1l-10 12l-4 7l5 18l9 3l7 -1zM417 256v-9l-7 -4l-9 6l-19 2l-6 7l9 9l13 -2zM253 199l-39 2l-1 2l21 7l15 -5zM9 168l9 -30l24 -47l17 -15l61 -14l36 -5l27 1
l7 4l7 -2v-11l-6 -6h-45l-48 6l-7 4l-2 -1l-3 3l-39 5l-7 7v6l-17 26l-8 14l-21 57l-7 15l-5 9l3 4l9 -2zM223 141l6 -5l-46 4l-7 5l-21 -2l-4 -7l7 -12l6 -6l12 6l26 -4h23l5 -2h8l-4 -7h-16l-5 4l-53 3l-14 8l-11 15l12 9l4 2l48 -3z" />
    <glyph glyph-name="dieresis" unicode="&#xa8;" horiz-adv-x="459" 
d="M146 568l23 -6l14 -7h5l3 -5l14 -5l6 -5l14 -8l51 -39l17 -19l11 -17l9 -20l7 -9l-5 -47l-5 -72l5 -48l3 -5l-5 -14l-11 -13l-3 -12l-6 -10l-15 -39l-11 -19l-3 -11l-4 -3l7 -4v-9l-9 -7l-1 2h-4l-4 -16l-11 -14l-8 -20l-1 -9l-6 -3l-5 2h-4l-3 9l2 5v3h3l6 8l5 10l-14 7
l-57 6l-12 5h-2l-1 -2l-16 16l-5 12v14l5 7l5 5l37 6l21 -4l47 -7l14 -8v-3l3 -1l8 10l2 7l7 9l2 9l-16 2l-51 3l-7 2h-6v16l14 4l4 7l23 9l11 6l15 -5l8 -10l10 -9v-2l2 -2l5 6l13 35v14l-16 7l-18 14v21l4 4l1 15l9 20l15 16l8 2l3 9v8l2 44l-7 9l-1 18l-8 12l-1 7l-44 44
l-8 1l-10 9l-12 9h-4l-7 7l-24 11l-23 8l-20 4l-33 -6l-13 -8l-10 -3l-26 -16l-35 -29l-27 -27l-6 -17l2 -1l-5 -9l-3 -86l1 -76l7 -60l4 -3v-2l-6 3l-5 18l-4 58l-3 73v91l18 26l35 34l18 14l9 3l6 8l23 10l7 7l27 12l4 6l17 -2zM396 379l-6 -5h-10l-5 -4v-3l-5 -3h-6v8
l6 7l9 9l10 5l7 -3v-11zM165 384l21 -5l22 -10l3 -22l2 -26l3 -19v-6l6 -5l-2 -10l-18 -14l-3 -6l-13 -10l-21 -9l-32 -5l-35 1l-16 5l-24 18l-4 11v4l5 5l13 -4l10 -18l16 -8l22 -4l41 4l8 5l12 3l9 11v3l1 3h-8l-7 -6l-16 -9l-30 -5l-27 7l-24 24l2 6l8 10l8 22l12 14
l14 14l30 -11l23 -16l14 -19h7l2 -2v25l-9 25l-7 10l-14 7h-102l-8 -3l-5 -9v-44l5 -23l-1 -2v-4l-9 -1h-4l-3 5v93l3 6l57 -6h63zM299 276h-7l-1 1h-4l-7 19l2 20l10 19l5 4v-62zM153 326l5 -6l2 -3h4v-3l5 -3l5 -18v-4l4 -3l-11 -9l-9 -1l-12 -6h-25l-18 12l-8 14v7l19 23
l6 4l10 1l20 -5h3zM426 320l-2 -8l-23 -3l-16 -7h-3l-3 7l1 5v2l4 4l17 1l9 4h7zM146 307l5 -9l-1 -14l-9 -8l-11 1l-10 12l-4 7l5 18l9 3l7 -1zM417 256v-9l-7 -4l-9 6l-19 2l-6 7l9 9l13 -2zM253 199l-39 2l-1 2l21 7l15 -5zM9 168l9 -30l24 -47l17 -15l61 -14l36 -5l27 1
l7 4l7 -2v-11l-6 -6h-45l-48 6l-7 4l-2 -1l-3 3l-39 5l-7 7v6l-17 26l-8 14l-21 57l-7 15l-5 9l3 4l9 -2zM223 141l6 -5l-46 4l-7 5l-21 -2l-4 -7l7 -12l6 -6l12 6l26 -4h23l5 -2h8l-4 -7h-16l-5 4l-53 3l-14 8l-11 15l12 9l4 2l48 -3z" />
    <glyph glyph-name="copyright" unicode="&#xa9;" horiz-adv-x="321" 
d="M304 333l-7 -33l-9 -10l-6 -14l-34 -26l-40 -16l-27 -6l-51 -3l-21 3l-39 11l-17 11l-9 9l-13 5l-19 22l-19 43l-9 54l1 16l4 14l14 28l34 36l19 5l12 6l13 6l22 6l29 5l42 -7l40 -4l35 -10l22 -19v-4l17 -23l11 -26l5 -24v-29l-3 -6zM273 373l-7 28l-14 25l-6 12l-23 23
l-44 7l-1 -2l-31 -3l-33 -18l-14 -4l-11 6l-1 5l12 14h-7l-9 -3l-28 -14l-16 -13l-11 -14l-6 -17l-3 -30l13 -53l31 -42l50 -24l53 -3l41 9l14 9l12 3l10 9l20 20l2 10l5 11zM204 322l-4 -9l-5 -4l-35 -12l-35 2l-18 7l-14 12l-7 18v21l3 18l2 5l37 39l14 3l18 -1l7 -8v-17
l-7 -5l-16 -3l-21 -24l-3 -7l5 -18l21 -12h53z" />
    <glyph glyph-name="ordfeminine" unicode="&#xaa;" horiz-adv-x="489" 
d="M468 475l-2 -12l-20 -17l-17 -2l-18 2l-9 18l-14 -3l-26 -17l-12 -13l-6 -12l-3 -4l-5 2h-2l-3 3v13l8 8l14 11l38 23l3 4h-11l-33 -20l-21 -18l-11 -12l-10 -18l-25 -1l-9 21l-5 5h-4l-9 -12l-5 -42v-25l2 -2v-5l-5 -2l-6 -7h-5l-3 3v11l-6 11l-19 42l-21 36l-7 2l-8 8
l-10 -2l-3 -3l-9 5l3 10l9 9v4h2l33 49v3l9 9l14 21h-10l-35 -30v-3l-8 -3l-39 -53l-8 -29l-3 -19v-2l-8 4l-3 5l7 25l-2 1l-7 -6l-14 -4l-17 -21l-15 -25l-7 -17l-2 -9h-1l-19 -88l5 -7v-2l1 -2l-1 -4l-29 18l-20 23h-3v-33l11 -63l6 -11l5 -6h16l3 4h9v-9l-18 -12l-14 1
l-9 8l-9 14l-3 24l-5 25l-7 72l1 5v6l9 3l13 -17l9 -13l19 -17l7 12l12 63l16 41l11 18l24 37l11 5l9 -2l6 -5l8 12l10 20l39 44l35 35v4l8 6l-4 5l5 8l16 -4l10 -4l18 -5l19 -14l11 -12l-2 -16l-10 -8l-9 -6l-16 -3l-11 3l-14 20l-8 -8l-3 -6l-17 -20l-27 -44v-4l3 -1l3 3
l12 -2h20l28 -3l7 2h5l11 -9l8 -4l11 -9l9 -8v-4l9 -9l14 21l31 29l32 18l18 6l5 4l2 1v4h34l20 -10l9 -11zM353 248l-3 -18l-9 -9h-5l2 9v12l-4 8v5l5 5l11 -1zM320 220l-3 -11l-18 -12l-26 -13h-8l-1 7v6l5 3h10l11 6l7 1l11 9l-11 5l-28 -4l-5 -2v8l17 7l23 2l9 -4l5 -3z
M380 299l-2 -84l-7 -17l-5 -7l-11 -9l-12 4v2l-2 2h-5l-22 -52l-17 -31l-18 -25l-3 -14l-14 -3l-27 -16l-26 -8l-41 3l-17 8l-36 27l-22 26l-22 35l-10 25l-7 19l3 4l6 -2l5 -9l6 -15l28 -52l22 -26l5 -2l18 -16l26 -12l29 -4l26 7l14 9l13 9v5l9 9l6 2l16 21l9 16l5 7
l13 28v5h1l6 23l-2 9v4h32v-2l2 -2l6 4l8 21l3 34l-3 31v10l-2 3l-14 -24v-9l-16 -5l-2 2h-5l-9 -12l-4 -4l-15 2l-13 14v18l4 3l18 9l12 -2l9 -9l5 23v46l-9 27l-7 10v9l4 1l9 -1l10 -21l2 -16l4 -14v-44l1 -2l5 7l5 27l4 3l2 2h5v-2l2 -2h5zM204 264l-2 -11l-11 -9
l-20 -12l-27 2l-11 8l-4 9l-3 16l2 27l4 3h3l-3 -19l3 -19l14 -17h19l18 11l7 7v7l-12 21l-9 9h-14l-11 -9h-3l2 12l8 9l8 2l14 -3l8 -9l7 -7l7 -13zM281 144l-3 -6l-9 -1l-7 5h-3l-9 -10l-15 -14l-20 -6l-22 7l-17 23v11l-13 5l-3 4l5 3l44 -9l35 -3l4 6h7l1 -5l18 -1l4 -6
zM36 216l-5 -5h-14l-7 9l-4 10v20l-1 1l5 9l11 -1v-9l-4 -11l4 -13zM452 473l-8 12l-25 5v-2h1l4 -8v-19l11 -2l14 7zM276 549l-6 10l-17 14l-21 6l-2 -7l11 1l10 -8v-11l-3 -3l5 -9l3 -4l11 2zM237 383v14l-3 -10zM314 273v5l-5 5l-5 -7h-4v-3l6 -6h3zM239 140l-2 2l-33 2
l-14 5v-5l8 -12l11 -4l12 -2l14 7z" />
    <glyph glyph-name="minus" unicode="&#xad;" horiz-adv-x="415" 
d="M381 359l-8 -5h-7l-4 -4l-14 -7l-16 -14l-5 2v7l14 14l11 4l14 8l15 -1v-4zM394 301l-15 -5l-17 -2l-8 -4l-8 4l2 4v5l18 5l26 -2l2 -1v-4zM398 237l-4 -3h-32l-5 7v4l7 5l25 -5l9 -5v-3zM253 281l-12 -11h-20l-3 5l-4 4l2 8l4 11l7 5l17 -2l5 -5l4 -9v-6zM235 234l-1 -8
l-21 -18l-5 2h-3v7l15 14l-9 5h-16l-1 -2h-6l-2 6l4 6l12 4l19 -2zM364 461l-2 -15l-22 -35l-20 -24l-19 -24l-8 -7l-1 -9l-5 -2l-5 -8l-11 -9h-4l-2 1l-7 -10h-3l-3 -4l-8 5l-1 8l-48 6l-48 -1l-35 -7l-33 -18l-7 -12l-13 -7l-6 3l-15 -24l4 -7v-4h-16v2l-2 2l-10 -6
l-22 -23l-3 -12l3 -16l13 -11h5l5 -5h20l5 5l2 -1h3l2 -13h7l7 -30l6 -17l6 -16l11 -16l24 -17l25 -9l55 2l26 9l34 19l23 26l7 16l7 28l-2 25l-7 16l-5 -4l-4 -7h-7l4 19l1 6l9 3l5 -1l13 -23v-53l-4 -3v-8l-17 -31l-39 -30l-9 -2l-9 -7l-12 -2l-6 -5l-44 -6l-33 6l-7 5
l-15 4l-27 26l-14 27v6l-3 4v10l-4 4l-2 25h-19l-28 4l-18 15l-3 11l1 23l14 17l15 11h3v67l8 17l4 16l11 28l12 16l11 11l19 5l11 6l29 10l35 -2h33l3 -3l33 14l31 8l10 8l23 3l3 3l38 6h6l2 2l18 -2l9 -3zM142 275l-3 -14l-13 -6l-9 4l-6 9v5l8 6v2l13 4h3zM248 167
l-16 -15l-18 -9l-24 -8l-20 4l-20 9l-13 9l-14 -2h-6l-3 7l7 5l29 7h6l16 5l14 3l30 8l22 11l5 -4l5 -5v-25zM350 447l-2 13l-2 1l-26 4l-16 -4l-21 -6l-26 -6l-43 -18l-18 -6l-10 -8v-1l2 -2l2 -14l-7 -9h-6l-3 3v8l-5 6l-14 -8v-9l-5 -5h-4l-4 3l-17 -16l-23 -23l-20 -22
l15 5l35 7l15 5h78l32 -8l3 -6l2 9l28 27l23 29l14 12l2 8l8 9l8 12zM126 422v3h-9v-3h9zM239 287l-1 2v1h-6v-6h3zM114 374l-2 1l-5 -5l1 -1zM235 178h-5l-10 -4l3 -10h6l1 2zM209 157l-7 12l-6 2l-6 -4l5 -14h10zM176 155l-4 7l-5 2l-7 -4h1l6 -5h9zM28 270v5h-2v-7z" />
    <glyph glyph-name="minus" unicode="&#x2212;" horiz-adv-x="415" 
d="M381 359l-8 -5h-7l-4 -4l-14 -7l-16 -14l-5 2v7l14 14l11 4l14 8l15 -1v-4zM394 301l-15 -5l-17 -2l-8 -4l-8 4l2 4v5l18 5l26 -2l2 -1v-4zM398 237l-4 -3h-32l-5 7v4l7 5l25 -5l9 -5v-3zM253 281l-12 -11h-20l-3 5l-4 4l2 8l4 11l7 5l17 -2l5 -5l4 -9v-6zM235 234l-1 -8
l-21 -18l-5 2h-3v7l15 14l-9 5h-16l-1 -2h-6l-2 6l4 6l12 4l19 -2zM364 461l-2 -15l-22 -35l-20 -24l-19 -24l-8 -7l-1 -9l-5 -2l-5 -8l-11 -9h-4l-2 1l-7 -10h-3l-3 -4l-8 5l-1 8l-48 6l-48 -1l-35 -7l-33 -18l-7 -12l-13 -7l-6 3l-15 -24l4 -7v-4h-16v2l-2 2l-10 -6
l-22 -23l-3 -12l3 -16l13 -11h5l5 -5h20l5 5l2 -1h3l2 -13h7l7 -30l6 -17l6 -16l11 -16l24 -17l25 -9l55 2l26 9l34 19l23 26l7 16l7 28l-2 25l-7 16l-5 -4l-4 -7h-7l4 19l1 6l9 3l5 -1l13 -23v-53l-4 -3v-8l-17 -31l-39 -30l-9 -2l-9 -7l-12 -2l-6 -5l-44 -6l-33 6l-7 5
l-15 4l-27 26l-14 27v6l-3 4v10l-4 4l-2 25h-19l-28 4l-18 15l-3 11l1 23l14 17l15 11h3v67l8 17l4 16l11 28l12 16l11 11l19 5l11 6l29 10l35 -2h33l3 -3l33 14l31 8l10 8l23 3l3 3l38 6h6l2 2l18 -2l9 -3zM142 275l-3 -14l-13 -6l-9 4l-6 9v5l8 6v2l13 4h3zM248 167
l-16 -15l-18 -9l-24 -8l-20 4l-20 9l-13 9l-14 -2h-6l-3 7l7 5l29 7h6l16 5l14 3l30 8l22 11l5 -4l5 -5v-25zM350 447l-2 13l-2 1l-26 4l-16 -4l-21 -6l-26 -6l-43 -18l-18 -6l-10 -8v-1l2 -2l2 -14l-7 -9h-6l-3 3v8l-5 6l-14 -8v-9l-5 -5h-4l-4 3l-17 -16l-23 -23l-20 -22
l15 5l35 7l15 5h78l32 -8l3 -6l2 9l28 27l23 29l14 12l2 8l8 9l8 12zM126 422v3h-9v-3h9zM239 287l-1 2v1h-6v-6h3zM114 374l-2 1l-5 -5l1 -1zM235 178h-5l-10 -4l3 -10h6l1 2zM209 157l-7 12l-6 2l-6 -4l5 -14h10zM176 155l-4 7l-5 2l-7 -4h1l6 -5h9zM28 270v5h-2v-7z" />
    <glyph glyph-name="registered" unicode="&#xae;" horiz-adv-x="366" 
d="M363 339l-5 -35l-6 -14l-11 -12l-27 -16l-40 -15l-39 -5l-92 -5l-59 9l-18 9l-16 3l-18 11l-26 22l-10 24l-8 20l4 36l25 39l18 21l27 28l31 21l19 9l21 5l14 -3l5 -6l-1 -17l-17 -11h-20l-13 -10l-11 -4l-47 -42l-2 -5l-17 -28v-34l7 -16l24 -24l29 -16l31 -9h5l3 2
l-9 12v105l-7 11v27l12 6h63l32 -10l8 -12l4 -19l-4 -17l-11 -14l-2 -8l-9 -6l-7 -7v-4l5 -5l27 -3l8 -7l4 -7l-4 -11l-12 -3l-60 -4l-19 -17l-13 -6h-1l-2 -1l5 -6l23 -1h76l14 5h20l20 7l6 4l12 1l20 14l8 11l4 21l-2 16l-4 3l-1 11l-5 3l-4 14l-23 39l-14 14l-34 30h-14
l-8 5l-23 -1l-25 -5l-9 1h-1l-4 4v5l28 14l39 5l19 -1l23 -9l42 -40l27 -32l12 -30l5 -7zM187 373v12l-6 7l-4 2l-19 2l-13 -5v-41l4 -4l2 2l12 7z" />
    <glyph glyph-name="degree" unicode="&#xb0;" horiz-adv-x="325" 
d="M312 187l-5 -12l-5 -7l-19 -9l-3 -35l3 -2l-4 -4l-2 -12l-12 -23l-13 -18l-14 -5l-14 -9h-49l-48 3l-27 10l-40 35l-10 13l-14 26l1 2l-7 8l-15 3l-25 26l-11 19l2 26l12 22l13 5l5 5l-4 5v11l-6 4l-6 5v1l2 3l-5 10v30l3 19l6 18l14 3v23l12 21l3 11l4 7l-2 12l-16 13
l-4 10l4 13l9 12l11 16l10 16l5 21l16 10v4l6 4l30 1l5 4l12 1h7l4 -6l16 -13l58 -26l33 -18v-4l23 -22v-5l5 -4l4 -9l15 -18l-1 -21v-25l4 -9l-3 -6h-1l-1 -2v-3l5 -4l3 -48v-16l-2 -1l4 -4l-8 -10l3 -13l1 -1l4 -13l-2 -16v-5l9 -7l9 -16l1 -28zM271 342l-1 2v7l-5 5l-7 2
l5 -12l7 -5zM265 377l-2 3l-2 10l4 39l-15 17l-3 11l-20 19l-3 9l-16 12l-35 18l-20 7v1l-20 6l-18 12v2h-11l-31 -9l-27 -42l-12 -21l-2 -12l7 -8l6 -5l3 -7l2 -19l-7 -9v-7l-6 -9l2 -2l-5 -12l16 5l72 5l111 -5l8 -6zM252 307v5l-2 20l-6 5v4l-6 -14v-22l7 -2zM210 369
l-10 3l-4 -3l7 -14l2 1zM171 363v13h-9zM189 327v6h-2v-6h2zM259 258l-5 7l-5 1l-5 -1l1 -9l11 -2zM296 180v6l-2 24l-5 7l-1 -42zM164 324l-3 17l-4 5l-4 -28l4 -9h4l1 2zM142 369v8h-47l-14 -3l-1 -2l5 -5v-4l13 2l10 -5v-5l7 -11l5 18l9 14zM129 307l-2 20v-18zM103 316
l-4 7l-1 1v8l-3 -5v-22l3 2h2zM62 369h-7l-9 -4l2 -51l2 2v7l4 4v6l6 22v5l-1 2zM71 302l-2 12l-2 10l-5 -24h5zM18 347v6l-2 5l-1 2l-4 -2l-4 -17l8 -4v7zM30 294v11l-3 6l-2 -2v-16zM275 219v25h-5v-4l-2 -1l-23 -3l-18 18l-1 14l14 15l12 1l18 -10v9l-9 -3l-11 8h-15
l-16 3l-50 6l-33 -4l-46 -5h-16l-19 -8l-12 -6l-11 3l-3 -3h-9l1 -21l2 -3v-5l-2 -1h-9l-5 -4l-14 -18v-26l14 -18l25 -17l18 -5v-3l9 -26l15 -19l21 -14l8 -11l10 -5l34 -13l45 -1l35 7l17 11v5l1 2l5 1v4l9 9l6 17l1 14l4 32zM177 245l-6 -9l-9 -5l-10 -3l-21 3l-9 14
l2 21l12 13l7 1l25 -1l9 -16v-18zM235 166l-13 -5l-7 -5l-5 1v11l9 5l7 2h7l2 -4v-5zM197 171l-3 -3l-19 -2l-4 -4h-2l-3 4v2l11 7l10 2h7zM196 92l-4 -3h-9l-6 6l-20 -1l-1 -2l-4 2l17 9l14 1l6 -1l7 -5v-6zM48 186l-9 -6l-14 6l-2 5l-8 14l-4 12l4 2l14 -2l5 -8v-4l-2 -2
l5 -8l8 -4v-2zM162 258l-9 8h-3l-16 -7v-9l8 -6l11 -2l8 5z" />
    <glyph glyph-name="twosuperior" unicode="&#xb2;" horiz-adv-x="325" 
d="M312 187l-5 -12l-5 -7l-19 -9l-3 -35l3 -2l-4 -4l-2 -12l-12 -23l-13 -18l-14 -5l-14 -9h-49l-48 3l-27 10l-40 35l-10 13l-14 26l1 2l-7 8l-15 3l-25 26l-11 19l2 26l12 22l13 5l5 5l-4 5v11l-6 4l-6 5v1l2 3l-5 10v30l3 19l6 18l14 3v23l12 21l3 11l4 7l-2 12l-16 13
l-4 10l4 13l9 12l11 16l10 16l5 21l16 10v4l6 4l30 1l5 4l12 1h7l4 -6l16 -13l58 -26l33 -18v-4l23 -22v-5l5 -4l4 -9l15 -18l-1 -21v-25l4 -9l-3 -6h-1l-1 -2v-3l5 -4l3 -48v-16l-2 -1l4 -4l-8 -10l3 -13l1 -1l4 -13l-2 -16v-5l9 -7l9 -16l1 -28zM271 342l-1 2v7l-5 5l-7 2
l5 -12l7 -5zM265 377l-2 3l-2 10l4 39l-15 17l-3 11l-20 19l-3 9l-16 12l-35 18l-20 7v1l-20 6l-18 12v2h-11l-31 -9l-27 -42l-12 -21l-2 -12l7 -8l6 -5l3 -7l2 -19l-7 -9v-7l-6 -9l2 -2l-5 -12l16 5l72 5l111 -5l8 -6zM252 307v5l-2 20l-6 5v4l-6 -14v-22l7 -2zM210 369
l-10 3l-4 -3l7 -14l2 1zM171 363v13h-9zM189 327v6h-2v-6h2zM259 258l-5 7l-5 1l-5 -1l1 -9l11 -2zM296 180v6l-2 24l-5 7l-1 -42zM164 324l-3 17l-4 5l-4 -28l4 -9h4l1 2zM142 369v8h-47l-14 -3l-1 -2l5 -5v-4l13 2l10 -5v-5l7 -11l5 18l9 14zM129 307l-2 20v-18zM103 316
l-4 7l-1 1v8l-3 -5v-22l3 2h2zM62 369h-7l-9 -4l2 -51l2 2v7l4 4v6l6 22v5l-1 2zM71 302l-2 12l-2 10l-5 -24h5zM18 347v6l-2 5l-1 2l-4 -2l-4 -17l8 -4v7zM30 294v11l-3 6l-2 -2v-16zM275 219v25h-5v-4l-2 -1l-23 -3l-18 18l-1 14l14 15l12 1l18 -10v9l-9 -3l-11 8h-15
l-16 3l-50 6l-33 -4l-46 -5h-16l-19 -8l-12 -6l-11 3l-3 -3h-9l1 -21l2 -3v-5l-2 -1h-9l-5 -4l-14 -18v-26l14 -18l25 -17l18 -5v-3l9 -26l15 -19l21 -14l8 -11l10 -5l34 -13l45 -1l35 7l17 11v5l1 2l5 1v4l9 9l6 17l1 14l4 32zM177 245l-6 -9l-9 -5l-10 -3l-21 3l-9 14
l2 21l12 13l7 1l25 -1l9 -16v-18zM235 166l-13 -5l-7 -5l-5 1v11l9 5l7 2h7l2 -4v-5zM197 171l-3 -3l-19 -2l-4 -4h-2l-3 4v2l11 7l10 2h7zM196 92l-4 -3h-9l-6 6l-20 -1l-1 -2l-4 2l17 9l14 1l6 -1l7 -5v-6zM48 186l-9 -6l-14 6l-2 5l-8 14l-4 12l4 2l14 -2l5 -8v-4l-2 -2
l5 -8l8 -4v-2zM162 258l-9 8h-3l-16 -7v-9l8 -6l11 -2l8 5z" />
    <glyph glyph-name="threesuperior" unicode="&#xb3;" horiz-adv-x="362" 
d="M160 551l-1 -26l-2 -2l-7 4l-2 -39l2 -2h1l8 20l12 33v6l7 3l3 3l4 -1l7 -8l-6 -15l-6 -4l-4 -5l-5 -12l-5 -25v-5l1 -2l13 12l1 11l23 44l4 9l5 1l9 -10l-5 -35l-4 -9l-2 -14l-1 -9v-6l1 -1l23 47l4 14l7 4h3l6 -7v-11l-6 -11v-8l-3 -3v-9l-6 -11v-9l18 -10l18 -14
l8 -15l3 -9l6 -19l2 -19l9 -11l-2 -15l-3 -6v-12l5 -11l7 -12l17 -5l9 -9v-23l-10 -18l-10 -16l-4 -1l-7 -9l-11 -9l-5 -16l-2 -24l-9 -34l-3 -15v-3l16 -1l25 -2l5 -3l3 -4v-11l-35 -19v-10l-6 -8l-28 -3l-5 -4l4 -14v-3l-11 -11l-10 2v6l-23 20h-18l-6 -10v-32l-10 -7
l-5 2l-7 10l-2 11l-9 16l-12 16l-19 1h-4l-2 2l-9 -5l-53 2l-10 3l-4 4v8l11 14l-3 6l-5 -2l-34 14l-10 9l-13 9l-5 7l1 4l17 10l15 2h5l11 -9l4 16l14 -2l15 -7h2v21l-3 25l5 9h5l4 -29l8 -30l25 -15l14 -13l11 -3l14 -9l28 -5l37 1l9 4h8l15 9l12 3l12 28v8l4 3l13 92v33
l-3 2l-3 7l2 5l9 11l-5 10l-13 -12l-16 -3h-9l-7 9v8l-16 3v8l8 5h44l3 -4l3 4l-1 9l-7 21l3 5l-1 30l-9 19l-18 16l-14 4h-3l-3 -18v-5l-5 -6h-8l-13 18l-15 20l-3 5l-13 1h-2l-4 4l-3 -9l-5 -3h-6l-5 8v6l-14 2l-3 5l-8 -5l-17 -2h-5l-6 -6l-11 -2l-15 -15h-6l-12 -16
l-8 -22l-4 -4l-4 -21l-3 -18v-42l-2 -2l7 -4l3 -5v-5l-5 -4l-12 2v4l-7 5l-3 3l-8 -3l-4 -3l-2 -39l2 -4l3 -26l3 -4v-6l11 -17l19 -3v-7l-5 -4h-6l-13 7l-9 13l-8 21l-1 61l-7 8l2 5v4l5 3l5 14l18 3l1 30l15 49l15 34v9l4 4l5 3h16l2 2l7 1l18 13l3 33l3 16v25l2 1v4h14
l4 -5l1 -28l4 -7l2 -2l5 37v4l-2 1l9 5l11 -3zM127 484l4 -3h1v-7h-1v5l-4 4h-7l-2 24l7 -14zM194 488l1 2l-1 -14v12zM180 351l-2 -8l-5 -1l-6 -16l-10 -7h-21l-8 7l-3 7h-5l-4 -6h-5v8l11 8l9 8l28 10l16 -4zM155 336l-5 -3h-5l-3 5l4 5l5 -3zM319 269l-7 -8v-4l-13 -12
h-3l3 37v5l9 4l11 -2v-20zM32 263l2 -9v-6l5 -5h5l2 -5l-7 -9h-7l-7 9l-6 26l2 10l2 6h7zM245 273l-15 -18l-5 -1h-5v15l16 11h9v-7zM215 273v-4l-30 -12h-4l-5 12v5l25 3l2 1h10zM203 211l52 6h11v-13l-11 -5l-3 -21l-11 -6v-1l-12 -4l-16 2l-7 3l-5 -3l-32 2l-10 5l-13 18
l-5 12l-5 5l1 6l8 2l31 -4zM194 201l1 -12l-3 -4l-19 4l-9 6l3 8l22 -2h5zM238 189l-5 -4l-18 5v11l23 -2v-10zM39 125h-14l-12 9v2l-4 3l21 2l2 1l11 -10zM283 106l-10 -2h-7l9 5l14 -2zM101 93l-17 -6h-17l3 10l11 9l17 -4zM230 70l-10 11v3l13 3v-15zM173 67l-2 -2v-5
l-7 9l5 9h4v-11z" />
    <glyph glyph-name="acute" unicode="&#xb4;" horiz-adv-x="426" 
d="M391 378l-6 -7l-2 -20v-13l4 -9l1 -13v-72l-3 -16l-5 -16l2 -5h-11v20l7 14v74l-7 15l2 49l7 8h11v-9zM188 385l-2 -14l-7 -6h-7l-18 39l-15 83l-4 13l-4 3l-8 -9l-2 -18l2 -56l12 -28l19 -18v-5l2 -1l-7 -4l-4 -5h-6l-30 33l-11 34l-5 47v19l-7 8h-9l-9 -15v-45l11 -34
l19 -19l11 -5l1 -8l-9 -9l-12 4l-18 19l-6 18l-9 23l-2 2l-2 -9l5 -19l9 -18l5 -7l-1 -9v-1l-9 -4l-26 15l-18 18l1 11l8 1h5l9 -15l7 -4l1 2l-3 4v16l-3 54l-2 7v5l5 4h11l5 10l1 11l18 12h15l10 -12l5 -16h2l9 24l7 9l5 6l11 -2l7 -9l3 -53l9 -47l14 -30h11zM368 154
l-2 -12l-13 -11h-5l-7 9l-51 4l-30 -4l-18 -45l-17 -25l-9 -5l-10 -3l-6 -5l-16 8l-42 6l-38 9l-9 6l-11 1l-5 5l-8 3l-14 15l-12 26l-5 43l2 1h5l4 -8l3 -28l7 -22l19 -21l15 -3l14 -7h10l5 -5l32 -6l3 -3l50 -2l14 11l14 24l10 25l-6 5h-60v2l-4 2h-5l-2 -2l-8 -3h-13
l-1 1v4l44 14l38 17l6 5l20 3l4 5l2 72l2 11v5l-2 1l-9 -10l-11 -7h-17l-5 3l-4 9l2 8l12 10l12 4h13v-3l7 -6l2 1l-8 14l2 11l6 4v14l-9 19h-2l-6 9l8 16l12 3h4l12 12l21 24l11 24v29l-11 24l-21 17l-18 9h-1v-12l7 -11l5 -22v-34l-18 -32l-14 -16l-21 -19h-5l-4 7v6l7 5
v3l12 9l18 19l9 16l4 22v17l-9 16l-27 21l-8 1v-10l3 -3l2 -16l3 -21l-1 -38l-15 -19l-15 -12l-2 2v5l17 19l6 11v46l-2 7l-7 24l-7 11h-14l-5 5l-2 4v5l8 5l11 -1l12 -7l11 10l4 2l15 -7l39 -13l19 -11l20 -24l7 -23v-19l-5 -17l-11 -22l-14 -16l-12 -12l9 -8l-4 -17
l-7 -12l-3 -32v-17l-8 -9l13 -10l12 -6l11 -14l-2 -15l-12 -18l-9 -9l-9 -7l-4 -4l-1 -14l-4 -4l5 -6l-1 -2l3 -4h12l25 -3l32 -2l9 9h7zM223 197l-5 -6h-6l-3 6l-2 1l5 5h4zM148 277l-6 -12l-9 -7l-9 4l-3 7h-7l-4 3v5l18 11l16 -3zM206 202l-31 -4l-1 2h-4l4 9l15 3h9
l8 -5v-5zM82 233l-21 -12l-7 4l-2 5v2l-9 4h-5l4 11l3 4l-7 7l-7 -3l-5 -6v-13l9 -15v-5h-6l-12 20l1 19l13 16l-4 1l-5 5v11h-18l-6 -12v-51l6 -22l6 -10l7 -5l12 1v-14h-11l-6 5l-13 18l-5 18l-3 17l1 44l16 20l-5 27l4 19l-3 16l6 6h7l4 -5v-7l-3 -2h9l6 4l21 2l2 2l4 -4
l-6 -5l-14 -4l-14 -7h12l19 7h4l4 -3l-13 -9l-14 -4l-14 -10h18l3 1h6l3 -6l-2 -2v-6l2 -1l2 -6v-5l-13 -13v-1l13 -4v-3l10 -5l-1 -7l-14 -7l-3 -2v-2h25v-5l-3 -4l7 -1h5v-8zM114 438l-2 18h-2l2 -18h2zM290 249l-4 4h-1l-13 2l2 -39l14 14zM244 276v5h-3l-9 -5v-4l1 -1h4
l2 1zM294 156v2h-8v-2h8zM237 156v3l-1 6h-4l-7 -4l-19 -7l1 -1z" />
    <glyph glyph-name="mu" unicode="&#xb5;" horiz-adv-x="459" 
d="M146 568l23 -6l14 -7h5l3 -5l14 -5l6 -5l14 -8l51 -39l17 -19l11 -17l9 -20l7 -9l-5 -47l-5 -72l5 -48l3 -5l-5 -14l-11 -13l-3 -12l-6 -10l-15 -39l-11 -19l-3 -11l-4 -3l7 -4v-9l-9 -7l-1 2h-4l-4 -16l-11 -14l-8 -20l-1 -9l-6 -3l-5 2h-4l-3 9l2 5v3h3l6 8l5 10l-14 7
l-57 6l-12 5h-2l-1 -2l-16 16l-5 12v14l5 7l5 5l37 6l21 -4l47 -7l14 -8v-3l3 -1l8 10l2 7l7 9l2 9l-16 2l-51 3l-7 2h-6v16l14 4l4 7l23 9l11 6l15 -5l8 -10l10 -9v-2l2 -2l5 6l13 35v14l-16 7l-18 14v21l4 4l1 15l9 20l15 16l8 2l3 9v8l2 44l-7 9l-1 18l-8 12l-1 7l-44 44
l-8 1l-10 9l-12 9h-4l-7 7l-24 11l-23 8l-20 4l-33 -6l-13 -8l-10 -3l-26 -16l-35 -29l-27 -27l-6 -17l2 -1l-5 -9l-3 -86l1 -76l7 -60l4 -3v-2l-6 3l-5 18l-4 58l-3 73v91l18 26l35 34l18 14l9 3l6 8l23 10l7 7l27 12l4 6l17 -2zM396 379l-6 -5h-10l-5 -4v-3l-5 -3h-6v8
l6 7l9 9l10 5l7 -3v-11zM165 384l21 -5l22 -10l3 -22l2 -26l3 -19v-6l6 -5l-2 -10l-18 -14l-3 -6l-13 -10l-21 -9l-32 -5l-35 1l-16 5l-24 18l-4 11v4l5 5l13 -4l10 -18l16 -8l22 -4l41 4l8 5l12 3l9 11v3l1 3h-8l-7 -6l-16 -9l-30 -5l-27 7l-24 24l2 6l8 10l8 22l12 14
l14 14l30 -11l23 -16l14 -19h7l2 -2v25l-9 25l-7 10l-14 7h-102l-8 -3l-5 -9v-44l5 -23l-1 -2v-4l-9 -1h-4l-3 5v93l3 6l57 -6h63zM299 276h-7l-1 1h-4l-7 19l2 20l10 19l5 4v-62zM153 326l5 -6l2 -3h4v-3l5 -3l5 -18v-4l4 -3l-11 -9l-9 -1l-12 -6h-25l-18 12l-8 14v7l19 23
l6 4l10 1l20 -5h3zM426 320l-2 -8l-23 -3l-16 -7h-3l-3 7l1 5v2l4 4l17 1l9 4h7zM146 307l5 -9l-1 -14l-9 -8l-11 1l-10 12l-4 7l5 18l9 3l7 -1zM417 256v-9l-7 -4l-9 6l-19 2l-6 7l9 9l13 -2zM253 199l-39 2l-1 2l21 7l15 -5zM9 168l9 -30l24 -47l17 -15l61 -14l36 -5l27 1
l7 4l7 -2v-11l-6 -6h-45l-48 6l-7 4l-2 -1l-3 3l-39 5l-7 7v6l-17 26l-8 14l-21 57l-7 15l-5 9l3 4l9 -2zM223 141l6 -5l-46 4l-7 5l-21 -2l-4 -7l7 -12l6 -6l12 6l26 -4h23l5 -2h8l-4 -7h-16l-5 4l-53 3l-14 8l-11 15l12 9l4 2l48 -3z" />
    <glyph glyph-name="mu" unicode="&#x3bc;" horiz-adv-x="459" 
d="M146 568l23 -6l14 -7h5l3 -5l14 -5l6 -5l14 -8l51 -39l17 -19l11 -17l9 -20l7 -9l-5 -47l-5 -72l5 -48l3 -5l-5 -14l-11 -13l-3 -12l-6 -10l-15 -39l-11 -19l-3 -11l-4 -3l7 -4v-9l-9 -7l-1 2h-4l-4 -16l-11 -14l-8 -20l-1 -9l-6 -3l-5 2h-4l-3 9l2 5v3h3l6 8l5 10l-14 7
l-57 6l-12 5h-2l-1 -2l-16 16l-5 12v14l5 7l5 5l37 6l21 -4l47 -7l14 -8v-3l3 -1l8 10l2 7l7 9l2 9l-16 2l-51 3l-7 2h-6v16l14 4l4 7l23 9l11 6l15 -5l8 -10l10 -9v-2l2 -2l5 6l13 35v14l-16 7l-18 14v21l4 4l1 15l9 20l15 16l8 2l3 9v8l2 44l-7 9l-1 18l-8 12l-1 7l-44 44
l-8 1l-10 9l-12 9h-4l-7 7l-24 11l-23 8l-20 4l-33 -6l-13 -8l-10 -3l-26 -16l-35 -29l-27 -27l-6 -17l2 -1l-5 -9l-3 -86l1 -76l7 -60l4 -3v-2l-6 3l-5 18l-4 58l-3 73v91l18 26l35 34l18 14l9 3l6 8l23 10l7 7l27 12l4 6l17 -2zM396 379l-6 -5h-10l-5 -4v-3l-5 -3h-6v8
l6 7l9 9l10 5l7 -3v-11zM165 384l21 -5l22 -10l3 -22l2 -26l3 -19v-6l6 -5l-2 -10l-18 -14l-3 -6l-13 -10l-21 -9l-32 -5l-35 1l-16 5l-24 18l-4 11v4l5 5l13 -4l10 -18l16 -8l22 -4l41 4l8 5l12 3l9 11v3l1 3h-8l-7 -6l-16 -9l-30 -5l-27 7l-24 24l2 6l8 10l8 22l12 14
l14 14l30 -11l23 -16l14 -19h7l2 -2v25l-9 25l-7 10l-14 7h-102l-8 -3l-5 -9v-44l5 -23l-1 -2v-4l-9 -1h-4l-3 5v93l3 6l57 -6h63zM299 276h-7l-1 1h-4l-7 19l2 20l10 19l5 4v-62zM153 326l5 -6l2 -3h4v-3l5 -3l5 -18v-4l4 -3l-11 -9l-9 -1l-12 -6h-25l-18 12l-8 14v7l19 23
l6 4l10 1l20 -5h3zM426 320l-2 -8l-23 -3l-16 -7h-3l-3 7l1 5v2l4 4l17 1l9 4h7zM146 307l5 -9l-1 -14l-9 -8l-11 1l-10 12l-4 7l5 18l9 3l7 -1zM417 256v-9l-7 -4l-9 6l-19 2l-6 7l9 9l13 -2zM253 199l-39 2l-1 2l21 7l15 -5zM9 168l9 -30l24 -47l17 -15l61 -14l36 -5l27 1
l7 4l7 -2v-11l-6 -6h-45l-48 6l-7 4l-2 -1l-3 3l-39 5l-7 7v6l-17 26l-8 14l-21 57l-7 15l-5 9l3 4l9 -2zM223 141l6 -5l-46 4l-7 5l-21 -2l-4 -7l7 -12l6 -6l12 6l26 -4h23l5 -2h8l-4 -7h-16l-5 4l-53 3l-14 8l-11 15l12 9l4 2l48 -3z" />
    <glyph glyph-name="paragraph" unicode="&#xb6;" 
d="M176 501v-7l3 -4v-6l25 -4l44 -11l44 -23h5l9 9l25 26v9l11 8h5v-22l-7 -22l-16 -52l2 -105l3 -6l7 9l6 19l2 13l9 2h5l8 -15l2 -35l-4 -3l-1 -23l-9 -33l-4 -11l-15 -7l-16 -2l-4 -41l-10 -31l-9 -23l-9 -21l-14 -21l-9 -6l-7 -1l-1 -2l-9 2l-9 7l-35 5l-6 -2l-10 5
l-32 5l-23 8h-16l-3 3h-9l-16 20l-6 3l-14 27l-10 30l-5 19l-2 2l-7 -7l-39 10l-14 7l-8 16l-6 20l2 113l5 1h4l6 -18l20 -27l4 5l3 26l11 62l3 5l6 25l8 14l6 6l5 6l14 2l19 9l6 5l14 3l8 8h18l4 3v26l-6 7v13l6 5l12 -1zM165 481l-1 -17l-11 -10l-10 3l7 11l9 24h3z
M256 451l24 -14l4 -6l10 -9l-5 -6l8 -12l8 -5l5 -12v-57l-2 -2v2l-7 7l-17 -3l-13 -18l-4 -14v-2l6 -5h7l7 10v8l18 1l3 4h-2v3h2v-26l-5 4l-12 -4l-4 -16l-2 -4v-5l9 -9l11 -1h5v-13l-10 -7l-4 -5v-9l9 -33h-13l-14 3l-5 43l-7 19l-2 16l-5 16h-16l-3 -6l3 -10l9 -22l9 -44
l-2 -14v-5h-7l-2 2l-7 -4h-5l-2 2l-7 -7v-4l5 -5h23l5 -5h9l7 13v1l-1 -1l-2 2l1 1l9 -9l18 -3l-9 -35l-5 -8l-23 4v5h7l7 7l-4 7l-3 4l-78 5l-10 6h-6l-5 -6v-12l9 -9l5 -12l9 -8l12 -1h44v-4l4 -3h7l7 7h7l4 -4h2l-8 -16l-12 -19l-33 1l-53 9l-54 16v2l-4 4h-9l-23 22
l-12 29v7l-5 11l-4 17l-7 9l-14 -4l-27 2l-17 7l-4 5l-7 22v88l14 -22l25 -33l2 2v3h1l2 2l-5 4l-7 12l5 10l2 16l8 57l4 9l-1 6l5 11v7l12 20l10 1l13 14l7 2l7 7l9 2l5 5h17l-11 -8v-8l5 -6h6l4 3l9 -7l32 4l11 8l1 18l4 2l44 -8zM319 432l-5 2v7l10 13l-2 -13zM204 349
l13 -26l-8 -7h-10l-5 21l-4 4v7l-5 6l-3 12l-4 3l-18 -3l-30 -14h-5l-5 8l9 6l15 3l6 3l10 6h8l1 1l10 4h13zM195 313l4 -13l4 -3l-6 -13l-3 -3l-30 2v3l-5 4v23l15 10h9zM183 295l-5 2v11l9 -9zM349 261l-5 -22l-4 -9l-5 -4h-4l-3 4v12l8 19v9l9 9l5 14v-32h-1zM206 189
l3 -3v-5l-5 -4h-31l-16 -7l-4 -3h-7l-2 8l13 9l19 3l11 4l14 -2h5zM209 140h-5v5h5v-5zM248 138v-5h-16v12l15 -2z" />
    <glyph glyph-name="onesuperior" unicode="&#xb9;" horiz-adv-x="489" 
d="M468 475l-2 -12l-20 -17l-17 -2l-18 2l-9 18l-14 -3l-26 -17l-12 -13l-6 -12l-3 -4l-5 2h-2l-3 3v13l8 8l14 11l38 23l3 4h-11l-33 -20l-21 -18l-11 -12l-10 -18l-25 -1l-9 21l-5 5h-4l-9 -12l-5 -42v-25l2 -2v-5l-5 -2l-6 -7h-5l-3 3v11l-6 11l-19 42l-21 36l-7 2l-8 8
l-10 -2l-3 -3l-9 5l3 10l9 9v4h2l33 49v3l9 9l14 21h-10l-35 -30v-3l-8 -3l-39 -53l-8 -29l-3 -19v-2l-8 4l-3 5l7 25l-2 1l-7 -6l-14 -4l-17 -21l-15 -25l-7 -17l-2 -9h-1l-19 -88l5 -7v-2l1 -2l-1 -4l-29 18l-20 23h-3v-33l11 -63l6 -11l5 -6h16l3 4h9v-9l-18 -12l-14 1
l-9 8l-9 14l-3 24l-5 25l-7 72l1 5v6l9 3l13 -17l9 -13l19 -17l7 12l12 63l16 41l11 18l24 37l11 5l9 -2l6 -5l8 12l10 20l39 44l35 35v4l8 6l-4 5l5 8l16 -4l10 -4l18 -5l19 -14l11 -12l-2 -16l-10 -8l-9 -6l-16 -3l-11 3l-14 20l-8 -8l-3 -6l-17 -20l-27 -44v-4l3 -1l3 3
l12 -2h20l28 -3l7 2h5l11 -9l8 -4l11 -9l9 -8v-4l9 -9l14 21l31 29l32 18l18 6l5 4l2 1v4h34l20 -10l9 -11zM353 248l-3 -18l-9 -9h-5l2 9v12l-4 8v5l5 5l11 -1zM320 220l-3 -11l-18 -12l-26 -13h-8l-1 7v6l5 3h10l11 6l7 1l11 9l-11 5l-28 -4l-5 -2v8l17 7l23 2l9 -4l5 -3z
M380 299l-2 -84l-7 -17l-5 -7l-11 -9l-12 4v2l-2 2h-5l-22 -52l-17 -31l-18 -25l-3 -14l-14 -3l-27 -16l-26 -8l-41 3l-17 8l-36 27l-22 26l-22 35l-10 25l-7 19l3 4l6 -2l5 -9l6 -15l28 -52l22 -26l5 -2l18 -16l26 -12l29 -4l26 7l14 9l13 9v5l9 9l6 2l16 21l9 16l5 7
l13 28v5h1l6 23l-2 9v4h32v-2l2 -2l6 4l8 21l3 34l-3 31v10l-2 3l-14 -24v-9l-16 -5l-2 2h-5l-9 -12l-4 -4l-15 2l-13 14v18l4 3l18 9l12 -2l9 -9l5 23v46l-9 27l-7 10v9l4 1l9 -1l10 -21l2 -16l4 -14v-44l1 -2l5 7l5 27l4 3l2 2h5v-2l2 -2h5zM204 264l-2 -11l-11 -9
l-20 -12l-27 2l-11 8l-4 9l-3 16l2 27l4 3h3l-3 -19l3 -19l14 -17h19l18 11l7 7v7l-12 21l-9 9h-14l-11 -9h-3l2 12l8 9l8 2l14 -3l8 -9l7 -7l7 -13zM281 144l-3 -6l-9 -1l-7 5h-3l-9 -10l-15 -14l-20 -6l-22 7l-17 23v11l-13 5l-3 4l5 3l44 -9l35 -3l4 6h7l1 -5l18 -1l4 -6
zM36 216l-5 -5h-14l-7 9l-4 10v20l-1 1l5 9l11 -1v-9l-4 -11l4 -13zM452 473l-8 12l-25 5v-2h1l4 -8v-19l11 -2l14 7zM276 549l-6 10l-17 14l-21 6l-2 -7l11 1l10 -8v-11l-3 -3l5 -9l3 -4l11 2zM237 383v14l-3 -10zM314 273v5l-5 5l-5 -7h-4v-3l6 -6h3zM239 140l-2 2l-33 2
l-14 5v-5l8 -12l11 -4l12 -2l14 7z" />
    <glyph glyph-name="ordmasculine" unicode="&#xba;" horiz-adv-x="325" 
d="M312 187l-5 -12l-5 -7l-19 -9l-3 -35l3 -2l-4 -4l-2 -12l-12 -23l-13 -18l-14 -5l-14 -9h-49l-48 3l-27 10l-40 35l-10 13l-14 26l1 2l-7 8l-15 3l-25 26l-11 19l2 26l12 22l13 5l5 5l-4 5v11l-6 4l-6 5v1l2 3l-5 10v30l3 19l6 18l14 3v23l12 21l3 11l4 7l-2 12l-16 13
l-4 10l4 13l9 12l11 16l10 16l5 21l16 10v4l6 4l30 1l5 4l12 1h7l4 -6l16 -13l58 -26l33 -18v-4l23 -22v-5l5 -4l4 -9l15 -18l-1 -21v-25l4 -9l-3 -6h-1l-1 -2v-3l5 -4l3 -48v-16l-2 -1l4 -4l-8 -10l3 -13l1 -1l4 -13l-2 -16v-5l9 -7l9 -16l1 -28zM271 342l-1 2v7l-5 5l-7 2
l5 -12l7 -5zM265 377l-2 3l-2 10l4 39l-15 17l-3 11l-20 19l-3 9l-16 12l-35 18l-20 7v1l-20 6l-18 12v2h-11l-31 -9l-27 -42l-12 -21l-2 -12l7 -8l6 -5l3 -7l2 -19l-7 -9v-7l-6 -9l2 -2l-5 -12l16 5l72 5l111 -5l8 -6zM252 307v5l-2 20l-6 5v4l-6 -14v-22l7 -2zM210 369
l-10 3l-4 -3l7 -14l2 1zM171 363v13h-9zM189 327v6h-2v-6h2zM259 258l-5 7l-5 1l-5 -1l1 -9l11 -2zM296 180v6l-2 24l-5 7l-1 -42zM164 324l-3 17l-4 5l-4 -28l4 -9h4l1 2zM142 369v8h-47l-14 -3l-1 -2l5 -5v-4l13 2l10 -5v-5l7 -11l5 18l9 14zM129 307l-2 20v-18zM103 316
l-4 7l-1 1v8l-3 -5v-22l3 2h2zM62 369h-7l-9 -4l2 -51l2 2v7l4 4v6l6 22v5l-1 2zM71 302l-2 12l-2 10l-5 -24h5zM18 347v6l-2 5l-1 2l-4 -2l-4 -17l8 -4v7zM30 294v11l-3 6l-2 -2v-16zM275 219v25h-5v-4l-2 -1l-23 -3l-18 18l-1 14l14 15l12 1l18 -10v9l-9 -3l-11 8h-15
l-16 3l-50 6l-33 -4l-46 -5h-16l-19 -8l-12 -6l-11 3l-3 -3h-9l1 -21l2 -3v-5l-2 -1h-9l-5 -4l-14 -18v-26l14 -18l25 -17l18 -5v-3l9 -26l15 -19l21 -14l8 -11l10 -5l34 -13l45 -1l35 7l17 11v5l1 2l5 1v4l9 9l6 17l1 14l4 32zM177 245l-6 -9l-9 -5l-10 -3l-21 3l-9 14
l2 21l12 13l7 1l25 -1l9 -16v-18zM235 166l-13 -5l-7 -5l-5 1v11l9 5l7 2h7l2 -4v-5zM197 171l-3 -3l-19 -2l-4 -4h-2l-3 4v2l11 7l10 2h7zM196 92l-4 -3h-9l-6 6l-20 -1l-1 -2l-4 2l17 9l14 1l6 -1l7 -5v-6zM48 186l-9 -6l-14 6l-2 5l-8 14l-4 12l4 2l14 -2l5 -8v-4l-2 -2
l5 -8l8 -4v-2zM162 258l-9 8h-3l-16 -7v-9l8 -6l11 -2l8 5z" />
    <glyph glyph-name="onequarter" unicode="&#xbc;" horiz-adv-x="459" 
d="M146 568l23 -6l14 -7h5l3 -5l14 -5l6 -5l14 -8l51 -39l17 -19l11 -17l9 -20l7 -9l-5 -47l-5 -72l5 -48l3 -5l-5 -14l-11 -13l-3 -12l-6 -10l-15 -39l-11 -19l-3 -11l-4 -3l7 -4v-9l-9 -7l-1 2h-4l-4 -16l-11 -14l-8 -20l-1 -9l-6 -3l-5 2h-4l-3 9l2 5v3h3l6 8l5 10l-14 7
l-57 6l-12 5h-2l-1 -2l-16 16l-5 12v14l5 7l5 5l37 6l21 -4l47 -7l14 -8v-3l3 -1l8 10l2 7l7 9l2 9l-16 2l-51 3l-7 2h-6v16l14 4l4 7l23 9l11 6l15 -5l8 -10l10 -9v-2l2 -2l5 6l13 35v14l-16 7l-18 14v21l4 4l1 15l9 20l15 16l8 2l3 9v8l2 44l-7 9l-1 18l-8 12l-1 7l-44 44
l-8 1l-10 9l-12 9h-4l-7 7l-24 11l-23 8l-20 4l-33 -6l-13 -8l-10 -3l-26 -16l-35 -29l-27 -27l-6 -17l2 -1l-5 -9l-3 -86l1 -76l7 -60l4 -3v-2l-6 3l-5 18l-4 58l-3 73v91l18 26l35 34l18 14l9 3l6 8l23 10l7 7l27 12l4 6l17 -2zM396 379l-6 -5h-10l-5 -4v-3l-5 -3h-6v8
l6 7l9 9l10 5l7 -3v-11zM165 384l21 -5l22 -10l3 -22l2 -26l3 -19v-6l6 -5l-2 -10l-18 -14l-3 -6l-13 -10l-21 -9l-32 -5l-35 1l-16 5l-24 18l-4 11v4l5 5l13 -4l10 -18l16 -8l22 -4l41 4l8 5l12 3l9 11v3l1 3h-8l-7 -6l-16 -9l-30 -5l-27 7l-24 24l2 6l8 10l8 22l12 14
l14 14l30 -11l23 -16l14 -19h7l2 -2v25l-9 25l-7 10l-14 7h-102l-8 -3l-5 -9v-44l5 -23l-1 -2v-4l-9 -1h-4l-3 5v93l3 6l57 -6h63zM299 276h-7l-1 1h-4l-7 19l2 20l10 19l5 4v-62zM153 326l5 -6l2 -3h4v-3l5 -3l5 -18v-4l4 -3l-11 -9l-9 -1l-12 -6h-25l-18 12l-8 14v7l19 23
l6 4l10 1l20 -5h3zM426 320l-2 -8l-23 -3l-16 -7h-3l-3 7l1 5v2l4 4l17 1l9 4h7zM146 307l5 -9l-1 -14l-9 -8l-11 1l-10 12l-4 7l5 18l9 3l7 -1zM417 256v-9l-7 -4l-9 6l-19 2l-6 7l9 9l13 -2zM253 199l-39 2l-1 2l21 7l15 -5zM9 168l9 -30l24 -47l17 -15l61 -14l36 -5l27 1
l7 4l7 -2v-11l-6 -6h-45l-48 6l-7 4l-2 -1l-3 3l-39 5l-7 7v6l-17 26l-8 14l-21 57l-7 15l-5 9l3 4l9 -2zM223 141l6 -5l-46 4l-7 5l-21 -2l-4 -7l7 -12l6 -6l12 6l26 -4h23l5 -2h8l-4 -7h-16l-5 4l-53 3l-14 8l-11 15l12 9l4 2l48 -3z" />
    <glyph glyph-name="onehalf" unicode="&#xbd;" horiz-adv-x="362" 
d="M160 551l-1 -26l-2 -2l-7 4l-2 -39l2 -2h1l8 20l12 33v6l7 3l3 3l4 -1l7 -8l-6 -15l-6 -4l-4 -5l-5 -12l-5 -25v-5l1 -2l13 12l1 11l23 44l4 9l5 1l9 -10l-5 -35l-4 -9l-2 -14l-1 -9v-6l1 -1l23 47l4 14l7 4h3l6 -7v-11l-6 -11v-8l-3 -3v-9l-6 -11v-9l18 -10l18 -14
l8 -15l3 -9l6 -19l2 -19l9 -11l-2 -15l-3 -6v-12l5 -11l7 -12l17 -5l9 -9v-23l-10 -18l-10 -16l-4 -1l-7 -9l-11 -9l-5 -16l-2 -24l-9 -34l-3 -15v-3l16 -1l25 -2l5 -3l3 -4v-11l-35 -19v-10l-6 -8l-28 -3l-5 -4l4 -14v-3l-11 -11l-10 2v6l-23 20h-18l-6 -10v-32l-10 -7
l-5 2l-7 10l-2 11l-9 16l-12 16l-19 1h-4l-2 2l-9 -5l-53 2l-10 3l-4 4v8l11 14l-3 6l-5 -2l-34 14l-10 9l-13 9l-5 7l1 4l17 10l15 2h5l11 -9l4 16l14 -2l15 -7h2v21l-3 25l5 9h5l4 -29l8 -30l25 -15l14 -13l11 -3l14 -9l28 -5l37 1l9 4h8l15 9l12 3l12 28v8l4 3l13 92v33
l-3 2l-3 7l2 5l9 11l-5 10l-13 -12l-16 -3h-9l-7 9v8l-16 3v8l8 5h44l3 -4l3 4l-1 9l-7 21l3 5l-1 30l-9 19l-18 16l-14 4h-3l-3 -18v-5l-5 -6h-8l-13 18l-15 20l-3 5l-13 1h-2l-4 4l-3 -9l-5 -3h-6l-5 8v6l-14 2l-3 5l-8 -5l-17 -2h-5l-6 -6l-11 -2l-15 -15h-6l-12 -16
l-8 -22l-4 -4l-4 -21l-3 -18v-42l-2 -2l7 -4l3 -5v-5l-5 -4l-12 2v4l-7 5l-3 3l-8 -3l-4 -3l-2 -39l2 -4l3 -26l3 -4v-6l11 -17l19 -3v-7l-5 -4h-6l-13 7l-9 13l-8 21l-1 61l-7 8l2 5v4l5 3l5 14l18 3l1 30l15 49l15 34v9l4 4l5 3h16l2 2l7 1l18 13l3 33l3 16v25l2 1v4h14
l4 -5l1 -28l4 -7l2 -2l5 37v4l-2 1l9 5l11 -3zM127 484l4 -3h1v-7h-1v5l-4 4h-7l-2 24l7 -14zM194 488l1 2l-1 -14v12zM180 351l-2 -8l-5 -1l-6 -16l-10 -7h-21l-8 7l-3 7h-5l-4 -6h-5v8l11 8l9 8l28 10l16 -4zM155 336l-5 -3h-5l-3 5l4 5l5 -3zM319 269l-7 -8v-4l-13 -12
h-3l3 37v5l9 4l11 -2v-20zM32 263l2 -9v-6l5 -5h5l2 -5l-7 -9h-7l-7 9l-6 26l2 10l2 6h7zM245 273l-15 -18l-5 -1h-5v15l16 11h9v-7zM215 273v-4l-30 -12h-4l-5 12v5l25 3l2 1h10zM203 211l52 6h11v-13l-11 -5l-3 -21l-11 -6v-1l-12 -4l-16 2l-7 3l-5 -3l-32 2l-10 5l-13 18
l-5 12l-5 5l1 6l8 2l31 -4zM194 201l1 -12l-3 -4l-19 4l-9 6l3 8l22 -2h5zM238 189l-5 -4l-18 5v11l23 -2v-10zM39 125h-14l-12 9v2l-4 3l21 2l2 1l11 -10zM283 106l-10 -2h-7l9 5l14 -2zM101 93l-17 -6h-17l3 10l11 9l17 -4zM230 70l-10 11v3l13 3v-15zM173 67l-2 -2v-5
l-7 9l5 9h4v-11z" />
    <glyph glyph-name="threequarters" unicode="&#xbe;" horiz-adv-x="489" 
d="M468 475l-2 -12l-20 -17l-17 -2l-18 2l-9 18l-14 -3l-26 -17l-12 -13l-6 -12l-3 -4l-5 2h-2l-3 3v13l8 8l14 11l38 23l3 4h-11l-33 -20l-21 -18l-11 -12l-10 -18l-25 -1l-9 21l-5 5h-4l-9 -12l-5 -42v-25l2 -2v-5l-5 -2l-6 -7h-5l-3 3v11l-6 11l-19 42l-21 36l-7 2l-8 8
l-10 -2l-3 -3l-9 5l3 10l9 9v4h2l33 49v3l9 9l14 21h-10l-35 -30v-3l-8 -3l-39 -53l-8 -29l-3 -19v-2l-8 4l-3 5l7 25l-2 1l-7 -6l-14 -4l-17 -21l-15 -25l-7 -17l-2 -9h-1l-19 -88l5 -7v-2l1 -2l-1 -4l-29 18l-20 23h-3v-33l11 -63l6 -11l5 -6h16l3 4h9v-9l-18 -12l-14 1
l-9 8l-9 14l-3 24l-5 25l-7 72l1 5v6l9 3l13 -17l9 -13l19 -17l7 12l12 63l16 41l11 18l24 37l11 5l9 -2l6 -5l8 12l10 20l39 44l35 35v4l8 6l-4 5l5 8l16 -4l10 -4l18 -5l19 -14l11 -12l-2 -16l-10 -8l-9 -6l-16 -3l-11 3l-14 20l-8 -8l-3 -6l-17 -20l-27 -44v-4l3 -1l3 3
l12 -2h20l28 -3l7 2h5l11 -9l8 -4l11 -9l9 -8v-4l9 -9l14 21l31 29l32 18l18 6l5 4l2 1v4h34l20 -10l9 -11zM353 248l-3 -18l-9 -9h-5l2 9v12l-4 8v5l5 5l11 -1zM320 220l-3 -11l-18 -12l-26 -13h-8l-1 7v6l5 3h10l11 6l7 1l11 9l-11 5l-28 -4l-5 -2v8l17 7l23 2l9 -4l5 -3z
M380 299l-2 -84l-7 -17l-5 -7l-11 -9l-12 4v2l-2 2h-5l-22 -52l-17 -31l-18 -25l-3 -14l-14 -3l-27 -16l-26 -8l-41 3l-17 8l-36 27l-22 26l-22 35l-10 25l-7 19l3 4l6 -2l5 -9l6 -15l28 -52l22 -26l5 -2l18 -16l26 -12l29 -4l26 7l14 9l13 9v5l9 9l6 2l16 21l9 16l5 7
l13 28v5h1l6 23l-2 9v4h32v-2l2 -2l6 4l8 21l3 34l-3 31v10l-2 3l-14 -24v-9l-16 -5l-2 2h-5l-9 -12l-4 -4l-15 2l-13 14v18l4 3l18 9l12 -2l9 -9l5 23v46l-9 27l-7 10v9l4 1l9 -1l10 -21l2 -16l4 -14v-44l1 -2l5 7l5 27l4 3l2 2h5v-2l2 -2h5zM204 264l-2 -11l-11 -9
l-20 -12l-27 2l-11 8l-4 9l-3 16l2 27l4 3h3l-3 -19l3 -19l14 -17h19l18 11l7 7v7l-12 21l-9 9h-14l-11 -9h-3l2 12l8 9l8 2l14 -3l8 -9l7 -7l7 -13zM281 144l-3 -6l-9 -1l-7 5h-3l-9 -10l-15 -14l-20 -6l-22 7l-17 23v11l-13 5l-3 4l5 3l44 -9l35 -3l4 6h7l1 -5l18 -1l4 -6
zM36 216l-5 -5h-14l-7 9l-4 10v20l-1 1l5 9l11 -1v-9l-4 -11l4 -13zM452 473l-8 12l-25 5v-2h1l4 -8v-19l11 -2l14 7zM276 549l-6 10l-17 14l-21 6l-2 -7l11 1l10 -8v-11l-3 -3l5 -9l3 -4l11 2zM237 383v14l-3 -10zM314 273v5l-5 5l-5 -7h-4v-3l6 -6h3zM239 140l-2 2l-33 2
l-14 5v-5l8 -12l11 -4l12 -2l14 7z" />
    <glyph glyph-name="questiondown" unicode="&#xbf;" horiz-adv-x="366" 
d="M351 191l-2 -17l-11 -24h-3l-6 -10l-6 -2l-10 -7h-9l-32 -87l-2 -15l-5 -20l-51 -9l-39 9l-11 6h-22l-2 1h-4v4l-16 16l-28 24l-40 46l-4 7l-8 11l5 11l11 -4l1 -2l13 -24l12 -13v-4l46 -40l19 -14l16 -4l14 -6l14 -4l12 -5l41 1l8 13l25 51l8 25l11 30l3 12l-13 19
l-10 9l-4 9l-2 -2h-5l-10 5l-29 4l-42 -20l-30 -15h-4l-3 -6l-11 -3l-17 -15v9l14 13l5 2l30 18l29 15l14 5l6 6h4l11 10l17 -3l23 -11l13 -9l14 -13h1l2 1l-3 10l1 11l5 2l9 14v3l-1 3l3 2v13l-3 4h-6l-2 -2v-6l-17 -10l-19 1l-8 11v6h4l9 14l12 5l14 -2l2 -1h3v-4l2 -2
l6 7l3 9l-2 16l-7 14v7l-7 12v9l-5 5l-5 21l-8 13l-1 12l-7 9l-2 10l-7 11l-2 -8v-6l6 -3l1 -7l-7 -9l2 -16l-4 -3v-8l-12 -8l-12 1l-4 9l2 9l-3 11l-13 22l-8 11v3l-23 23l-11 7l-2 6l-17 8h-38l-15 -15l-16 3l-18 -12l-4 -7l-8 -9l-18 -30l-5 -16h-2l-5 -17l2 -25l3 -13
l6 -10l8 -11h-8l-11 16l-2 5v4l-4 4l-3 -4l-3 -28l6 -26l3 -11v-5l-8 -4l4 -5l4 -9l-3 -5l-1 -2h-5l-13 16h-3l-7 -28l2 -32l5 -16l8 -12l11 -4h16l2 -5l-6 -9l-19 2l-21 17l-7 21l-2 53l4 4v9l9 16l7 5l5 -4l1 53l4 4l9 40l9 25l14 32l9 12l12 19l21 17l11 27l17 32l14 30
l7 18l9 10l9 20l32 45l12 18h10l9 -10l9 -57l6 -18l1 -12l4 -18l1 -15l13 -59l10 -24l15 -16l10 -30l10 -28l4 -18l23 -56l2 -13l5 -11l10 -11v-6h-1l-7 -10l-5 -20l13 -8zM182 224l-7 -10l-14 -9h-25l-7 5l-10 8l-5 15l5 21l3 4v1h4l3 -3l-3 -14v-14l10 -10h28l9 11l-1 16
l-11 11l-8 -3l-8 -6l-7 -9h-5l-2 2l5 13l11 9l11 5l14 -2l10 -12v-29zM255 145l-14 -2l-27 -5l-9 2l-2 1v4l29 9h19l4 -4v-5zM276 105l-4 -11l-5 -6l-9 -1h-3l-4 5h-57l-12 -4h-32v9l6 4l58 4h44l2 1zM242 55l-40 -2l-4 4v3l9 6l23 3l12 -1v-13zM36 161l-2 -2h-5l-11 9
l-14 25v8l9 8l9 -2l4 -25l10 -20v-1zM247 390v30l-3 23l-6 14l-10 54l-12 57l-2 2v6l-3 4l-3 13l-5 14l-1 1v6l-5 6l-17 -15l-12 -18l-9 -12l-9 -18l-6 -11l-27 -58l-6 -19l-2 -14l55 3l25 -10l18 -18l26 -36l5 -15h4zM294 237v3l-3 2h-10l-9 -7l10 -4zM335 184l-5 7l-9 -9
l-8 -17l1 -9l-5 -6v-7l20 14v8l5 3z" />
    <glyph glyph-name="Adieresis" unicode="&#xc4;" horiz-adv-x="489" 
d="M468 475l-2 -12l-20 -17l-17 -2l-18 2l-9 18l-14 -3l-26 -17l-12 -13l-6 -12l-3 -4l-5 2h-2l-3 3v13l8 8l14 11l38 23l3 4h-11l-33 -20l-21 -18l-11 -12l-10 -18l-25 -1l-9 21l-5 5h-4l-9 -12l-5 -42v-25l2 -2v-5l-5 -2l-6 -7h-5l-3 3v11l-6 11l-19 42l-21 36l-7 2l-8 8
l-10 -2l-3 -3l-9 5l3 10l9 9v4h2l33 49v3l9 9l14 21h-10l-35 -30v-3l-8 -3l-39 -53l-8 -29l-3 -19v-2l-8 4l-3 5l7 25l-2 1l-7 -6l-14 -4l-17 -21l-15 -25l-7 -17l-2 -9h-1l-19 -88l5 -7v-2l1 -2l-1 -4l-29 18l-20 23h-3v-33l11 -63l6 -11l5 -6h16l3 4h9v-9l-18 -12l-14 1
l-9 8l-9 14l-3 24l-5 25l-7 72l1 5v6l9 3l13 -17l9 -13l19 -17l7 12l12 63l16 41l11 18l24 37l11 5l9 -2l6 -5l8 12l10 20l39 44l35 35v4l8 6l-4 5l5 8l16 -4l10 -4l18 -5l19 -14l11 -12l-2 -16l-10 -8l-9 -6l-16 -3l-11 3l-14 20l-8 -8l-3 -6l-17 -20l-27 -44v-4l3 -1l3 3
l12 -2h20l28 -3l7 2h5l11 -9l8 -4l11 -9l9 -8v-4l9 -9l14 21l31 29l32 18l18 6l5 4l2 1v4h34l20 -10l9 -11zM353 248l-3 -18l-9 -9h-5l2 9v12l-4 8v5l5 5l11 -1zM320 220l-3 -11l-18 -12l-26 -13h-8l-1 7v6l5 3h10l11 6l7 1l11 9l-11 5l-28 -4l-5 -2v8l17 7l23 2l9 -4l5 -3z
M380 299l-2 -84l-7 -17l-5 -7l-11 -9l-12 4v2l-2 2h-5l-22 -52l-17 -31l-18 -25l-3 -14l-14 -3l-27 -16l-26 -8l-41 3l-17 8l-36 27l-22 26l-22 35l-10 25l-7 19l3 4l6 -2l5 -9l6 -15l28 -52l22 -26l5 -2l18 -16l26 -12l29 -4l26 7l14 9l13 9v5l9 9l6 2l16 21l9 16l5 7
l13 28v5h1l6 23l-2 9v4h32v-2l2 -2l6 4l8 21l3 34l-3 31v10l-2 3l-14 -24v-9l-16 -5l-2 2h-5l-9 -12l-4 -4l-15 2l-13 14v18l4 3l18 9l12 -2l9 -9l5 23v46l-9 27l-7 10v9l4 1l9 -1l10 -21l2 -16l4 -14v-44l1 -2l5 7l5 27l4 3l2 2h5v-2l2 -2h5zM204 264l-2 -11l-11 -9
l-20 -12l-27 2l-11 8l-4 9l-3 16l2 27l4 3h3l-3 -19l3 -19l14 -17h19l18 11l7 7v7l-12 21l-9 9h-14l-11 -9h-3l2 12l8 9l8 2l14 -3l8 -9l7 -7l7 -13zM281 144l-3 -6l-9 -1l-7 5h-3l-9 -10l-15 -14l-20 -6l-22 7l-17 23v11l-13 5l-3 4l5 3l44 -9l35 -3l4 6h7l1 -5l18 -1l4 -6
zM36 216l-5 -5h-14l-7 9l-4 10v20l-1 1l5 9l11 -1v-9l-4 -11l4 -13zM452 473l-8 12l-25 5v-2h1l4 -8v-19l11 -2l14 7zM276 549l-6 10l-17 14l-21 6l-2 -7l11 1l10 -8v-11l-3 -3l5 -9l3 -4l11 2zM237 383v14l-3 -10zM314 273v5l-5 5l-5 -7h-4v-3l6 -6h3zM239 140l-2 2l-33 2
l-14 5v-5l8 -12l11 -4l12 -2l14 7z" />
    <glyph glyph-name="Aring" unicode="&#xc5;" horiz-adv-x="325" 
d="M312 187l-5 -12l-5 -7l-19 -9l-3 -35l3 -2l-4 -4l-2 -12l-12 -23l-13 -18l-14 -5l-14 -9h-49l-48 3l-27 10l-40 35l-10 13l-14 26l1 2l-7 8l-15 3l-25 26l-11 19l2 26l12 22l13 5l5 5l-4 5v11l-6 4l-6 5v1l2 3l-5 10v30l3 19l6 18l14 3v23l12 21l3 11l4 7l-2 12l-16 13
l-4 10l4 13l9 12l11 16l10 16l5 21l16 10v4l6 4l30 1l5 4l12 1h7l4 -6l16 -13l58 -26l33 -18v-4l23 -22v-5l5 -4l4 -9l15 -18l-1 -21v-25l4 -9l-3 -6h-1l-1 -2v-3l5 -4l3 -48v-16l-2 -1l4 -4l-8 -10l3 -13l1 -1l4 -13l-2 -16v-5l9 -7l9 -16l1 -28zM271 342l-1 2v7l-5 5l-7 2
l5 -12l7 -5zM265 377l-2 3l-2 10l4 39l-15 17l-3 11l-20 19l-3 9l-16 12l-35 18l-20 7v1l-20 6l-18 12v2h-11l-31 -9l-27 -42l-12 -21l-2 -12l7 -8l6 -5l3 -7l2 -19l-7 -9v-7l-6 -9l2 -2l-5 -12l16 5l72 5l111 -5l8 -6zM252 307v5l-2 20l-6 5v4l-6 -14v-22l7 -2zM210 369
l-10 3l-4 -3l7 -14l2 1zM171 363v13h-9zM189 327v6h-2v-6h2zM259 258l-5 7l-5 1l-5 -1l1 -9l11 -2zM296 180v6l-2 24l-5 7l-1 -42zM164 324l-3 17l-4 5l-4 -28l4 -9h4l1 2zM142 369v8h-47l-14 -3l-1 -2l5 -5v-4l13 2l10 -5v-5l7 -11l5 18l9 14zM129 307l-2 20v-18zM103 316
l-4 7l-1 1v8l-3 -5v-22l3 2h2zM62 369h-7l-9 -4l2 -51l2 2v7l4 4v6l6 22v5l-1 2zM71 302l-2 12l-2 10l-5 -24h5zM18 347v6l-2 5l-1 2l-4 -2l-4 -17l8 -4v7zM30 294v11l-3 6l-2 -2v-16zM275 219v25h-5v-4l-2 -1l-23 -3l-18 18l-1 14l14 15l12 1l18 -10v9l-9 -3l-11 8h-15
l-16 3l-50 6l-33 -4l-46 -5h-16l-19 -8l-12 -6l-11 3l-3 -3h-9l1 -21l2 -3v-5l-2 -1h-9l-5 -4l-14 -18v-26l14 -18l25 -17l18 -5v-3l9 -26l15 -19l21 -14l8 -11l10 -5l34 -13l45 -1l35 7l17 11v5l1 2l5 1v4l9 9l6 17l1 14l4 32zM177 245l-6 -9l-9 -5l-10 -3l-21 3l-9 14
l2 21l12 13l7 1l25 -1l9 -16v-18zM235 166l-13 -5l-7 -5l-5 1v11l9 5l7 2h7l2 -4v-5zM197 171l-3 -3l-19 -2l-4 -4h-2l-3 4v2l11 7l10 2h7zM196 92l-4 -3h-9l-6 6l-20 -1l-1 -2l-4 2l17 9l14 1l6 -1l7 -5v-6zM48 186l-9 -6l-14 6l-2 5l-8 14l-4 12l4 2l14 -2l5 -8v-4l-2 -2
l5 -8l8 -4v-2zM162 258l-9 8h-3l-16 -7v-9l8 -6l11 -2l8 5z" />
    <glyph glyph-name="AE" unicode="&#xc6;" horiz-adv-x="366" 
d="M351 191l-2 -17l-11 -24h-3l-6 -10l-6 -2l-10 -7h-9l-32 -87l-2 -15l-5 -20l-51 -9l-39 9l-11 6h-22l-2 1h-4v4l-16 16l-28 24l-40 46l-4 7l-8 11l5 11l11 -4l1 -2l13 -24l12 -13v-4l46 -40l19 -14l16 -4l14 -6l14 -4l12 -5l41 1l8 13l25 51l8 25l11 30l3 12l-13 19
l-10 9l-4 9l-2 -2h-5l-10 5l-29 4l-42 -20l-30 -15h-4l-3 -6l-11 -3l-17 -15v9l14 13l5 2l30 18l29 15l14 5l6 6h4l11 10l17 -3l23 -11l13 -9l14 -13h1l2 1l-3 10l1 11l5 2l9 14v3l-1 3l3 2v13l-3 4h-6l-2 -2v-6l-17 -10l-19 1l-8 11v6h4l9 14l12 5l14 -2l2 -1h3v-4l2 -2
l6 7l3 9l-2 16l-7 14v7l-7 12v9l-5 5l-5 21l-8 13l-1 12l-7 9l-2 10l-7 11l-2 -8v-6l6 -3l1 -7l-7 -9l2 -16l-4 -3v-8l-12 -8l-12 1l-4 9l2 9l-3 11l-13 22l-8 11v3l-23 23l-11 7l-2 6l-17 8h-38l-15 -15l-16 3l-18 -12l-4 -7l-8 -9l-18 -30l-5 -16h-2l-5 -17l2 -25l3 -13
l6 -10l8 -11h-8l-11 16l-2 5v4l-4 4l-3 -4l-3 -28l6 -26l3 -11v-5l-8 -4l4 -5l4 -9l-3 -5l-1 -2h-5l-13 16h-3l-7 -28l2 -32l5 -16l8 -12l11 -4h16l2 -5l-6 -9l-19 2l-21 17l-7 21l-2 53l4 4v9l9 16l7 5l5 -4l1 53l4 4l9 40l9 25l14 32l9 12l12 19l21 17l11 27l17 32l14 30
l7 18l9 10l9 20l32 45l12 18h10l9 -10l9 -57l6 -18l1 -12l4 -18l1 -15l13 -59l10 -24l15 -16l10 -30l10 -28l4 -18l23 -56l2 -13l5 -11l10 -11v-6h-1l-7 -10l-5 -20l13 -8zM182 224l-7 -10l-14 -9h-25l-7 5l-10 8l-5 15l5 21l3 4v1h4l3 -3l-3 -14v-14l10 -10h28l9 11l-1 16
l-11 11l-8 -3l-8 -6l-7 -9h-5l-2 2l5 13l11 9l11 5l14 -2l10 -12v-29zM255 145l-14 -2l-27 -5l-9 2l-2 1v4l29 9h19l4 -4v-5zM276 105l-4 -11l-5 -6l-9 -1h-3l-4 5h-57l-12 -4h-32v9l6 4l58 4h44l2 1zM242 55l-40 -2l-4 4v3l9 6l23 3l12 -1v-13zM36 161l-2 -2h-5l-11 9
l-14 25v8l9 8l9 -2l4 -25l10 -20v-1zM247 390v30l-3 23l-6 14l-10 54l-12 57l-2 2v6l-3 4l-3 13l-5 14l-1 1v6l-5 6l-17 -15l-12 -18l-9 -12l-9 -18l-6 -11l-27 -58l-6 -19l-2 -14l55 3l25 -10l18 -18l26 -36l5 -15h4zM294 237v3l-3 2h-10l-9 -7l10 -4zM335 184l-5 7l-9 -9
l-8 -17l1 -9l-5 -6v-7l20 14v8l5 3z" />
    <glyph glyph-name="Ccedilla" unicode="&#xc7;" horiz-adv-x="415" 
d="M381 359l-8 -5h-7l-4 -4l-14 -7l-16 -14l-5 2v7l14 14l11 4l14 8l15 -1v-4zM394 301l-15 -5l-17 -2l-8 -4l-8 4l2 4v5l18 5l26 -2l2 -1v-4zM398 237l-4 -3h-32l-5 7v4l7 5l25 -5l9 -5v-3zM253 281l-12 -11h-20l-3 5l-4 4l2 8l4 11l7 5l17 -2l5 -5l4 -9v-6zM235 234l-1 -8
l-21 -18l-5 2h-3v7l15 14l-9 5h-16l-1 -2h-6l-2 6l4 6l12 4l19 -2zM364 461l-2 -15l-22 -35l-20 -24l-19 -24l-8 -7l-1 -9l-5 -2l-5 -8l-11 -9h-4l-2 1l-7 -10h-3l-3 -4l-8 5l-1 8l-48 6l-48 -1l-35 -7l-33 -18l-7 -12l-13 -7l-6 3l-15 -24l4 -7v-4h-16v2l-2 2l-10 -6
l-22 -23l-3 -12l3 -16l13 -11h5l5 -5h20l5 5l2 -1h3l2 -13h7l7 -30l6 -17l6 -16l11 -16l24 -17l25 -9l55 2l26 9l34 19l23 26l7 16l7 28l-2 25l-7 16l-5 -4l-4 -7h-7l4 19l1 6l9 3l5 -1l13 -23v-53l-4 -3v-8l-17 -31l-39 -30l-9 -2l-9 -7l-12 -2l-6 -5l-44 -6l-33 6l-7 5
l-15 4l-27 26l-14 27v6l-3 4v10l-4 4l-2 25h-19l-28 4l-18 15l-3 11l1 23l14 17l15 11h3v67l8 17l4 16l11 28l12 16l11 11l19 5l11 6l29 10l35 -2h33l3 -3l33 14l31 8l10 8l23 3l3 3l38 6h6l2 2l18 -2l9 -3zM142 275l-3 -14l-13 -6l-9 4l-6 9v5l8 6v2l13 4h3zM248 167
l-16 -15l-18 -9l-24 -8l-20 4l-20 9l-13 9l-14 -2h-6l-3 7l7 5l29 7h6l16 5l14 3l30 8l22 11l5 -4l5 -5v-25zM350 447l-2 13l-2 1l-26 4l-16 -4l-21 -6l-26 -6l-43 -18l-18 -6l-10 -8v-1l2 -2l2 -14l-7 -9h-6l-3 3v8l-5 6l-14 -8v-9l-5 -5h-4l-4 3l-17 -16l-23 -23l-20 -22
l15 5l35 7l15 5h78l32 -8l3 -6l2 9l28 27l23 29l14 12l2 8l8 9l8 12zM126 422v3h-9v-3h9zM239 287l-1 2v1h-6v-6h3zM114 374l-2 1l-5 -5l1 -1zM235 178h-5l-10 -4l3 -10h6l1 2zM209 157l-7 12l-6 2l-6 -4l5 -14h10zM176 155l-4 7l-5 2l-7 -4h1l6 -5h9zM28 270v5h-2v-7z" />
    <glyph glyph-name="Eacute" unicode="&#xc9;" horiz-adv-x="426" 
d="M391 378l-6 -7l-2 -20v-13l4 -9l1 -13v-72l-3 -16l-5 -16l2 -5h-11v20l7 14v74l-7 15l2 49l7 8h11v-9zM188 385l-2 -14l-7 -6h-7l-18 39l-15 83l-4 13l-4 3l-8 -9l-2 -18l2 -56l12 -28l19 -18v-5l2 -1l-7 -4l-4 -5h-6l-30 33l-11 34l-5 47v19l-7 8h-9l-9 -15v-45l11 -34
l19 -19l11 -5l1 -8l-9 -9l-12 4l-18 19l-6 18l-9 23l-2 2l-2 -9l5 -19l9 -18l5 -7l-1 -9v-1l-9 -4l-26 15l-18 18l1 11l8 1h5l9 -15l7 -4l1 2l-3 4v16l-3 54l-2 7v5l5 4h11l5 10l1 11l18 12h15l10 -12l5 -16h2l9 24l7 9l5 6l11 -2l7 -9l3 -53l9 -47l14 -30h11zM368 154
l-2 -12l-13 -11h-5l-7 9l-51 4l-30 -4l-18 -45l-17 -25l-9 -5l-10 -3l-6 -5l-16 8l-42 6l-38 9l-9 6l-11 1l-5 5l-8 3l-14 15l-12 26l-5 43l2 1h5l4 -8l3 -28l7 -22l19 -21l15 -3l14 -7h10l5 -5l32 -6l3 -3l50 -2l14 11l14 24l10 25l-6 5h-60v2l-4 2h-5l-2 -2l-8 -3h-13
l-1 1v4l44 14l38 17l6 5l20 3l4 5l2 72l2 11v5l-2 1l-9 -10l-11 -7h-17l-5 3l-4 9l2 8l12 10l12 4h13v-3l7 -6l2 1l-8 14l2 11l6 4v14l-9 19h-2l-6 9l8 16l12 3h4l12 12l21 24l11 24v29l-11 24l-21 17l-18 9h-1v-12l7 -11l5 -22v-34l-18 -32l-14 -16l-21 -19h-5l-4 7v6l7 5
v3l12 9l18 19l9 16l4 22v17l-9 16l-27 21l-8 1v-10l3 -3l2 -16l3 -21l-1 -38l-15 -19l-15 -12l-2 2v5l17 19l6 11v46l-2 7l-7 24l-7 11h-14l-5 5l-2 4v5l8 5l11 -1l12 -7l11 10l4 2l15 -7l39 -13l19 -11l20 -24l7 -23v-19l-5 -17l-11 -22l-14 -16l-12 -12l9 -8l-4 -17
l-7 -12l-3 -32v-17l-8 -9l13 -10l12 -6l11 -14l-2 -15l-12 -18l-9 -9l-9 -7l-4 -4l-1 -14l-4 -4l5 -6l-1 -2l3 -4h12l25 -3l32 -2l9 9h7zM223 197l-5 -6h-6l-3 6l-2 1l5 5h4zM148 277l-6 -12l-9 -7l-9 4l-3 7h-7l-4 3v5l18 11l16 -3zM206 202l-31 -4l-1 2h-4l4 9l15 3h9
l8 -5v-5zM82 233l-21 -12l-7 4l-2 5v2l-9 4h-5l4 11l3 4l-7 7l-7 -3l-5 -6v-13l9 -15v-5h-6l-12 20l1 19l13 16l-4 1l-5 5v11h-18l-6 -12v-51l6 -22l6 -10l7 -5l12 1v-14h-11l-6 5l-13 18l-5 18l-3 17l1 44l16 20l-5 27l4 19l-3 16l6 6h7l4 -5v-7l-3 -2h9l6 4l21 2l2 2l4 -4
l-6 -5l-14 -4l-14 -7h12l19 7h4l4 -3l-13 -9l-14 -4l-14 -10h18l3 1h6l3 -6l-2 -2v-6l2 -1l2 -6v-5l-13 -13v-1l13 -4v-3l10 -5l-1 -7l-14 -7l-3 -2v-2h25v-5l-3 -4l7 -1h5v-8zM114 438l-2 18h-2l2 -18h2zM290 249l-4 4h-1l-13 2l2 -39l14 14zM244 276v5h-3l-9 -5v-4l1 -1h4
l2 1zM294 156v2h-8v-2h8zM237 156v3l-1 6h-4l-7 -4l-19 -7l1 -1z" />
    <glyph glyph-name="Eth" unicode="&#xd0;" horiz-adv-x="325" 
d="M312 187l-5 -12l-5 -7l-19 -9l-3 -35l3 -2l-4 -4l-2 -12l-12 -23l-13 -18l-14 -5l-14 -9h-49l-48 3l-27 10l-40 35l-10 13l-14 26l1 2l-7 8l-15 3l-25 26l-11 19l2 26l12 22l13 5l5 5l-4 5v11l-6 4l-6 5v1l2 3l-5 10v30l3 19l6 18l14 3v23l12 21l3 11l4 7l-2 12l-16 13
l-4 10l4 13l9 12l11 16l10 16l5 21l16 10v4l6 4l30 1l5 4l12 1h7l4 -6l16 -13l58 -26l33 -18v-4l23 -22v-5l5 -4l4 -9l15 -18l-1 -21v-25l4 -9l-3 -6h-1l-1 -2v-3l5 -4l3 -48v-16l-2 -1l4 -4l-8 -10l3 -13l1 -1l4 -13l-2 -16v-5l9 -7l9 -16l1 -28zM271 342l-1 2v7l-5 5l-7 2
l5 -12l7 -5zM265 377l-2 3l-2 10l4 39l-15 17l-3 11l-20 19l-3 9l-16 12l-35 18l-20 7v1l-20 6l-18 12v2h-11l-31 -9l-27 -42l-12 -21l-2 -12l7 -8l6 -5l3 -7l2 -19l-7 -9v-7l-6 -9l2 -2l-5 -12l16 5l72 5l111 -5l8 -6zM252 307v5l-2 20l-6 5v4l-6 -14v-22l7 -2zM210 369
l-10 3l-4 -3l7 -14l2 1zM171 363v13h-9zM189 327v6h-2v-6h2zM259 258l-5 7l-5 1l-5 -1l1 -9l11 -2zM296 180v6l-2 24l-5 7l-1 -42zM164 324l-3 17l-4 5l-4 -28l4 -9h4l1 2zM142 369v8h-47l-14 -3l-1 -2l5 -5v-4l13 2l10 -5v-5l7 -11l5 18l9 14zM129 307l-2 20v-18zM103 316
l-4 7l-1 1v8l-3 -5v-22l3 2h2zM62 369h-7l-9 -4l2 -51l2 2v7l4 4v6l6 22v5l-1 2zM71 302l-2 12l-2 10l-5 -24h5zM18 347v6l-2 5l-1 2l-4 -2l-4 -17l8 -4v7zM30 294v11l-3 6l-2 -2v-16zM275 219v25h-5v-4l-2 -1l-23 -3l-18 18l-1 14l14 15l12 1l18 -10v9l-9 -3l-11 8h-15
l-16 3l-50 6l-33 -4l-46 -5h-16l-19 -8l-12 -6l-11 3l-3 -3h-9l1 -21l2 -3v-5l-2 -1h-9l-5 -4l-14 -18v-26l14 -18l25 -17l18 -5v-3l9 -26l15 -19l21 -14l8 -11l10 -5l34 -13l45 -1l35 7l17 11v5l1 2l5 1v4l9 9l6 17l1 14l4 32zM177 245l-6 -9l-9 -5l-10 -3l-21 3l-9 14
l2 21l12 13l7 1l25 -1l9 -16v-18zM235 166l-13 -5l-7 -5l-5 1v11l9 5l7 2h7l2 -4v-5zM197 171l-3 -3l-19 -2l-4 -4h-2l-3 4v2l11 7l10 2h7zM196 92l-4 -3h-9l-6 6l-20 -1l-1 -2l-4 2l17 9l14 1l6 -1l7 -5v-6zM48 186l-9 -6l-14 6l-2 5l-8 14l-4 12l4 2l14 -2l5 -8v-4l-2 -2
l5 -8l8 -4v-2zM162 258l-9 8h-3l-16 -7v-9l8 -6l11 -2l8 5z" />
    <glyph glyph-name="Ntilde" unicode="&#xd1;" horiz-adv-x="459" 
d="M146 568l23 -6l14 -7h5l3 -5l14 -5l6 -5l14 -8l51 -39l17 -19l11 -17l9 -20l7 -9l-5 -47l-5 -72l5 -48l3 -5l-5 -14l-11 -13l-3 -12l-6 -10l-15 -39l-11 -19l-3 -11l-4 -3l7 -4v-9l-9 -7l-1 2h-4l-4 -16l-11 -14l-8 -20l-1 -9l-6 -3l-5 2h-4l-3 9l2 5v3h3l6 8l5 10l-14 7
l-57 6l-12 5h-2l-1 -2l-16 16l-5 12v14l5 7l5 5l37 6l21 -4l47 -7l14 -8v-3l3 -1l8 10l2 7l7 9l2 9l-16 2l-51 3l-7 2h-6v16l14 4l4 7l23 9l11 6l15 -5l8 -10l10 -9v-2l2 -2l5 6l13 35v14l-16 7l-18 14v21l4 4l1 15l9 20l15 16l8 2l3 9v8l2 44l-7 9l-1 18l-8 12l-1 7l-44 44
l-8 1l-10 9l-12 9h-4l-7 7l-24 11l-23 8l-20 4l-33 -6l-13 -8l-10 -3l-26 -16l-35 -29l-27 -27l-6 -17l2 -1l-5 -9l-3 -86l1 -76l7 -60l4 -3v-2l-6 3l-5 18l-4 58l-3 73v91l18 26l35 34l18 14l9 3l6 8l23 10l7 7l27 12l4 6l17 -2zM396 379l-6 -5h-10l-5 -4v-3l-5 -3h-6v8
l6 7l9 9l10 5l7 -3v-11zM165 384l21 -5l22 -10l3 -22l2 -26l3 -19v-6l6 -5l-2 -10l-18 -14l-3 -6l-13 -10l-21 -9l-32 -5l-35 1l-16 5l-24 18l-4 11v4l5 5l13 -4l10 -18l16 -8l22 -4l41 4l8 5l12 3l9 11v3l1 3h-8l-7 -6l-16 -9l-30 -5l-27 7l-24 24l2 6l8 10l8 22l12 14
l14 14l30 -11l23 -16l14 -19h7l2 -2v25l-9 25l-7 10l-14 7h-102l-8 -3l-5 -9v-44l5 -23l-1 -2v-4l-9 -1h-4l-3 5v93l3 6l57 -6h63zM299 276h-7l-1 1h-4l-7 19l2 20l10 19l5 4v-62zM153 326l5 -6l2 -3h4v-3l5 -3l5 -18v-4l4 -3l-11 -9l-9 -1l-12 -6h-25l-18 12l-8 14v7l19 23
l6 4l10 1l20 -5h3zM426 320l-2 -8l-23 -3l-16 -7h-3l-3 7l1 5v2l4 4l17 1l9 4h7zM146 307l5 -9l-1 -14l-9 -8l-11 1l-10 12l-4 7l5 18l9 3l7 -1zM417 256v-9l-7 -4l-9 6l-19 2l-6 7l9 9l13 -2zM253 199l-39 2l-1 2l21 7l15 -5zM9 168l9 -30l24 -47l17 -15l61 -14l36 -5l27 1
l7 4l7 -2v-11l-6 -6h-45l-48 6l-7 4l-2 -1l-3 3l-39 5l-7 7v6l-17 26l-8 14l-21 57l-7 15l-5 9l3 4l9 -2zM223 141l6 -5l-46 4l-7 5l-21 -2l-4 -7l7 -12l6 -6l12 6l26 -4h23l5 -2h8l-4 -7h-16l-5 4l-53 3l-14 8l-11 15l12 9l4 2l48 -3z" />
    <glyph glyph-name="Odieresis" unicode="&#xd6;" 
d="M176 501v-7l3 -4v-6l25 -4l44 -11l44 -23h5l9 9l25 26v9l11 8h5v-22l-7 -22l-16 -52l2 -105l3 -6l7 9l6 19l2 13l9 2h5l8 -15l2 -35l-4 -3l-1 -23l-9 -33l-4 -11l-15 -7l-16 -2l-4 -41l-10 -31l-9 -23l-9 -21l-14 -21l-9 -6l-7 -1l-1 -2l-9 2l-9 7l-35 5l-6 -2l-10 5
l-32 5l-23 8h-16l-3 3h-9l-16 20l-6 3l-14 27l-10 30l-5 19l-2 2l-7 -7l-39 10l-14 7l-8 16l-6 20l2 113l5 1h4l6 -18l20 -27l4 5l3 26l11 62l3 5l6 25l8 14l6 6l5 6l14 2l19 9l6 5l14 3l8 8h18l4 3v26l-6 7v13l6 5l12 -1zM165 481l-1 -17l-11 -10l-10 3l7 11l9 24h3z
M256 451l24 -14l4 -6l10 -9l-5 -6l8 -12l8 -5l5 -12v-57l-2 -2v2l-7 7l-17 -3l-13 -18l-4 -14v-2l6 -5h7l7 10v8l18 1l3 4h-2v3h2v-26l-5 4l-12 -4l-4 -16l-2 -4v-5l9 -9l11 -1h5v-13l-10 -7l-4 -5v-9l9 -33h-13l-14 3l-5 43l-7 19l-2 16l-5 16h-16l-3 -6l3 -10l9 -22l9 -44
l-2 -14v-5h-7l-2 2l-7 -4h-5l-2 2l-7 -7v-4l5 -5h23l5 -5h9l7 13v1l-1 -1l-2 2l1 1l9 -9l18 -3l-9 -35l-5 -8l-23 4v5h7l7 7l-4 7l-3 4l-78 5l-10 6h-6l-5 -6v-12l9 -9l5 -12l9 -8l12 -1h44v-4l4 -3h7l7 7h7l4 -4h2l-8 -16l-12 -19l-33 1l-53 9l-54 16v2l-4 4h-9l-23 22
l-12 29v7l-5 11l-4 17l-7 9l-14 -4l-27 2l-17 7l-4 5l-7 22v88l14 -22l25 -33l2 2v3h1l2 2l-5 4l-7 12l5 10l2 16l8 57l4 9l-1 6l5 11v7l12 20l10 1l13 14l7 2l7 7l9 2l5 5h17l-11 -8v-8l5 -6h6l4 3l9 -7l32 4l11 8l1 18l4 2l44 -8zM319 432l-5 2v7l10 13l-2 -13zM204 349
l13 -26l-8 -7h-10l-5 21l-4 4v7l-5 6l-3 12l-4 3l-18 -3l-30 -14h-5l-5 8l9 6l15 3l6 3l10 6h8l1 1l10 4h13zM195 313l4 -13l4 -3l-6 -13l-3 -3l-30 2v3l-5 4v23l15 10h9zM183 295l-5 2v11l9 -9zM349 261l-5 -22l-4 -9l-5 -4h-4l-3 4v12l8 19v9l9 9l5 14v-32h-1zM206 189
l3 -3v-5l-5 -4h-31l-16 -7l-4 -3h-7l-2 8l13 9l19 3l11 4l14 -2h5zM209 140h-5v5h5v-5zM248 138v-5h-16v12l15 -2z" />
    <glyph glyph-name="multiply" unicode="&#xd7;" horiz-adv-x="426" 
d="M391 378l-6 -7l-2 -20v-13l4 -9l1 -13v-72l-3 -16l-5 -16l2 -5h-11v20l7 14v74l-7 15l2 49l7 8h11v-9zM188 385l-2 -14l-7 -6h-7l-18 39l-15 83l-4 13l-4 3l-8 -9l-2 -18l2 -56l12 -28l19 -18v-5l2 -1l-7 -4l-4 -5h-6l-30 33l-11 34l-5 47v19l-7 8h-9l-9 -15v-45l11 -34
l19 -19l11 -5l1 -8l-9 -9l-12 4l-18 19l-6 18l-9 23l-2 2l-2 -9l5 -19l9 -18l5 -7l-1 -9v-1l-9 -4l-26 15l-18 18l1 11l8 1h5l9 -15l7 -4l1 2l-3 4v16l-3 54l-2 7v5l5 4h11l5 10l1 11l18 12h15l10 -12l5 -16h2l9 24l7 9l5 6l11 -2l7 -9l3 -53l9 -47l14 -30h11zM368 154
l-2 -12l-13 -11h-5l-7 9l-51 4l-30 -4l-18 -45l-17 -25l-9 -5l-10 -3l-6 -5l-16 8l-42 6l-38 9l-9 6l-11 1l-5 5l-8 3l-14 15l-12 26l-5 43l2 1h5l4 -8l3 -28l7 -22l19 -21l15 -3l14 -7h10l5 -5l32 -6l3 -3l50 -2l14 11l14 24l10 25l-6 5h-60v2l-4 2h-5l-2 -2l-8 -3h-13
l-1 1v4l44 14l38 17l6 5l20 3l4 5l2 72l2 11v5l-2 1l-9 -10l-11 -7h-17l-5 3l-4 9l2 8l12 10l12 4h13v-3l7 -6l2 1l-8 14l2 11l6 4v14l-9 19h-2l-6 9l8 16l12 3h4l12 12l21 24l11 24v29l-11 24l-21 17l-18 9h-1v-12l7 -11l5 -22v-34l-18 -32l-14 -16l-21 -19h-5l-4 7v6l7 5
v3l12 9l18 19l9 16l4 22v17l-9 16l-27 21l-8 1v-10l3 -3l2 -16l3 -21l-1 -38l-15 -19l-15 -12l-2 2v5l17 19l6 11v46l-2 7l-7 24l-7 11h-14l-5 5l-2 4v5l8 5l11 -1l12 -7l11 10l4 2l15 -7l39 -13l19 -11l20 -24l7 -23v-19l-5 -17l-11 -22l-14 -16l-12 -12l9 -8l-4 -17
l-7 -12l-3 -32v-17l-8 -9l13 -10l12 -6l11 -14l-2 -15l-12 -18l-9 -9l-9 -7l-4 -4l-1 -14l-4 -4l5 -6l-1 -2l3 -4h12l25 -3l32 -2l9 9h7zM223 197l-5 -6h-6l-3 6l-2 1l5 5h4zM148 277l-6 -12l-9 -7l-9 4l-3 7h-7l-4 3v5l18 11l16 -3zM206 202l-31 -4l-1 2h-4l4 9l15 3h9
l8 -5v-5zM82 233l-21 -12l-7 4l-2 5v2l-9 4h-5l4 11l3 4l-7 7l-7 -3l-5 -6v-13l9 -15v-5h-6l-12 20l1 19l13 16l-4 1l-5 5v11h-18l-6 -12v-51l6 -22l6 -10l7 -5l12 1v-14h-11l-6 5l-13 18l-5 18l-3 17l1 44l16 20l-5 27l4 19l-3 16l6 6h7l4 -5v-7l-3 -2h9l6 4l21 2l2 2l4 -4
l-6 -5l-14 -4l-14 -7h12l19 7h4l4 -3l-13 -9l-14 -4l-14 -10h18l3 1h6l3 -6l-2 -2v-6l2 -1l2 -6v-5l-13 -13v-1l13 -4v-3l10 -5l-1 -7l-14 -7l-3 -2v-2h25v-5l-3 -4l7 -1h5v-8zM114 438l-2 18h-2l2 -18h2zM290 249l-4 4h-1l-13 2l2 -39l14 14zM244 276v5h-3l-9 -5v-4l1 -1h4
l2 1zM294 156v2h-8v-2h8zM237 156v3l-1 6h-4l-7 -4l-19 -7l1 -1z" />
    <glyph glyph-name="Oslash" unicode="&#xd8;" horiz-adv-x="362" 
d="M160 551l-1 -26l-2 -2l-7 4l-2 -39l2 -2h1l8 20l12 33v6l7 3l3 3l4 -1l7 -8l-6 -15l-6 -4l-4 -5l-5 -12l-5 -25v-5l1 -2l13 12l1 11l23 44l4 9l5 1l9 -10l-5 -35l-4 -9l-2 -14l-1 -9v-6l1 -1l23 47l4 14l7 4h3l6 -7v-11l-6 -11v-8l-3 -3v-9l-6 -11v-9l18 -10l18 -14
l8 -15l3 -9l6 -19l2 -19l9 -11l-2 -15l-3 -6v-12l5 -11l7 -12l17 -5l9 -9v-23l-10 -18l-10 -16l-4 -1l-7 -9l-11 -9l-5 -16l-2 -24l-9 -34l-3 -15v-3l16 -1l25 -2l5 -3l3 -4v-11l-35 -19v-10l-6 -8l-28 -3l-5 -4l4 -14v-3l-11 -11l-10 2v6l-23 20h-18l-6 -10v-32l-10 -7
l-5 2l-7 10l-2 11l-9 16l-12 16l-19 1h-4l-2 2l-9 -5l-53 2l-10 3l-4 4v8l11 14l-3 6l-5 -2l-34 14l-10 9l-13 9l-5 7l1 4l17 10l15 2h5l11 -9l4 16l14 -2l15 -7h2v21l-3 25l5 9h5l4 -29l8 -30l25 -15l14 -13l11 -3l14 -9l28 -5l37 1l9 4h8l15 9l12 3l12 28v8l4 3l13 92v33
l-3 2l-3 7l2 5l9 11l-5 10l-13 -12l-16 -3h-9l-7 9v8l-16 3v8l8 5h44l3 -4l3 4l-1 9l-7 21l3 5l-1 30l-9 19l-18 16l-14 4h-3l-3 -18v-5l-5 -6h-8l-13 18l-15 20l-3 5l-13 1h-2l-4 4l-3 -9l-5 -3h-6l-5 8v6l-14 2l-3 5l-8 -5l-17 -2h-5l-6 -6l-11 -2l-15 -15h-6l-12 -16
l-8 -22l-4 -4l-4 -21l-3 -18v-42l-2 -2l7 -4l3 -5v-5l-5 -4l-12 2v4l-7 5l-3 3l-8 -3l-4 -3l-2 -39l2 -4l3 -26l3 -4v-6l11 -17l19 -3v-7l-5 -4h-6l-13 7l-9 13l-8 21l-1 61l-7 8l2 5v4l5 3l5 14l18 3l1 30l15 49l15 34v9l4 4l5 3h16l2 2l7 1l18 13l3 33l3 16v25l2 1v4h14
l4 -5l1 -28l4 -7l2 -2l5 37v4l-2 1l9 5l11 -3zM127 484l4 -3h1v-7h-1v5l-4 4h-7l-2 24l7 -14zM194 488l1 2l-1 -14v12zM180 351l-2 -8l-5 -1l-6 -16l-10 -7h-21l-8 7l-3 7h-5l-4 -6h-5v8l11 8l9 8l28 10l16 -4zM155 336l-5 -3h-5l-3 5l4 5l5 -3zM319 269l-7 -8v-4l-13 -12
h-3l3 37v5l9 4l11 -2v-20zM32 263l2 -9v-6l5 -5h5l2 -5l-7 -9h-7l-7 9l-6 26l2 10l2 6h7zM245 273l-15 -18l-5 -1h-5v15l16 11h9v-7zM215 273v-4l-30 -12h-4l-5 12v5l25 3l2 1h10zM203 211l52 6h11v-13l-11 -5l-3 -21l-11 -6v-1l-12 -4l-16 2l-7 3l-5 -3l-32 2l-10 5l-13 18
l-5 12l-5 5l1 6l8 2l31 -4zM194 201l1 -12l-3 -4l-19 4l-9 6l3 8l22 -2h5zM238 189l-5 -4l-18 5v11l23 -2v-10zM39 125h-14l-12 9v2l-4 3l21 2l2 1l11 -10zM283 106l-10 -2h-7l9 5l14 -2zM101 93l-17 -6h-17l3 10l11 9l17 -4zM230 70l-10 11v3l13 3v-15zM173 67l-2 -2v-5
l-7 9l5 9h4v-11z" />
    <glyph glyph-name="Udieresis" unicode="&#xdc;" horiz-adv-x="366" 
d="M351 191l-2 -17l-11 -24h-3l-6 -10l-6 -2l-10 -7h-9l-32 -87l-2 -15l-5 -20l-51 -9l-39 9l-11 6h-22l-2 1h-4v4l-16 16l-28 24l-40 46l-4 7l-8 11l5 11l11 -4l1 -2l13 -24l12 -13v-4l46 -40l19 -14l16 -4l14 -6l14 -4l12 -5l41 1l8 13l25 51l8 25l11 30l3 12l-13 19
l-10 9l-4 9l-2 -2h-5l-10 5l-29 4l-42 -20l-30 -15h-4l-3 -6l-11 -3l-17 -15v9l14 13l5 2l30 18l29 15l14 5l6 6h4l11 10l17 -3l23 -11l13 -9l14 -13h1l2 1l-3 10l1 11l5 2l9 14v3l-1 3l3 2v13l-3 4h-6l-2 -2v-6l-17 -10l-19 1l-8 11v6h4l9 14l12 5l14 -2l2 -1h3v-4l2 -2
l6 7l3 9l-2 16l-7 14v7l-7 12v9l-5 5l-5 21l-8 13l-1 12l-7 9l-2 10l-7 11l-2 -8v-6l6 -3l1 -7l-7 -9l2 -16l-4 -3v-8l-12 -8l-12 1l-4 9l2 9l-3 11l-13 22l-8 11v3l-23 23l-11 7l-2 6l-17 8h-38l-15 -15l-16 3l-18 -12l-4 -7l-8 -9l-18 -30l-5 -16h-2l-5 -17l2 -25l3 -13
l6 -10l8 -11h-8l-11 16l-2 5v4l-4 4l-3 -4l-3 -28l6 -26l3 -11v-5l-8 -4l4 -5l4 -9l-3 -5l-1 -2h-5l-13 16h-3l-7 -28l2 -32l5 -16l8 -12l11 -4h16l2 -5l-6 -9l-19 2l-21 17l-7 21l-2 53l4 4v9l9 16l7 5l5 -4l1 53l4 4l9 40l9 25l14 32l9 12l12 19l21 17l11 27l17 32l14 30
l7 18l9 10l9 20l32 45l12 18h10l9 -10l9 -57l6 -18l1 -12l4 -18l1 -15l13 -59l10 -24l15 -16l10 -30l10 -28l4 -18l23 -56l2 -13l5 -11l10 -11v-6h-1l-7 -10l-5 -20l13 -8zM182 224l-7 -10l-14 -9h-25l-7 5l-10 8l-5 15l5 21l3 4v1h4l3 -3l-3 -14v-14l10 -10h28l9 11l-1 16
l-11 11l-8 -3l-8 -6l-7 -9h-5l-2 2l5 13l11 9l11 5l14 -2l10 -12v-29zM255 145l-14 -2l-27 -5l-9 2l-2 1v4l29 9h19l4 -4v-5zM276 105l-4 -11l-5 -6l-9 -1h-3l-4 5h-57l-12 -4h-32v9l6 4l58 4h44l2 1zM242 55l-40 -2l-4 4v3l9 6l23 3l12 -1v-13zM36 161l-2 -2h-5l-11 9
l-14 25v8l9 8l9 -2l4 -25l10 -20v-1zM247 390v30l-3 23l-6 14l-10 54l-12 57l-2 2v6l-3 4l-3 13l-5 14l-1 1v6l-5 6l-17 -15l-12 -18l-9 -12l-9 -18l-6 -11l-27 -58l-6 -19l-2 -14l55 3l25 -10l18 -18l26 -36l5 -15h4zM294 237v3l-3 2h-10l-9 -7l10 -4zM335 184l-5 7l-9 -9
l-8 -17l1 -9l-5 -6v-7l20 14v8l5 3z" />
    <glyph glyph-name="Yacute" unicode="&#xdd;" horiz-adv-x="489" 
d="M468 475l-2 -12l-20 -17l-17 -2l-18 2l-9 18l-14 -3l-26 -17l-12 -13l-6 -12l-3 -4l-5 2h-2l-3 3v13l8 8l14 11l38 23l3 4h-11l-33 -20l-21 -18l-11 -12l-10 -18l-25 -1l-9 21l-5 5h-4l-9 -12l-5 -42v-25l2 -2v-5l-5 -2l-6 -7h-5l-3 3v11l-6 11l-19 42l-21 36l-7 2l-8 8
l-10 -2l-3 -3l-9 5l3 10l9 9v4h2l33 49v3l9 9l14 21h-10l-35 -30v-3l-8 -3l-39 -53l-8 -29l-3 -19v-2l-8 4l-3 5l7 25l-2 1l-7 -6l-14 -4l-17 -21l-15 -25l-7 -17l-2 -9h-1l-19 -88l5 -7v-2l1 -2l-1 -4l-29 18l-20 23h-3v-33l11 -63l6 -11l5 -6h16l3 4h9v-9l-18 -12l-14 1
l-9 8l-9 14l-3 24l-5 25l-7 72l1 5v6l9 3l13 -17l9 -13l19 -17l7 12l12 63l16 41l11 18l24 37l11 5l9 -2l6 -5l8 12l10 20l39 44l35 35v4l8 6l-4 5l5 8l16 -4l10 -4l18 -5l19 -14l11 -12l-2 -16l-10 -8l-9 -6l-16 -3l-11 3l-14 20l-8 -8l-3 -6l-17 -20l-27 -44v-4l3 -1l3 3
l12 -2h20l28 -3l7 2h5l11 -9l8 -4l11 -9l9 -8v-4l9 -9l14 21l31 29l32 18l18 6l5 4l2 1v4h34l20 -10l9 -11zM353 248l-3 -18l-9 -9h-5l2 9v12l-4 8v5l5 5l11 -1zM320 220l-3 -11l-18 -12l-26 -13h-8l-1 7v6l5 3h10l11 6l7 1l11 9l-11 5l-28 -4l-5 -2v8l17 7l23 2l9 -4l5 -3z
M380 299l-2 -84l-7 -17l-5 -7l-11 -9l-12 4v2l-2 2h-5l-22 -52l-17 -31l-18 -25l-3 -14l-14 -3l-27 -16l-26 -8l-41 3l-17 8l-36 27l-22 26l-22 35l-10 25l-7 19l3 4l6 -2l5 -9l6 -15l28 -52l22 -26l5 -2l18 -16l26 -12l29 -4l26 7l14 9l13 9v5l9 9l6 2l16 21l9 16l5 7
l13 28v5h1l6 23l-2 9v4h32v-2l2 -2l6 4l8 21l3 34l-3 31v10l-2 3l-14 -24v-9l-16 -5l-2 2h-5l-9 -12l-4 -4l-15 2l-13 14v18l4 3l18 9l12 -2l9 -9l5 23v46l-9 27l-7 10v9l4 1l9 -1l10 -21l2 -16l4 -14v-44l1 -2l5 7l5 27l4 3l2 2h5v-2l2 -2h5zM204 264l-2 -11l-11 -9
l-20 -12l-27 2l-11 8l-4 9l-3 16l2 27l4 3h3l-3 -19l3 -19l14 -17h19l18 11l7 7v7l-12 21l-9 9h-14l-11 -9h-3l2 12l8 9l8 2l14 -3l8 -9l7 -7l7 -13zM281 144l-3 -6l-9 -1l-7 5h-3l-9 -10l-15 -14l-20 -6l-22 7l-17 23v11l-13 5l-3 4l5 3l44 -9l35 -3l4 6h7l1 -5l18 -1l4 -6
zM36 216l-5 -5h-14l-7 9l-4 10v20l-1 1l5 9l11 -1v-9l-4 -11l4 -13zM452 473l-8 12l-25 5v-2h1l4 -8v-19l11 -2l14 7zM276 549l-6 10l-17 14l-21 6l-2 -7l11 1l10 -8v-11l-3 -3l5 -9l3 -4l11 2zM237 383v14l-3 -10zM314 273v5l-5 5l-5 -7h-4v-3l6 -6h3zM239 140l-2 2l-33 2
l-14 5v-5l8 -12l11 -4l12 -2l14 7z" />
    <glyph glyph-name="Thorn" unicode="&#xde;" horiz-adv-x="362" 
d="M160 551l-1 -26l-2 -2l-7 4l-2 -39l2 -2h1l8 20l12 33v6l7 3l3 3l4 -1l7 -8l-6 -15l-6 -4l-4 -5l-5 -12l-5 -25v-5l1 -2l13 12l1 11l23 44l4 9l5 1l9 -10l-5 -35l-4 -9l-2 -14l-1 -9v-6l1 -1l23 47l4 14l7 4h3l6 -7v-11l-6 -11v-8l-3 -3v-9l-6 -11v-9l18 -10l18 -14
l8 -15l3 -9l6 -19l2 -19l9 -11l-2 -15l-3 -6v-12l5 -11l7 -12l17 -5l9 -9v-23l-10 -18l-10 -16l-4 -1l-7 -9l-11 -9l-5 -16l-2 -24l-9 -34l-3 -15v-3l16 -1l25 -2l5 -3l3 -4v-11l-35 -19v-10l-6 -8l-28 -3l-5 -4l4 -14v-3l-11 -11l-10 2v6l-23 20h-18l-6 -10v-32l-10 -7
l-5 2l-7 10l-2 11l-9 16l-12 16l-19 1h-4l-2 2l-9 -5l-53 2l-10 3l-4 4v8l11 14l-3 6l-5 -2l-34 14l-10 9l-13 9l-5 7l1 4l17 10l15 2h5l11 -9l4 16l14 -2l15 -7h2v21l-3 25l5 9h5l4 -29l8 -30l25 -15l14 -13l11 -3l14 -9l28 -5l37 1l9 4h8l15 9l12 3l12 28v8l4 3l13 92v33
l-3 2l-3 7l2 5l9 11l-5 10l-13 -12l-16 -3h-9l-7 9v8l-16 3v8l8 5h44l3 -4l3 4l-1 9l-7 21l3 5l-1 30l-9 19l-18 16l-14 4h-3l-3 -18v-5l-5 -6h-8l-13 18l-15 20l-3 5l-13 1h-2l-4 4l-3 -9l-5 -3h-6l-5 8v6l-14 2l-3 5l-8 -5l-17 -2h-5l-6 -6l-11 -2l-15 -15h-6l-12 -16
l-8 -22l-4 -4l-4 -21l-3 -18v-42l-2 -2l7 -4l3 -5v-5l-5 -4l-12 2v4l-7 5l-3 3l-8 -3l-4 -3l-2 -39l2 -4l3 -26l3 -4v-6l11 -17l19 -3v-7l-5 -4h-6l-13 7l-9 13l-8 21l-1 61l-7 8l2 5v4l5 3l5 14l18 3l1 30l15 49l15 34v9l4 4l5 3h16l2 2l7 1l18 13l3 33l3 16v25l2 1v4h14
l4 -5l1 -28l4 -7l2 -2l5 37v4l-2 1l9 5l11 -3zM127 484l4 -3h1v-7h-1v5l-4 4h-7l-2 24l7 -14zM194 488l1 2l-1 -14v12zM180 351l-2 -8l-5 -1l-6 -16l-10 -7h-21l-8 7l-3 7h-5l-4 -6h-5v8l11 8l9 8l28 10l16 -4zM155 336l-5 -3h-5l-3 5l4 5l5 -3zM319 269l-7 -8v-4l-13 -12
h-3l3 37v5l9 4l11 -2v-20zM32 263l2 -9v-6l5 -5h5l2 -5l-7 -9h-7l-7 9l-6 26l2 10l2 6h7zM245 273l-15 -18l-5 -1h-5v15l16 11h9v-7zM215 273v-4l-30 -12h-4l-5 12v5l25 3l2 1h10zM203 211l52 6h11v-13l-11 -5l-3 -21l-11 -6v-1l-12 -4l-16 2l-7 3l-5 -3l-32 2l-10 5l-13 18
l-5 12l-5 5l1 6l8 2l31 -4zM194 201l1 -12l-3 -4l-19 4l-9 6l3 8l22 -2h5zM238 189l-5 -4l-18 5v11l23 -2v-10zM39 125h-14l-12 9v2l-4 3l21 2l2 1l11 -10zM283 106l-10 -2h-7l9 5l14 -2zM101 93l-17 -6h-17l3 10l11 9l17 -4zM230 70l-10 11v3l13 3v-15zM173 67l-2 -2v-5
l-7 9l5 9h4v-11z" />
    <glyph glyph-name="germandbls" unicode="&#xdf;" horiz-adv-x="489" 
d="M468 475l-2 -12l-20 -17l-17 -2l-18 2l-9 18l-14 -3l-26 -17l-12 -13l-6 -12l-3 -4l-5 2h-2l-3 3v13l8 8l14 11l38 23l3 4h-11l-33 -20l-21 -18l-11 -12l-10 -18l-25 -1l-9 21l-5 5h-4l-9 -12l-5 -42v-25l2 -2v-5l-5 -2l-6 -7h-5l-3 3v11l-6 11l-19 42l-21 36l-7 2l-8 8
l-10 -2l-3 -3l-9 5l3 10l9 9v4h2l33 49v3l9 9l14 21h-10l-35 -30v-3l-8 -3l-39 -53l-8 -29l-3 -19v-2l-8 4l-3 5l7 25l-2 1l-7 -6l-14 -4l-17 -21l-15 -25l-7 -17l-2 -9h-1l-19 -88l5 -7v-2l1 -2l-1 -4l-29 18l-20 23h-3v-33l11 -63l6 -11l5 -6h16l3 4h9v-9l-18 -12l-14 1
l-9 8l-9 14l-3 24l-5 25l-7 72l1 5v6l9 3l13 -17l9 -13l19 -17l7 12l12 63l16 41l11 18l24 37l11 5l9 -2l6 -5l8 12l10 20l39 44l35 35v4l8 6l-4 5l5 8l16 -4l10 -4l18 -5l19 -14l11 -12l-2 -16l-10 -8l-9 -6l-16 -3l-11 3l-14 20l-8 -8l-3 -6l-17 -20l-27 -44v-4l3 -1l3 3
l12 -2h20l28 -3l7 2h5l11 -9l8 -4l11 -9l9 -8v-4l9 -9l14 21l31 29l32 18l18 6l5 4l2 1v4h34l20 -10l9 -11zM353 248l-3 -18l-9 -9h-5l2 9v12l-4 8v5l5 5l11 -1zM320 220l-3 -11l-18 -12l-26 -13h-8l-1 7v6l5 3h10l11 6l7 1l11 9l-11 5l-28 -4l-5 -2v8l17 7l23 2l9 -4l5 -3z
M380 299l-2 -84l-7 -17l-5 -7l-11 -9l-12 4v2l-2 2h-5l-22 -52l-17 -31l-18 -25l-3 -14l-14 -3l-27 -16l-26 -8l-41 3l-17 8l-36 27l-22 26l-22 35l-10 25l-7 19l3 4l6 -2l5 -9l6 -15l28 -52l22 -26l5 -2l18 -16l26 -12l29 -4l26 7l14 9l13 9v5l9 9l6 2l16 21l9 16l5 7
l13 28v5h1l6 23l-2 9v4h32v-2l2 -2l6 4l8 21l3 34l-3 31v10l-2 3l-14 -24v-9l-16 -5l-2 2h-5l-9 -12l-4 -4l-15 2l-13 14v18l4 3l18 9l12 -2l9 -9l5 23v46l-9 27l-7 10v9l4 1l9 -1l10 -21l2 -16l4 -14v-44l1 -2l5 7l5 27l4 3l2 2h5v-2l2 -2h5zM204 264l-2 -11l-11 -9
l-20 -12l-27 2l-11 8l-4 9l-3 16l2 27l4 3h3l-3 -19l3 -19l14 -17h19l18 11l7 7v7l-12 21l-9 9h-14l-11 -9h-3l2 12l8 9l8 2l14 -3l8 -9l7 -7l7 -13zM281 144l-3 -6l-9 -1l-7 5h-3l-9 -10l-15 -14l-20 -6l-22 7l-17 23v11l-13 5l-3 4l5 3l44 -9l35 -3l4 6h7l1 -5l18 -1l4 -6
zM36 216l-5 -5h-14l-7 9l-4 10v20l-1 1l5 9l11 -1v-9l-4 -11l4 -13zM452 473l-8 12l-25 5v-2h1l4 -8v-19l11 -2l14 7zM276 549l-6 10l-17 14l-21 6l-2 -7l11 1l10 -8v-11l-3 -3l5 -9l3 -4l11 2zM237 383v14l-3 -10zM314 273v5l-5 5l-5 -7h-4v-3l6 -6h3zM239 140l-2 2l-33 2
l-14 5v-5l8 -12l11 -4l12 -2l14 7z" />
    <glyph glyph-name="agrave" unicode="&#xe0;" horiz-adv-x="489" 
d="M468 475l-2 -12l-20 -17l-17 -2l-18 2l-9 18l-14 -3l-26 -17l-12 -13l-6 -12l-3 -4l-5 2h-2l-3 3v13l8 8l14 11l38 23l3 4h-11l-33 -20l-21 -18l-11 -12l-10 -18l-25 -1l-9 21l-5 5h-4l-9 -12l-5 -42v-25l2 -2v-5l-5 -2l-6 -7h-5l-3 3v11l-6 11l-19 42l-21 36l-7 2l-8 8
l-10 -2l-3 -3l-9 5l3 10l9 9v4h2l33 49v3l9 9l14 21h-10l-35 -30v-3l-8 -3l-39 -53l-8 -29l-3 -19v-2l-8 4l-3 5l7 25l-2 1l-7 -6l-14 -4l-17 -21l-15 -25l-7 -17l-2 -9h-1l-19 -88l5 -7v-2l1 -2l-1 -4l-29 18l-20 23h-3v-33l11 -63l6 -11l5 -6h16l3 4h9v-9l-18 -12l-14 1
l-9 8l-9 14l-3 24l-5 25l-7 72l1 5v6l9 3l13 -17l9 -13l19 -17l7 12l12 63l16 41l11 18l24 37l11 5l9 -2l6 -5l8 12l10 20l39 44l35 35v4l8 6l-4 5l5 8l16 -4l10 -4l18 -5l19 -14l11 -12l-2 -16l-10 -8l-9 -6l-16 -3l-11 3l-14 20l-8 -8l-3 -6l-17 -20l-27 -44v-4l3 -1l3 3
l12 -2h20l28 -3l7 2h5l11 -9l8 -4l11 -9l9 -8v-4l9 -9l14 21l31 29l32 18l18 6l5 4l2 1v4h34l20 -10l9 -11zM353 248l-3 -18l-9 -9h-5l2 9v12l-4 8v5l5 5l11 -1zM320 220l-3 -11l-18 -12l-26 -13h-8l-1 7v6l5 3h10l11 6l7 1l11 9l-11 5l-28 -4l-5 -2v8l17 7l23 2l9 -4l5 -3z
M380 299l-2 -84l-7 -17l-5 -7l-11 -9l-12 4v2l-2 2h-5l-22 -52l-17 -31l-18 -25l-3 -14l-14 -3l-27 -16l-26 -8l-41 3l-17 8l-36 27l-22 26l-22 35l-10 25l-7 19l3 4l6 -2l5 -9l6 -15l28 -52l22 -26l5 -2l18 -16l26 -12l29 -4l26 7l14 9l13 9v5l9 9l6 2l16 21l9 16l5 7
l13 28v5h1l6 23l-2 9v4h32v-2l2 -2l6 4l8 21l3 34l-3 31v10l-2 3l-14 -24v-9l-16 -5l-2 2h-5l-9 -12l-4 -4l-15 2l-13 14v18l4 3l18 9l12 -2l9 -9l5 23v46l-9 27l-7 10v9l4 1l9 -1l10 -21l2 -16l4 -14v-44l1 -2l5 7l5 27l4 3l2 2h5v-2l2 -2h5zM204 264l-2 -11l-11 -9
l-20 -12l-27 2l-11 8l-4 9l-3 16l2 27l4 3h3l-3 -19l3 -19l14 -17h19l18 11l7 7v7l-12 21l-9 9h-14l-11 -9h-3l2 12l8 9l8 2l14 -3l8 -9l7 -7l7 -13zM281 144l-3 -6l-9 -1l-7 5h-3l-9 -10l-15 -14l-20 -6l-22 7l-17 23v11l-13 5l-3 4l5 3l44 -9l35 -3l4 6h7l1 -5l18 -1l4 -6
zM36 216l-5 -5h-14l-7 9l-4 10v20l-1 1l5 9l11 -1v-9l-4 -11l4 -13zM452 473l-8 12l-25 5v-2h1l4 -8v-19l11 -2l14 7zM276 549l-6 10l-17 14l-21 6l-2 -7l11 1l10 -8v-11l-3 -3l5 -9l3 -4l11 2zM237 383v14l-3 -10zM314 273v5l-5 5l-5 -7h-4v-3l6 -6h3zM239 140l-2 2l-33 2
l-14 5v-5l8 -12l11 -4l12 -2l14 7z" />
    <glyph glyph-name="aacute" unicode="&#xe1;" horiz-adv-x="362" 
d="M160 551l-1 -26l-2 -2l-7 4l-2 -39l2 -2h1l8 20l12 33v6l7 3l3 3l4 -1l7 -8l-6 -15l-6 -4l-4 -5l-5 -12l-5 -25v-5l1 -2l13 12l1 11l23 44l4 9l5 1l9 -10l-5 -35l-4 -9l-2 -14l-1 -9v-6l1 -1l23 47l4 14l7 4h3l6 -7v-11l-6 -11v-8l-3 -3v-9l-6 -11v-9l18 -10l18 -14
l8 -15l3 -9l6 -19l2 -19l9 -11l-2 -15l-3 -6v-12l5 -11l7 -12l17 -5l9 -9v-23l-10 -18l-10 -16l-4 -1l-7 -9l-11 -9l-5 -16l-2 -24l-9 -34l-3 -15v-3l16 -1l25 -2l5 -3l3 -4v-11l-35 -19v-10l-6 -8l-28 -3l-5 -4l4 -14v-3l-11 -11l-10 2v6l-23 20h-18l-6 -10v-32l-10 -7
l-5 2l-7 10l-2 11l-9 16l-12 16l-19 1h-4l-2 2l-9 -5l-53 2l-10 3l-4 4v8l11 14l-3 6l-5 -2l-34 14l-10 9l-13 9l-5 7l1 4l17 10l15 2h5l11 -9l4 16l14 -2l15 -7h2v21l-3 25l5 9h5l4 -29l8 -30l25 -15l14 -13l11 -3l14 -9l28 -5l37 1l9 4h8l15 9l12 3l12 28v8l4 3l13 92v33
l-3 2l-3 7l2 5l9 11l-5 10l-13 -12l-16 -3h-9l-7 9v8l-16 3v8l8 5h44l3 -4l3 4l-1 9l-7 21l3 5l-1 30l-9 19l-18 16l-14 4h-3l-3 -18v-5l-5 -6h-8l-13 18l-15 20l-3 5l-13 1h-2l-4 4l-3 -9l-5 -3h-6l-5 8v6l-14 2l-3 5l-8 -5l-17 -2h-5l-6 -6l-11 -2l-15 -15h-6l-12 -16
l-8 -22l-4 -4l-4 -21l-3 -18v-42l-2 -2l7 -4l3 -5v-5l-5 -4l-12 2v4l-7 5l-3 3l-8 -3l-4 -3l-2 -39l2 -4l3 -26l3 -4v-6l11 -17l19 -3v-7l-5 -4h-6l-13 7l-9 13l-8 21l-1 61l-7 8l2 5v4l5 3l5 14l18 3l1 30l15 49l15 34v9l4 4l5 3h16l2 2l7 1l18 13l3 33l3 16v25l2 1v4h14
l4 -5l1 -28l4 -7l2 -2l5 37v4l-2 1l9 5l11 -3zM127 484l4 -3h1v-7h-1v5l-4 4h-7l-2 24l7 -14zM194 488l1 2l-1 -14v12zM180 351l-2 -8l-5 -1l-6 -16l-10 -7h-21l-8 7l-3 7h-5l-4 -6h-5v8l11 8l9 8l28 10l16 -4zM155 336l-5 -3h-5l-3 5l4 5l5 -3zM319 269l-7 -8v-4l-13 -12
h-3l3 37v5l9 4l11 -2v-20zM32 263l2 -9v-6l5 -5h5l2 -5l-7 -9h-7l-7 9l-6 26l2 10l2 6h7zM245 273l-15 -18l-5 -1h-5v15l16 11h9v-7zM215 273v-4l-30 -12h-4l-5 12v5l25 3l2 1h10zM203 211l52 6h11v-13l-11 -5l-3 -21l-11 -6v-1l-12 -4l-16 2l-7 3l-5 -3l-32 2l-10 5l-13 18
l-5 12l-5 5l1 6l8 2l31 -4zM194 201l1 -12l-3 -4l-19 4l-9 6l3 8l22 -2h5zM238 189l-5 -4l-18 5v11l23 -2v-10zM39 125h-14l-12 9v2l-4 3l21 2l2 1l11 -10zM283 106l-10 -2h-7l9 5l14 -2zM101 93l-17 -6h-17l3 10l11 9l17 -4zM230 70l-10 11v3l13 3v-15zM173 67l-2 -2v-5
l-7 9l5 9h4v-11z" />
    <glyph glyph-name="acircumflex" unicode="&#xe2;" horiz-adv-x="325" 
d="M312 187l-5 -12l-5 -7l-19 -9l-3 -35l3 -2l-4 -4l-2 -12l-12 -23l-13 -18l-14 -5l-14 -9h-49l-48 3l-27 10l-40 35l-10 13l-14 26l1 2l-7 8l-15 3l-25 26l-11 19l2 26l12 22l13 5l5 5l-4 5v11l-6 4l-6 5v1l2 3l-5 10v30l3 19l6 18l14 3v23l12 21l3 11l4 7l-2 12l-16 13
l-4 10l4 13l9 12l11 16l10 16l5 21l16 10v4l6 4l30 1l5 4l12 1h7l4 -6l16 -13l58 -26l33 -18v-4l23 -22v-5l5 -4l4 -9l15 -18l-1 -21v-25l4 -9l-3 -6h-1l-1 -2v-3l5 -4l3 -48v-16l-2 -1l4 -4l-8 -10l3 -13l1 -1l4 -13l-2 -16v-5l9 -7l9 -16l1 -28zM271 342l-1 2v7l-5 5l-7 2
l5 -12l7 -5zM265 377l-2 3l-2 10l4 39l-15 17l-3 11l-20 19l-3 9l-16 12l-35 18l-20 7v1l-20 6l-18 12v2h-11l-31 -9l-27 -42l-12 -21l-2 -12l7 -8l6 -5l3 -7l2 -19l-7 -9v-7l-6 -9l2 -2l-5 -12l16 5l72 5l111 -5l8 -6zM252 307v5l-2 20l-6 5v4l-6 -14v-22l7 -2zM210 369
l-10 3l-4 -3l7 -14l2 1zM171 363v13h-9zM189 327v6h-2v-6h2zM259 258l-5 7l-5 1l-5 -1l1 -9l11 -2zM296 180v6l-2 24l-5 7l-1 -42zM164 324l-3 17l-4 5l-4 -28l4 -9h4l1 2zM142 369v8h-47l-14 -3l-1 -2l5 -5v-4l13 2l10 -5v-5l7 -11l5 18l9 14zM129 307l-2 20v-18zM103 316
l-4 7l-1 1v8l-3 -5v-22l3 2h2zM62 369h-7l-9 -4l2 -51l2 2v7l4 4v6l6 22v5l-1 2zM71 302l-2 12l-2 10l-5 -24h5zM18 347v6l-2 5l-1 2l-4 -2l-4 -17l8 -4v7zM30 294v11l-3 6l-2 -2v-16zM275 219v25h-5v-4l-2 -1l-23 -3l-18 18l-1 14l14 15l12 1l18 -10v9l-9 -3l-11 8h-15
l-16 3l-50 6l-33 -4l-46 -5h-16l-19 -8l-12 -6l-11 3l-3 -3h-9l1 -21l2 -3v-5l-2 -1h-9l-5 -4l-14 -18v-26l14 -18l25 -17l18 -5v-3l9 -26l15 -19l21 -14l8 -11l10 -5l34 -13l45 -1l35 7l17 11v5l1 2l5 1v4l9 9l6 17l1 14l4 32zM177 245l-6 -9l-9 -5l-10 -3l-21 3l-9 14
l2 21l12 13l7 1l25 -1l9 -16v-18zM235 166l-13 -5l-7 -5l-5 1v11l9 5l7 2h7l2 -4v-5zM197 171l-3 -3l-19 -2l-4 -4h-2l-3 4v2l11 7l10 2h7zM196 92l-4 -3h-9l-6 6l-20 -1l-1 -2l-4 2l17 9l14 1l6 -1l7 -5v-6zM48 186l-9 -6l-14 6l-2 5l-8 14l-4 12l4 2l14 -2l5 -8v-4l-2 -2
l5 -8l8 -4v-2zM162 258l-9 8h-3l-16 -7v-9l8 -6l11 -2l8 5z" />
    <glyph glyph-name="atilde" unicode="&#xe3;" horiz-adv-x="459" 
d="M146 568l23 -6l14 -7h5l3 -5l14 -5l6 -5l14 -8l51 -39l17 -19l11 -17l9 -20l7 -9l-5 -47l-5 -72l5 -48l3 -5l-5 -14l-11 -13l-3 -12l-6 -10l-15 -39l-11 -19l-3 -11l-4 -3l7 -4v-9l-9 -7l-1 2h-4l-4 -16l-11 -14l-8 -20l-1 -9l-6 -3l-5 2h-4l-3 9l2 5v3h3l6 8l5 10l-14 7
l-57 6l-12 5h-2l-1 -2l-16 16l-5 12v14l5 7l5 5l37 6l21 -4l47 -7l14 -8v-3l3 -1l8 10l2 7l7 9l2 9l-16 2l-51 3l-7 2h-6v16l14 4l4 7l23 9l11 6l15 -5l8 -10l10 -9v-2l2 -2l5 6l13 35v14l-16 7l-18 14v21l4 4l1 15l9 20l15 16l8 2l3 9v8l2 44l-7 9l-1 18l-8 12l-1 7l-44 44
l-8 1l-10 9l-12 9h-4l-7 7l-24 11l-23 8l-20 4l-33 -6l-13 -8l-10 -3l-26 -16l-35 -29l-27 -27l-6 -17l2 -1l-5 -9l-3 -86l1 -76l7 -60l4 -3v-2l-6 3l-5 18l-4 58l-3 73v91l18 26l35 34l18 14l9 3l6 8l23 10l7 7l27 12l4 6l17 -2zM396 379l-6 -5h-10l-5 -4v-3l-5 -3h-6v8
l6 7l9 9l10 5l7 -3v-11zM165 384l21 -5l22 -10l3 -22l2 -26l3 -19v-6l6 -5l-2 -10l-18 -14l-3 -6l-13 -10l-21 -9l-32 -5l-35 1l-16 5l-24 18l-4 11v4l5 5l13 -4l10 -18l16 -8l22 -4l41 4l8 5l12 3l9 11v3l1 3h-8l-7 -6l-16 -9l-30 -5l-27 7l-24 24l2 6l8 10l8 22l12 14
l14 14l30 -11l23 -16l14 -19h7l2 -2v25l-9 25l-7 10l-14 7h-102l-8 -3l-5 -9v-44l5 -23l-1 -2v-4l-9 -1h-4l-3 5v93l3 6l57 -6h63zM299 276h-7l-1 1h-4l-7 19l2 20l10 19l5 4v-62zM153 326l5 -6l2 -3h4v-3l5 -3l5 -18v-4l4 -3l-11 -9l-9 -1l-12 -6h-25l-18 12l-8 14v7l19 23
l6 4l10 1l20 -5h3zM426 320l-2 -8l-23 -3l-16 -7h-3l-3 7l1 5v2l4 4l17 1l9 4h7zM146 307l5 -9l-1 -14l-9 -8l-11 1l-10 12l-4 7l5 18l9 3l7 -1zM417 256v-9l-7 -4l-9 6l-19 2l-6 7l9 9l13 -2zM253 199l-39 2l-1 2l21 7l15 -5zM9 168l9 -30l24 -47l17 -15l61 -14l36 -5l27 1
l7 4l7 -2v-11l-6 -6h-45l-48 6l-7 4l-2 -1l-3 3l-39 5l-7 7v6l-17 26l-8 14l-21 57l-7 15l-5 9l3 4l9 -2zM223 141l6 -5l-46 4l-7 5l-21 -2l-4 -7l7 -12l6 -6l12 6l26 -4h23l5 -2h8l-4 -7h-16l-5 4l-53 3l-14 8l-11 15l12 9l4 2l48 -3z" />
    <glyph glyph-name="adieresis" unicode="&#xe4;" horiz-adv-x="426" 
d="M391 378l-6 -7l-2 -20v-13l4 -9l1 -13v-72l-3 -16l-5 -16l2 -5h-11v20l7 14v74l-7 15l2 49l7 8h11v-9zM188 385l-2 -14l-7 -6h-7l-18 39l-15 83l-4 13l-4 3l-8 -9l-2 -18l2 -56l12 -28l19 -18v-5l2 -1l-7 -4l-4 -5h-6l-30 33l-11 34l-5 47v19l-7 8h-9l-9 -15v-45l11 -34
l19 -19l11 -5l1 -8l-9 -9l-12 4l-18 19l-6 18l-9 23l-2 2l-2 -9l5 -19l9 -18l5 -7l-1 -9v-1l-9 -4l-26 15l-18 18l1 11l8 1h5l9 -15l7 -4l1 2l-3 4v16l-3 54l-2 7v5l5 4h11l5 10l1 11l18 12h15l10 -12l5 -16h2l9 24l7 9l5 6l11 -2l7 -9l3 -53l9 -47l14 -30h11zM368 154
l-2 -12l-13 -11h-5l-7 9l-51 4l-30 -4l-18 -45l-17 -25l-9 -5l-10 -3l-6 -5l-16 8l-42 6l-38 9l-9 6l-11 1l-5 5l-8 3l-14 15l-12 26l-5 43l2 1h5l4 -8l3 -28l7 -22l19 -21l15 -3l14 -7h10l5 -5l32 -6l3 -3l50 -2l14 11l14 24l10 25l-6 5h-60v2l-4 2h-5l-2 -2l-8 -3h-13
l-1 1v4l44 14l38 17l6 5l20 3l4 5l2 72l2 11v5l-2 1l-9 -10l-11 -7h-17l-5 3l-4 9l2 8l12 10l12 4h13v-3l7 -6l2 1l-8 14l2 11l6 4v14l-9 19h-2l-6 9l8 16l12 3h4l12 12l21 24l11 24v29l-11 24l-21 17l-18 9h-1v-12l7 -11l5 -22v-34l-18 -32l-14 -16l-21 -19h-5l-4 7v6l7 5
v3l12 9l18 19l9 16l4 22v17l-9 16l-27 21l-8 1v-10l3 -3l2 -16l3 -21l-1 -38l-15 -19l-15 -12l-2 2v5l17 19l6 11v46l-2 7l-7 24l-7 11h-14l-5 5l-2 4v5l8 5l11 -1l12 -7l11 10l4 2l15 -7l39 -13l19 -11l20 -24l7 -23v-19l-5 -17l-11 -22l-14 -16l-12 -12l9 -8l-4 -17
l-7 -12l-3 -32v-17l-8 -9l13 -10l12 -6l11 -14l-2 -15l-12 -18l-9 -9l-9 -7l-4 -4l-1 -14l-4 -4l5 -6l-1 -2l3 -4h12l25 -3l32 -2l9 9h7zM223 197l-5 -6h-6l-3 6l-2 1l5 5h4zM148 277l-6 -12l-9 -7l-9 4l-3 7h-7l-4 3v5l18 11l16 -3zM206 202l-31 -4l-1 2h-4l4 9l15 3h9
l8 -5v-5zM82 233l-21 -12l-7 4l-2 5v2l-9 4h-5l4 11l3 4l-7 7l-7 -3l-5 -6v-13l9 -15v-5h-6l-12 20l1 19l13 16l-4 1l-5 5v11h-18l-6 -12v-51l6 -22l6 -10l7 -5l12 1v-14h-11l-6 5l-13 18l-5 18l-3 17l1 44l16 20l-5 27l4 19l-3 16l6 6h7l4 -5v-7l-3 -2h9l6 4l21 2l2 2l4 -4
l-6 -5l-14 -4l-14 -7h12l19 7h4l4 -3l-13 -9l-14 -4l-14 -10h18l3 1h6l3 -6l-2 -2v-6l2 -1l2 -6v-5l-13 -13v-1l13 -4v-3l10 -5l-1 -7l-14 -7l-3 -2v-2h25v-5l-3 -4l7 -1h5v-8zM114 438l-2 18h-2l2 -18h2zM290 249l-4 4h-1l-13 2l2 -39l14 14zM244 276v5h-3l-9 -5v-4l1 -1h4
l2 1zM294 156v2h-8v-2h8zM237 156v3l-1 6h-4l-7 -4l-19 -7l1 -1z" />
    <glyph glyph-name="aring" unicode="&#xe5;" 
d="M176 501v-7l3 -4v-6l25 -4l44 -11l44 -23h5l9 9l25 26v9l11 8h5v-22l-7 -22l-16 -52l2 -105l3 -6l7 9l6 19l2 13l9 2h5l8 -15l2 -35l-4 -3l-1 -23l-9 -33l-4 -11l-15 -7l-16 -2l-4 -41l-10 -31l-9 -23l-9 -21l-14 -21l-9 -6l-7 -1l-1 -2l-9 2l-9 7l-35 5l-6 -2l-10 5
l-32 5l-23 8h-16l-3 3h-9l-16 20l-6 3l-14 27l-10 30l-5 19l-2 2l-7 -7l-39 10l-14 7l-8 16l-6 20l2 113l5 1h4l6 -18l20 -27l4 5l3 26l11 62l3 5l6 25l8 14l6 6l5 6l14 2l19 9l6 5l14 3l8 8h18l4 3v26l-6 7v13l6 5l12 -1zM165 481l-1 -17l-11 -10l-10 3l7 11l9 24h3z
M256 451l24 -14l4 -6l10 -9l-5 -6l8 -12l8 -5l5 -12v-57l-2 -2v2l-7 7l-17 -3l-13 -18l-4 -14v-2l6 -5h7l7 10v8l18 1l3 4h-2v3h2v-26l-5 4l-12 -4l-4 -16l-2 -4v-5l9 -9l11 -1h5v-13l-10 -7l-4 -5v-9l9 -33h-13l-14 3l-5 43l-7 19l-2 16l-5 16h-16l-3 -6l3 -10l9 -22l9 -44
l-2 -14v-5h-7l-2 2l-7 -4h-5l-2 2l-7 -7v-4l5 -5h23l5 -5h9l7 13v1l-1 -1l-2 2l1 1l9 -9l18 -3l-9 -35l-5 -8l-23 4v5h7l7 7l-4 7l-3 4l-78 5l-10 6h-6l-5 -6v-12l9 -9l5 -12l9 -8l12 -1h44v-4l4 -3h7l7 7h7l4 -4h2l-8 -16l-12 -19l-33 1l-53 9l-54 16v2l-4 4h-9l-23 22
l-12 29v7l-5 11l-4 17l-7 9l-14 -4l-27 2l-17 7l-4 5l-7 22v88l14 -22l25 -33l2 2v3h1l2 2l-5 4l-7 12l5 10l2 16l8 57l4 9l-1 6l5 11v7l12 20l10 1l13 14l7 2l7 7l9 2l5 5h17l-11 -8v-8l5 -6h6l4 3l9 -7l32 4l11 8l1 18l4 2l44 -8zM319 432l-5 2v7l10 13l-2 -13zM204 349
l13 -26l-8 -7h-10l-5 21l-4 4v7l-5 6l-3 12l-4 3l-18 -3l-30 -14h-5l-5 8l9 6l15 3l6 3l10 6h8l1 1l10 4h13zM195 313l4 -13l4 -3l-6 -13l-3 -3l-30 2v3l-5 4v23l15 10h9zM183 295l-5 2v11l9 -9zM349 261l-5 -22l-4 -9l-5 -4h-4l-3 4v12l8 19v9l9 9l5 14v-32h-1zM206 189
l3 -3v-5l-5 -4h-31l-16 -7l-4 -3h-7l-2 8l13 9l19 3l11 4l14 -2h5zM209 140h-5v5h5v-5zM248 138v-5h-16v12l15 -2z" />
    <glyph glyph-name="ae" unicode="&#xe6;" horiz-adv-x="459" 
d="M146 568l23 -6l14 -7h5l3 -5l14 -5l6 -5l14 -8l51 -39l17 -19l11 -17l9 -20l7 -9l-5 -47l-5 -72l5 -48l3 -5l-5 -14l-11 -13l-3 -12l-6 -10l-15 -39l-11 -19l-3 -11l-4 -3l7 -4v-9l-9 -7l-1 2h-4l-4 -16l-11 -14l-8 -20l-1 -9l-6 -3l-5 2h-4l-3 9l2 5v3h3l6 8l5 10l-14 7
l-57 6l-12 5h-2l-1 -2l-16 16l-5 12v14l5 7l5 5l37 6l21 -4l47 -7l14 -8v-3l3 -1l8 10l2 7l7 9l2 9l-16 2l-51 3l-7 2h-6v16l14 4l4 7l23 9l11 6l15 -5l8 -10l10 -9v-2l2 -2l5 6l13 35v14l-16 7l-18 14v21l4 4l1 15l9 20l15 16l8 2l3 9v8l2 44l-7 9l-1 18l-8 12l-1 7l-44 44
l-8 1l-10 9l-12 9h-4l-7 7l-24 11l-23 8l-20 4l-33 -6l-13 -8l-10 -3l-26 -16l-35 -29l-27 -27l-6 -17l2 -1l-5 -9l-3 -86l1 -76l7 -60l4 -3v-2l-6 3l-5 18l-4 58l-3 73v91l18 26l35 34l18 14l9 3l6 8l23 10l7 7l27 12l4 6l17 -2zM396 379l-6 -5h-10l-5 -4v-3l-5 -3h-6v8
l6 7l9 9l10 5l7 -3v-11zM165 384l21 -5l22 -10l3 -22l2 -26l3 -19v-6l6 -5l-2 -10l-18 -14l-3 -6l-13 -10l-21 -9l-32 -5l-35 1l-16 5l-24 18l-4 11v4l5 5l13 -4l10 -18l16 -8l22 -4l41 4l8 5l12 3l9 11v3l1 3h-8l-7 -6l-16 -9l-30 -5l-27 7l-24 24l2 6l8 10l8 22l12 14
l14 14l30 -11l23 -16l14 -19h7l2 -2v25l-9 25l-7 10l-14 7h-102l-8 -3l-5 -9v-44l5 -23l-1 -2v-4l-9 -1h-4l-3 5v93l3 6l57 -6h63zM299 276h-7l-1 1h-4l-7 19l2 20l10 19l5 4v-62zM153 326l5 -6l2 -3h4v-3l5 -3l5 -18v-4l4 -3l-11 -9l-9 -1l-12 -6h-25l-18 12l-8 14v7l19 23
l6 4l10 1l20 -5h3zM426 320l-2 -8l-23 -3l-16 -7h-3l-3 7l1 5v2l4 4l17 1l9 4h7zM146 307l5 -9l-1 -14l-9 -8l-11 1l-10 12l-4 7l5 18l9 3l7 -1zM417 256v-9l-7 -4l-9 6l-19 2l-6 7l9 9l13 -2zM253 199l-39 2l-1 2l21 7l15 -5zM9 168l9 -30l24 -47l17 -15l61 -14l36 -5l27 1
l7 4l7 -2v-11l-6 -6h-45l-48 6l-7 4l-2 -1l-3 3l-39 5l-7 7v6l-17 26l-8 14l-21 57l-7 15l-5 9l3 4l9 -2zM223 141l6 -5l-46 4l-7 5l-21 -2l-4 -7l7 -12l6 -6l12 6l26 -4h23l5 -2h8l-4 -7h-16l-5 4l-53 3l-14 8l-11 15l12 9l4 2l48 -3z" />
    <glyph glyph-name="ccedilla" unicode="&#xe7;" horiz-adv-x="366" 
d="M351 191l-2 -17l-11 -24h-3l-6 -10l-6 -2l-10 -7h-9l-32 -87l-2 -15l-5 -20l-51 -9l-39 9l-11 6h-22l-2 1h-4v4l-16 16l-28 24l-40 46l-4 7l-8 11l5 11l11 -4l1 -2l13 -24l12 -13v-4l46 -40l19 -14l16 -4l14 -6l14 -4l12 -5l41 1l8 13l25 51l8 25l11 30l3 12l-13 19
l-10 9l-4 9l-2 -2h-5l-10 5l-29 4l-42 -20l-30 -15h-4l-3 -6l-11 -3l-17 -15v9l14 13l5 2l30 18l29 15l14 5l6 6h4l11 10l17 -3l23 -11l13 -9l14 -13h1l2 1l-3 10l1 11l5 2l9 14v3l-1 3l3 2v13l-3 4h-6l-2 -2v-6l-17 -10l-19 1l-8 11v6h4l9 14l12 5l14 -2l2 -1h3v-4l2 -2
l6 7l3 9l-2 16l-7 14v7l-7 12v9l-5 5l-5 21l-8 13l-1 12l-7 9l-2 10l-7 11l-2 -8v-6l6 -3l1 -7l-7 -9l2 -16l-4 -3v-8l-12 -8l-12 1l-4 9l2 9l-3 11l-13 22l-8 11v3l-23 23l-11 7l-2 6l-17 8h-38l-15 -15l-16 3l-18 -12l-4 -7l-8 -9l-18 -30l-5 -16h-2l-5 -17l2 -25l3 -13
l6 -10l8 -11h-8l-11 16l-2 5v4l-4 4l-3 -4l-3 -28l6 -26l3 -11v-5l-8 -4l4 -5l4 -9l-3 -5l-1 -2h-5l-13 16h-3l-7 -28l2 -32l5 -16l8 -12l11 -4h16l2 -5l-6 -9l-19 2l-21 17l-7 21l-2 53l4 4v9l9 16l7 5l5 -4l1 53l4 4l9 40l9 25l14 32l9 12l12 19l21 17l11 27l17 32l14 30
l7 18l9 10l9 20l32 45l12 18h10l9 -10l9 -57l6 -18l1 -12l4 -18l1 -15l13 -59l10 -24l15 -16l10 -30l10 -28l4 -18l23 -56l2 -13l5 -11l10 -11v-6h-1l-7 -10l-5 -20l13 -8zM182 224l-7 -10l-14 -9h-25l-7 5l-10 8l-5 15l5 21l3 4v1h4l3 -3l-3 -14v-14l10 -10h28l9 11l-1 16
l-11 11l-8 -3l-8 -6l-7 -9h-5l-2 2l5 13l11 9l11 5l14 -2l10 -12v-29zM255 145l-14 -2l-27 -5l-9 2l-2 1v4l29 9h19l4 -4v-5zM276 105l-4 -11l-5 -6l-9 -1h-3l-4 5h-57l-12 -4h-32v9l6 4l58 4h44l2 1zM242 55l-40 -2l-4 4v3l9 6l23 3l12 -1v-13zM36 161l-2 -2h-5l-11 9
l-14 25v8l9 8l9 -2l4 -25l10 -20v-1zM247 390v30l-3 23l-6 14l-10 54l-12 57l-2 2v6l-3 4l-3 13l-5 14l-1 1v6l-5 6l-17 -15l-12 -18l-9 -12l-9 -18l-6 -11l-27 -58l-6 -19l-2 -14l55 3l25 -10l18 -18l26 -36l5 -15h4zM294 237v3l-3 2h-10l-9 -7l10 -4zM335 184l-5 7l-9 -9
l-8 -17l1 -9l-5 -6v-7l20 14v8l5 3z" />
    <glyph glyph-name="egrave" unicode="&#xe8;" 
d="M176 501v-7l3 -4v-6l25 -4l44 -11l44 -23h5l9 9l25 26v9l11 8h5v-22l-7 -22l-16 -52l2 -105l3 -6l7 9l6 19l2 13l9 2h5l8 -15l2 -35l-4 -3l-1 -23l-9 -33l-4 -11l-15 -7l-16 -2l-4 -41l-10 -31l-9 -23l-9 -21l-14 -21l-9 -6l-7 -1l-1 -2l-9 2l-9 7l-35 5l-6 -2l-10 5
l-32 5l-23 8h-16l-3 3h-9l-16 20l-6 3l-14 27l-10 30l-5 19l-2 2l-7 -7l-39 10l-14 7l-8 16l-6 20l2 113l5 1h4l6 -18l20 -27l4 5l3 26l11 62l3 5l6 25l8 14l6 6l5 6l14 2l19 9l6 5l14 3l8 8h18l4 3v26l-6 7v13l6 5l12 -1zM165 481l-1 -17l-11 -10l-10 3l7 11l9 24h3z
M256 451l24 -14l4 -6l10 -9l-5 -6l8 -12l8 -5l5 -12v-57l-2 -2v2l-7 7l-17 -3l-13 -18l-4 -14v-2l6 -5h7l7 10v8l18 1l3 4h-2v3h2v-26l-5 4l-12 -4l-4 -16l-2 -4v-5l9 -9l11 -1h5v-13l-10 -7l-4 -5v-9l9 -33h-13l-14 3l-5 43l-7 19l-2 16l-5 16h-16l-3 -6l3 -10l9 -22l9 -44
l-2 -14v-5h-7l-2 2l-7 -4h-5l-2 2l-7 -7v-4l5 -5h23l5 -5h9l7 13v1l-1 -1l-2 2l1 1l9 -9l18 -3l-9 -35l-5 -8l-23 4v5h7l7 7l-4 7l-3 4l-78 5l-10 6h-6l-5 -6v-12l9 -9l5 -12l9 -8l12 -1h44v-4l4 -3h7l7 7h7l4 -4h2l-8 -16l-12 -19l-33 1l-53 9l-54 16v2l-4 4h-9l-23 22
l-12 29v7l-5 11l-4 17l-7 9l-14 -4l-27 2l-17 7l-4 5l-7 22v88l14 -22l25 -33l2 2v3h1l2 2l-5 4l-7 12l5 10l2 16l8 57l4 9l-1 6l5 11v7l12 20l10 1l13 14l7 2l7 7l9 2l5 5h17l-11 -8v-8l5 -6h6l4 3l9 -7l32 4l11 8l1 18l4 2l44 -8zM319 432l-5 2v7l10 13l-2 -13zM204 349
l13 -26l-8 -7h-10l-5 21l-4 4v7l-5 6l-3 12l-4 3l-18 -3l-30 -14h-5l-5 8l9 6l15 3l6 3l10 6h8l1 1l10 4h13zM195 313l4 -13l4 -3l-6 -13l-3 -3l-30 2v3l-5 4v23l15 10h9zM183 295l-5 2v11l9 -9zM349 261l-5 -22l-4 -9l-5 -4h-4l-3 4v12l8 19v9l9 9l5 14v-32h-1zM206 189
l3 -3v-5l-5 -4h-31l-16 -7l-4 -3h-7l-2 8l13 9l19 3l11 4l14 -2h5zM209 140h-5v5h5v-5zM248 138v-5h-16v12l15 -2z" />
    <glyph glyph-name="eacute" unicode="&#xe9;" horiz-adv-x="362" 
d="M160 551l-1 -26l-2 -2l-7 4l-2 -39l2 -2h1l8 20l12 33v6l7 3l3 3l4 -1l7 -8l-6 -15l-6 -4l-4 -5l-5 -12l-5 -25v-5l1 -2l13 12l1 11l23 44l4 9l5 1l9 -10l-5 -35l-4 -9l-2 -14l-1 -9v-6l1 -1l23 47l4 14l7 4h3l6 -7v-11l-6 -11v-8l-3 -3v-9l-6 -11v-9l18 -10l18 -14
l8 -15l3 -9l6 -19l2 -19l9 -11l-2 -15l-3 -6v-12l5 -11l7 -12l17 -5l9 -9v-23l-10 -18l-10 -16l-4 -1l-7 -9l-11 -9l-5 -16l-2 -24l-9 -34l-3 -15v-3l16 -1l25 -2l5 -3l3 -4v-11l-35 -19v-10l-6 -8l-28 -3l-5 -4l4 -14v-3l-11 -11l-10 2v6l-23 20h-18l-6 -10v-32l-10 -7
l-5 2l-7 10l-2 11l-9 16l-12 16l-19 1h-4l-2 2l-9 -5l-53 2l-10 3l-4 4v8l11 14l-3 6l-5 -2l-34 14l-10 9l-13 9l-5 7l1 4l17 10l15 2h5l11 -9l4 16l14 -2l15 -7h2v21l-3 25l5 9h5l4 -29l8 -30l25 -15l14 -13l11 -3l14 -9l28 -5l37 1l9 4h8l15 9l12 3l12 28v8l4 3l13 92v33
l-3 2l-3 7l2 5l9 11l-5 10l-13 -12l-16 -3h-9l-7 9v8l-16 3v8l8 5h44l3 -4l3 4l-1 9l-7 21l3 5l-1 30l-9 19l-18 16l-14 4h-3l-3 -18v-5l-5 -6h-8l-13 18l-15 20l-3 5l-13 1h-2l-4 4l-3 -9l-5 -3h-6l-5 8v6l-14 2l-3 5l-8 -5l-17 -2h-5l-6 -6l-11 -2l-15 -15h-6l-12 -16
l-8 -22l-4 -4l-4 -21l-3 -18v-42l-2 -2l7 -4l3 -5v-5l-5 -4l-12 2v4l-7 5l-3 3l-8 -3l-4 -3l-2 -39l2 -4l3 -26l3 -4v-6l11 -17l19 -3v-7l-5 -4h-6l-13 7l-9 13l-8 21l-1 61l-7 8l2 5v4l5 3l5 14l18 3l1 30l15 49l15 34v9l4 4l5 3h16l2 2l7 1l18 13l3 33l3 16v25l2 1v4h14
l4 -5l1 -28l4 -7l2 -2l5 37v4l-2 1l9 5l11 -3zM127 484l4 -3h1v-7h-1v5l-4 4h-7l-2 24l7 -14zM194 488l1 2l-1 -14v12zM180 351l-2 -8l-5 -1l-6 -16l-10 -7h-21l-8 7l-3 7h-5l-4 -6h-5v8l11 8l9 8l28 10l16 -4zM155 336l-5 -3h-5l-3 5l4 5l5 -3zM319 269l-7 -8v-4l-13 -12
h-3l3 37v5l9 4l11 -2v-20zM32 263l2 -9v-6l5 -5h5l2 -5l-7 -9h-7l-7 9l-6 26l2 10l2 6h7zM245 273l-15 -18l-5 -1h-5v15l16 11h9v-7zM215 273v-4l-30 -12h-4l-5 12v5l25 3l2 1h10zM203 211l52 6h11v-13l-11 -5l-3 -21l-11 -6v-1l-12 -4l-16 2l-7 3l-5 -3l-32 2l-10 5l-13 18
l-5 12l-5 5l1 6l8 2l31 -4zM194 201l1 -12l-3 -4l-19 4l-9 6l3 8l22 -2h5zM238 189l-5 -4l-18 5v11l23 -2v-10zM39 125h-14l-12 9v2l-4 3l21 2l2 1l11 -10zM283 106l-10 -2h-7l9 5l14 -2zM101 93l-17 -6h-17l3 10l11 9l17 -4zM230 70l-10 11v3l13 3v-15zM173 67l-2 -2v-5
l-7 9l5 9h4v-11z" />
    <glyph glyph-name="ecircumflex" unicode="&#xea;" horiz-adv-x="489" 
d="M468 475l-2 -12l-20 -17l-17 -2l-18 2l-9 18l-14 -3l-26 -17l-12 -13l-6 -12l-3 -4l-5 2h-2l-3 3v13l8 8l14 11l38 23l3 4h-11l-33 -20l-21 -18l-11 -12l-10 -18l-25 -1l-9 21l-5 5h-4l-9 -12l-5 -42v-25l2 -2v-5l-5 -2l-6 -7h-5l-3 3v11l-6 11l-19 42l-21 36l-7 2l-8 8
l-10 -2l-3 -3l-9 5l3 10l9 9v4h2l33 49v3l9 9l14 21h-10l-35 -30v-3l-8 -3l-39 -53l-8 -29l-3 -19v-2l-8 4l-3 5l7 25l-2 1l-7 -6l-14 -4l-17 -21l-15 -25l-7 -17l-2 -9h-1l-19 -88l5 -7v-2l1 -2l-1 -4l-29 18l-20 23h-3v-33l11 -63l6 -11l5 -6h16l3 4h9v-9l-18 -12l-14 1
l-9 8l-9 14l-3 24l-5 25l-7 72l1 5v6l9 3l13 -17l9 -13l19 -17l7 12l12 63l16 41l11 18l24 37l11 5l9 -2l6 -5l8 12l10 20l39 44l35 35v4l8 6l-4 5l5 8l16 -4l10 -4l18 -5l19 -14l11 -12l-2 -16l-10 -8l-9 -6l-16 -3l-11 3l-14 20l-8 -8l-3 -6l-17 -20l-27 -44v-4l3 -1l3 3
l12 -2h20l28 -3l7 2h5l11 -9l8 -4l11 -9l9 -8v-4l9 -9l14 21l31 29l32 18l18 6l5 4l2 1v4h34l20 -10l9 -11zM353 248l-3 -18l-9 -9h-5l2 9v12l-4 8v5l5 5l11 -1zM320 220l-3 -11l-18 -12l-26 -13h-8l-1 7v6l5 3h10l11 6l7 1l11 9l-11 5l-28 -4l-5 -2v8l17 7l23 2l9 -4l5 -3z
M380 299l-2 -84l-7 -17l-5 -7l-11 -9l-12 4v2l-2 2h-5l-22 -52l-17 -31l-18 -25l-3 -14l-14 -3l-27 -16l-26 -8l-41 3l-17 8l-36 27l-22 26l-22 35l-10 25l-7 19l3 4l6 -2l5 -9l6 -15l28 -52l22 -26l5 -2l18 -16l26 -12l29 -4l26 7l14 9l13 9v5l9 9l6 2l16 21l9 16l5 7
l13 28v5h1l6 23l-2 9v4h32v-2l2 -2l6 4l8 21l3 34l-3 31v10l-2 3l-14 -24v-9l-16 -5l-2 2h-5l-9 -12l-4 -4l-15 2l-13 14v18l4 3l18 9l12 -2l9 -9l5 23v46l-9 27l-7 10v9l4 1l9 -1l10 -21l2 -16l4 -14v-44l1 -2l5 7l5 27l4 3l2 2h5v-2l2 -2h5zM204 264l-2 -11l-11 -9
l-20 -12l-27 2l-11 8l-4 9l-3 16l2 27l4 3h3l-3 -19l3 -19l14 -17h19l18 11l7 7v7l-12 21l-9 9h-14l-11 -9h-3l2 12l8 9l8 2l14 -3l8 -9l7 -7l7 -13zM281 144l-3 -6l-9 -1l-7 5h-3l-9 -10l-15 -14l-20 -6l-22 7l-17 23v11l-13 5l-3 4l5 3l44 -9l35 -3l4 6h7l1 -5l18 -1l4 -6
zM36 216l-5 -5h-14l-7 9l-4 10v20l-1 1l5 9l11 -1v-9l-4 -11l4 -13zM452 473l-8 12l-25 5v-2h1l4 -8v-19l11 -2l14 7zM276 549l-6 10l-17 14l-21 6l-2 -7l11 1l10 -8v-11l-3 -3l5 -9l3 -4l11 2zM237 383v14l-3 -10zM314 273v5l-5 5l-5 -7h-4v-3l6 -6h3zM239 140l-2 2l-33 2
l-14 5v-5l8 -12l11 -4l12 -2l14 7z" />
    <glyph glyph-name="edieresis" unicode="&#xeb;" horiz-adv-x="325" 
d="M312 187l-5 -12l-5 -7l-19 -9l-3 -35l3 -2l-4 -4l-2 -12l-12 -23l-13 -18l-14 -5l-14 -9h-49l-48 3l-27 10l-40 35l-10 13l-14 26l1 2l-7 8l-15 3l-25 26l-11 19l2 26l12 22l13 5l5 5l-4 5v11l-6 4l-6 5v1l2 3l-5 10v30l3 19l6 18l14 3v23l12 21l3 11l4 7l-2 12l-16 13
l-4 10l4 13l9 12l11 16l10 16l5 21l16 10v4l6 4l30 1l5 4l12 1h7l4 -6l16 -13l58 -26l33 -18v-4l23 -22v-5l5 -4l4 -9l15 -18l-1 -21v-25l4 -9l-3 -6h-1l-1 -2v-3l5 -4l3 -48v-16l-2 -1l4 -4l-8 -10l3 -13l1 -1l4 -13l-2 -16v-5l9 -7l9 -16l1 -28zM271 342l-1 2v7l-5 5l-7 2
l5 -12l7 -5zM265 377l-2 3l-2 10l4 39l-15 17l-3 11l-20 19l-3 9l-16 12l-35 18l-20 7v1l-20 6l-18 12v2h-11l-31 -9l-27 -42l-12 -21l-2 -12l7 -8l6 -5l3 -7l2 -19l-7 -9v-7l-6 -9l2 -2l-5 -12l16 5l72 5l111 -5l8 -6zM252 307v5l-2 20l-6 5v4l-6 -14v-22l7 -2zM210 369
l-10 3l-4 -3l7 -14l2 1zM171 363v13h-9zM189 327v6h-2v-6h2zM259 258l-5 7l-5 1l-5 -1l1 -9l11 -2zM296 180v6l-2 24l-5 7l-1 -42zM164 324l-3 17l-4 5l-4 -28l4 -9h4l1 2zM142 369v8h-47l-14 -3l-1 -2l5 -5v-4l13 2l10 -5v-5l7 -11l5 18l9 14zM129 307l-2 20v-18zM103 316
l-4 7l-1 1v8l-3 -5v-22l3 2h2zM62 369h-7l-9 -4l2 -51l2 2v7l4 4v6l6 22v5l-1 2zM71 302l-2 12l-2 10l-5 -24h5zM18 347v6l-2 5l-1 2l-4 -2l-4 -17l8 -4v7zM30 294v11l-3 6l-2 -2v-16zM275 219v25h-5v-4l-2 -1l-23 -3l-18 18l-1 14l14 15l12 1l18 -10v9l-9 -3l-11 8h-15
l-16 3l-50 6l-33 -4l-46 -5h-16l-19 -8l-12 -6l-11 3l-3 -3h-9l1 -21l2 -3v-5l-2 -1h-9l-5 -4l-14 -18v-26l14 -18l25 -17l18 -5v-3l9 -26l15 -19l21 -14l8 -11l10 -5l34 -13l45 -1l35 7l17 11v5l1 2l5 1v4l9 9l6 17l1 14l4 32zM177 245l-6 -9l-9 -5l-10 -3l-21 3l-9 14
l2 21l12 13l7 1l25 -1l9 -16v-18zM235 166l-13 -5l-7 -5l-5 1v11l9 5l7 2h7l2 -4v-5zM197 171l-3 -3l-19 -2l-4 -4h-2l-3 4v2l11 7l10 2h7zM196 92l-4 -3h-9l-6 6l-20 -1l-1 -2l-4 2l17 9l14 1l6 -1l7 -5v-6zM48 186l-9 -6l-14 6l-2 5l-8 14l-4 12l4 2l14 -2l5 -8v-4l-2 -2
l5 -8l8 -4v-2zM162 258l-9 8h-3l-16 -7v-9l8 -6l11 -2l8 5z" />
    <glyph glyph-name="igrave" unicode="&#xec;" horiz-adv-x="459" 
d="M146 568l23 -6l14 -7h5l3 -5l14 -5l6 -5l14 -8l51 -39l17 -19l11 -17l9 -20l7 -9l-5 -47l-5 -72l5 -48l3 -5l-5 -14l-11 -13l-3 -12l-6 -10l-15 -39l-11 -19l-3 -11l-4 -3l7 -4v-9l-9 -7l-1 2h-4l-4 -16l-11 -14l-8 -20l-1 -9l-6 -3l-5 2h-4l-3 9l2 5v3h3l6 8l5 10l-14 7
l-57 6l-12 5h-2l-1 -2l-16 16l-5 12v14l5 7l5 5l37 6l21 -4l47 -7l14 -8v-3l3 -1l8 10l2 7l7 9l2 9l-16 2l-51 3l-7 2h-6v16l14 4l4 7l23 9l11 6l15 -5l8 -10l10 -9v-2l2 -2l5 6l13 35v14l-16 7l-18 14v21l4 4l1 15l9 20l15 16l8 2l3 9v8l2 44l-7 9l-1 18l-8 12l-1 7l-44 44
l-8 1l-10 9l-12 9h-4l-7 7l-24 11l-23 8l-20 4l-33 -6l-13 -8l-10 -3l-26 -16l-35 -29l-27 -27l-6 -17l2 -1l-5 -9l-3 -86l1 -76l7 -60l4 -3v-2l-6 3l-5 18l-4 58l-3 73v91l18 26l35 34l18 14l9 3l6 8l23 10l7 7l27 12l4 6l17 -2zM396 379l-6 -5h-10l-5 -4v-3l-5 -3h-6v8
l6 7l9 9l10 5l7 -3v-11zM165 384l21 -5l22 -10l3 -22l2 -26l3 -19v-6l6 -5l-2 -10l-18 -14l-3 -6l-13 -10l-21 -9l-32 -5l-35 1l-16 5l-24 18l-4 11v4l5 5l13 -4l10 -18l16 -8l22 -4l41 4l8 5l12 3l9 11v3l1 3h-8l-7 -6l-16 -9l-30 -5l-27 7l-24 24l2 6l8 10l8 22l12 14
l14 14l30 -11l23 -16l14 -19h7l2 -2v25l-9 25l-7 10l-14 7h-102l-8 -3l-5 -9v-44l5 -23l-1 -2v-4l-9 -1h-4l-3 5v93l3 6l57 -6h63zM299 276h-7l-1 1h-4l-7 19l2 20l10 19l5 4v-62zM153 326l5 -6l2 -3h4v-3l5 -3l5 -18v-4l4 -3l-11 -9l-9 -1l-12 -6h-25l-18 12l-8 14v7l19 23
l6 4l10 1l20 -5h3zM426 320l-2 -8l-23 -3l-16 -7h-3l-3 7l1 5v2l4 4l17 1l9 4h7zM146 307l5 -9l-1 -14l-9 -8l-11 1l-10 12l-4 7l5 18l9 3l7 -1zM417 256v-9l-7 -4l-9 6l-19 2l-6 7l9 9l13 -2zM253 199l-39 2l-1 2l21 7l15 -5zM9 168l9 -30l24 -47l17 -15l61 -14l36 -5l27 1
l7 4l7 -2v-11l-6 -6h-45l-48 6l-7 4l-2 -1l-3 3l-39 5l-7 7v6l-17 26l-8 14l-21 57l-7 15l-5 9l3 4l9 -2zM223 141l6 -5l-46 4l-7 5l-21 -2l-4 -7l7 -12l6 -6l12 6l26 -4h23l5 -2h8l-4 -7h-16l-5 4l-53 3l-14 8l-11 15l12 9l4 2l48 -3z" />
    <glyph glyph-name="iacute" unicode="&#xed;" horiz-adv-x="426" 
d="M391 378l-6 -7l-2 -20v-13l4 -9l1 -13v-72l-3 -16l-5 -16l2 -5h-11v20l7 14v74l-7 15l2 49l7 8h11v-9zM188 385l-2 -14l-7 -6h-7l-18 39l-15 83l-4 13l-4 3l-8 -9l-2 -18l2 -56l12 -28l19 -18v-5l2 -1l-7 -4l-4 -5h-6l-30 33l-11 34l-5 47v19l-7 8h-9l-9 -15v-45l11 -34
l19 -19l11 -5l1 -8l-9 -9l-12 4l-18 19l-6 18l-9 23l-2 2l-2 -9l5 -19l9 -18l5 -7l-1 -9v-1l-9 -4l-26 15l-18 18l1 11l8 1h5l9 -15l7 -4l1 2l-3 4v16l-3 54l-2 7v5l5 4h11l5 10l1 11l18 12h15l10 -12l5 -16h2l9 24l7 9l5 6l11 -2l7 -9l3 -53l9 -47l14 -30h11zM368 154
l-2 -12l-13 -11h-5l-7 9l-51 4l-30 -4l-18 -45l-17 -25l-9 -5l-10 -3l-6 -5l-16 8l-42 6l-38 9l-9 6l-11 1l-5 5l-8 3l-14 15l-12 26l-5 43l2 1h5l4 -8l3 -28l7 -22l19 -21l15 -3l14 -7h10l5 -5l32 -6l3 -3l50 -2l14 11l14 24l10 25l-6 5h-60v2l-4 2h-5l-2 -2l-8 -3h-13
l-1 1v4l44 14l38 17l6 5l20 3l4 5l2 72l2 11v5l-2 1l-9 -10l-11 -7h-17l-5 3l-4 9l2 8l12 10l12 4h13v-3l7 -6l2 1l-8 14l2 11l6 4v14l-9 19h-2l-6 9l8 16l12 3h4l12 12l21 24l11 24v29l-11 24l-21 17l-18 9h-1v-12l7 -11l5 -22v-34l-18 -32l-14 -16l-21 -19h-5l-4 7v6l7 5
v3l12 9l18 19l9 16l4 22v17l-9 16l-27 21l-8 1v-10l3 -3l2 -16l3 -21l-1 -38l-15 -19l-15 -12l-2 2v5l17 19l6 11v46l-2 7l-7 24l-7 11h-14l-5 5l-2 4v5l8 5l11 -1l12 -7l11 10l4 2l15 -7l39 -13l19 -11l20 -24l7 -23v-19l-5 -17l-11 -22l-14 -16l-12 -12l9 -8l-4 -17
l-7 -12l-3 -32v-17l-8 -9l13 -10l12 -6l11 -14l-2 -15l-12 -18l-9 -9l-9 -7l-4 -4l-1 -14l-4 -4l5 -6l-1 -2l3 -4h12l25 -3l32 -2l9 9h7zM223 197l-5 -6h-6l-3 6l-2 1l5 5h4zM148 277l-6 -12l-9 -7l-9 4l-3 7h-7l-4 3v5l18 11l16 -3zM206 202l-31 -4l-1 2h-4l4 9l15 3h9
l8 -5v-5zM82 233l-21 -12l-7 4l-2 5v2l-9 4h-5l4 11l3 4l-7 7l-7 -3l-5 -6v-13l9 -15v-5h-6l-12 20l1 19l13 16l-4 1l-5 5v11h-18l-6 -12v-51l6 -22l6 -10l7 -5l12 1v-14h-11l-6 5l-13 18l-5 18l-3 17l1 44l16 20l-5 27l4 19l-3 16l6 6h7l4 -5v-7l-3 -2h9l6 4l21 2l2 2l4 -4
l-6 -5l-14 -4l-14 -7h12l19 7h4l4 -3l-13 -9l-14 -4l-14 -10h18l3 1h6l3 -6l-2 -2v-6l2 -1l2 -6v-5l-13 -13v-1l13 -4v-3l10 -5l-1 -7l-14 -7l-3 -2v-2h25v-5l-3 -4l7 -1h5v-8zM114 438l-2 18h-2l2 -18h2zM290 249l-4 4h-1l-13 2l2 -39l14 14zM244 276v5h-3l-9 -5v-4l1 -1h4
l2 1zM294 156v2h-8v-2h8zM237 156v3l-1 6h-4l-7 -4l-19 -7l1 -1z" />
    <glyph glyph-name="icircumflex" unicode="&#xee;" 
d="M176 501v-7l3 -4v-6l25 -4l44 -11l44 -23h5l9 9l25 26v9l11 8h5v-22l-7 -22l-16 -52l2 -105l3 -6l7 9l6 19l2 13l9 2h5l8 -15l2 -35l-4 -3l-1 -23l-9 -33l-4 -11l-15 -7l-16 -2l-4 -41l-10 -31l-9 -23l-9 -21l-14 -21l-9 -6l-7 -1l-1 -2l-9 2l-9 7l-35 5l-6 -2l-10 5
l-32 5l-23 8h-16l-3 3h-9l-16 20l-6 3l-14 27l-10 30l-5 19l-2 2l-7 -7l-39 10l-14 7l-8 16l-6 20l2 113l5 1h4l6 -18l20 -27l4 5l3 26l11 62l3 5l6 25l8 14l6 6l5 6l14 2l19 9l6 5l14 3l8 8h18l4 3v26l-6 7v13l6 5l12 -1zM165 481l-1 -17l-11 -10l-10 3l7 11l9 24h3z
M256 451l24 -14l4 -6l10 -9l-5 -6l8 -12l8 -5l5 -12v-57l-2 -2v2l-7 7l-17 -3l-13 -18l-4 -14v-2l6 -5h7l7 10v8l18 1l3 4h-2v3h2v-26l-5 4l-12 -4l-4 -16l-2 -4v-5l9 -9l11 -1h5v-13l-10 -7l-4 -5v-9l9 -33h-13l-14 3l-5 43l-7 19l-2 16l-5 16h-16l-3 -6l3 -10l9 -22l9 -44
l-2 -14v-5h-7l-2 2l-7 -4h-5l-2 2l-7 -7v-4l5 -5h23l5 -5h9l7 13v1l-1 -1l-2 2l1 1l9 -9l18 -3l-9 -35l-5 -8l-23 4v5h7l7 7l-4 7l-3 4l-78 5l-10 6h-6l-5 -6v-12l9 -9l5 -12l9 -8l12 -1h44v-4l4 -3h7l7 7h7l4 -4h2l-8 -16l-12 -19l-33 1l-53 9l-54 16v2l-4 4h-9l-23 22
l-12 29v7l-5 11l-4 17l-7 9l-14 -4l-27 2l-17 7l-4 5l-7 22v88l14 -22l25 -33l2 2v3h1l2 2l-5 4l-7 12l5 10l2 16l8 57l4 9l-1 6l5 11v7l12 20l10 1l13 14l7 2l7 7l9 2l5 5h17l-11 -8v-8l5 -6h6l4 3l9 -7l32 4l11 8l1 18l4 2l44 -8zM319 432l-5 2v7l10 13l-2 -13zM204 349
l13 -26l-8 -7h-10l-5 21l-4 4v7l-5 6l-3 12l-4 3l-18 -3l-30 -14h-5l-5 8l9 6l15 3l6 3l10 6h8l1 1l10 4h13zM195 313l4 -13l4 -3l-6 -13l-3 -3l-30 2v3l-5 4v23l15 10h9zM183 295l-5 2v11l9 -9zM349 261l-5 -22l-4 -9l-5 -4h-4l-3 4v12l8 19v9l9 9l5 14v-32h-1zM206 189
l3 -3v-5l-5 -4h-31l-16 -7l-4 -3h-7l-2 8l13 9l19 3l11 4l14 -2h5zM209 140h-5v5h5v-5zM248 138v-5h-16v12l15 -2z" />
    <glyph glyph-name="idieresis" unicode="&#xef;" horiz-adv-x="366" 
d="M351 191l-2 -17l-11 -24h-3l-6 -10l-6 -2l-10 -7h-9l-32 -87l-2 -15l-5 -20l-51 -9l-39 9l-11 6h-22l-2 1h-4v4l-16 16l-28 24l-40 46l-4 7l-8 11l5 11l11 -4l1 -2l13 -24l12 -13v-4l46 -40l19 -14l16 -4l14 -6l14 -4l12 -5l41 1l8 13l25 51l8 25l11 30l3 12l-13 19
l-10 9l-4 9l-2 -2h-5l-10 5l-29 4l-42 -20l-30 -15h-4l-3 -6l-11 -3l-17 -15v9l14 13l5 2l30 18l29 15l14 5l6 6h4l11 10l17 -3l23 -11l13 -9l14 -13h1l2 1l-3 10l1 11l5 2l9 14v3l-1 3l3 2v13l-3 4h-6l-2 -2v-6l-17 -10l-19 1l-8 11v6h4l9 14l12 5l14 -2l2 -1h3v-4l2 -2
l6 7l3 9l-2 16l-7 14v7l-7 12v9l-5 5l-5 21l-8 13l-1 12l-7 9l-2 10l-7 11l-2 -8v-6l6 -3l1 -7l-7 -9l2 -16l-4 -3v-8l-12 -8l-12 1l-4 9l2 9l-3 11l-13 22l-8 11v3l-23 23l-11 7l-2 6l-17 8h-38l-15 -15l-16 3l-18 -12l-4 -7l-8 -9l-18 -30l-5 -16h-2l-5 -17l2 -25l3 -13
l6 -10l8 -11h-8l-11 16l-2 5v4l-4 4l-3 -4l-3 -28l6 -26l3 -11v-5l-8 -4l4 -5l4 -9l-3 -5l-1 -2h-5l-13 16h-3l-7 -28l2 -32l5 -16l8 -12l11 -4h16l2 -5l-6 -9l-19 2l-21 17l-7 21l-2 53l4 4v9l9 16l7 5l5 -4l1 53l4 4l9 40l9 25l14 32l9 12l12 19l21 17l11 27l17 32l14 30
l7 18l9 10l9 20l32 45l12 18h10l9 -10l9 -57l6 -18l1 -12l4 -18l1 -15l13 -59l10 -24l15 -16l10 -30l10 -28l4 -18l23 -56l2 -13l5 -11l10 -11v-6h-1l-7 -10l-5 -20l13 -8zM182 224l-7 -10l-14 -9h-25l-7 5l-10 8l-5 15l5 21l3 4v1h4l3 -3l-3 -14v-14l10 -10h28l9 11l-1 16
l-11 11l-8 -3l-8 -6l-7 -9h-5l-2 2l5 13l11 9l11 5l14 -2l10 -12v-29zM255 145l-14 -2l-27 -5l-9 2l-2 1v4l29 9h19l4 -4v-5zM276 105l-4 -11l-5 -6l-9 -1h-3l-4 5h-57l-12 -4h-32v9l6 4l58 4h44l2 1zM242 55l-40 -2l-4 4v3l9 6l23 3l12 -1v-13zM36 161l-2 -2h-5l-11 9
l-14 25v8l9 8l9 -2l4 -25l10 -20v-1zM247 390v30l-3 23l-6 14l-10 54l-12 57l-2 2v6l-3 4l-3 13l-5 14l-1 1v6l-5 6l-17 -15l-12 -18l-9 -12l-9 -18l-6 -11l-27 -58l-6 -19l-2 -14l55 3l25 -10l18 -18l26 -36l5 -15h4zM294 237v3l-3 2h-10l-9 -7l10 -4zM335 184l-5 7l-9 -9
l-8 -17l1 -9l-5 -6v-7l20 14v8l5 3z" />
    <glyph glyph-name="eth" unicode="&#xf0;" horiz-adv-x="415" 
d="M381 359l-8 -5h-7l-4 -4l-14 -7l-16 -14l-5 2v7l14 14l11 4l14 8l15 -1v-4zM394 301l-15 -5l-17 -2l-8 -4l-8 4l2 4v5l18 5l26 -2l2 -1v-4zM398 237l-4 -3h-32l-5 7v4l7 5l25 -5l9 -5v-3zM253 281l-12 -11h-20l-3 5l-4 4l2 8l4 11l7 5l17 -2l5 -5l4 -9v-6zM235 234l-1 -8
l-21 -18l-5 2h-3v7l15 14l-9 5h-16l-1 -2h-6l-2 6l4 6l12 4l19 -2zM364 461l-2 -15l-22 -35l-20 -24l-19 -24l-8 -7l-1 -9l-5 -2l-5 -8l-11 -9h-4l-2 1l-7 -10h-3l-3 -4l-8 5l-1 8l-48 6l-48 -1l-35 -7l-33 -18l-7 -12l-13 -7l-6 3l-15 -24l4 -7v-4h-16v2l-2 2l-10 -6
l-22 -23l-3 -12l3 -16l13 -11h5l5 -5h20l5 5l2 -1h3l2 -13h7l7 -30l6 -17l6 -16l11 -16l24 -17l25 -9l55 2l26 9l34 19l23 26l7 16l7 28l-2 25l-7 16l-5 -4l-4 -7h-7l4 19l1 6l9 3l5 -1l13 -23v-53l-4 -3v-8l-17 -31l-39 -30l-9 -2l-9 -7l-12 -2l-6 -5l-44 -6l-33 6l-7 5
l-15 4l-27 26l-14 27v6l-3 4v10l-4 4l-2 25h-19l-28 4l-18 15l-3 11l1 23l14 17l15 11h3v67l8 17l4 16l11 28l12 16l11 11l19 5l11 6l29 10l35 -2h33l3 -3l33 14l31 8l10 8l23 3l3 3l38 6h6l2 2l18 -2l9 -3zM142 275l-3 -14l-13 -6l-9 4l-6 9v5l8 6v2l13 4h3zM248 167
l-16 -15l-18 -9l-24 -8l-20 4l-20 9l-13 9l-14 -2h-6l-3 7l7 5l29 7h6l16 5l14 3l30 8l22 11l5 -4l5 -5v-25zM350 447l-2 13l-2 1l-26 4l-16 -4l-21 -6l-26 -6l-43 -18l-18 -6l-10 -8v-1l2 -2l2 -14l-7 -9h-6l-3 3v8l-5 6l-14 -8v-9l-5 -5h-4l-4 3l-17 -16l-23 -23l-20 -22
l15 5l35 7l15 5h78l32 -8l3 -6l2 9l28 27l23 29l14 12l2 8l8 9l8 12zM126 422v3h-9v-3h9zM239 287l-1 2v1h-6v-6h3zM114 374l-2 1l-5 -5l1 -1zM235 178h-5l-10 -4l3 -10h6l1 2zM209 157l-7 12l-6 2l-6 -4l5 -14h10zM176 155l-4 7l-5 2l-7 -4h1l6 -5h9zM28 270v5h-2v-7z" />
    <glyph glyph-name="ntilde" unicode="&#xf1;" horiz-adv-x="362" 
d="M160 551l-1 -26l-2 -2l-7 4l-2 -39l2 -2h1l8 20l12 33v6l7 3l3 3l4 -1l7 -8l-6 -15l-6 -4l-4 -5l-5 -12l-5 -25v-5l1 -2l13 12l1 11l23 44l4 9l5 1l9 -10l-5 -35l-4 -9l-2 -14l-1 -9v-6l1 -1l23 47l4 14l7 4h3l6 -7v-11l-6 -11v-8l-3 -3v-9l-6 -11v-9l18 -10l18 -14
l8 -15l3 -9l6 -19l2 -19l9 -11l-2 -15l-3 -6v-12l5 -11l7 -12l17 -5l9 -9v-23l-10 -18l-10 -16l-4 -1l-7 -9l-11 -9l-5 -16l-2 -24l-9 -34l-3 -15v-3l16 -1l25 -2l5 -3l3 -4v-11l-35 -19v-10l-6 -8l-28 -3l-5 -4l4 -14v-3l-11 -11l-10 2v6l-23 20h-18l-6 -10v-32l-10 -7
l-5 2l-7 10l-2 11l-9 16l-12 16l-19 1h-4l-2 2l-9 -5l-53 2l-10 3l-4 4v8l11 14l-3 6l-5 -2l-34 14l-10 9l-13 9l-5 7l1 4l17 10l15 2h5l11 -9l4 16l14 -2l15 -7h2v21l-3 25l5 9h5l4 -29l8 -30l25 -15l14 -13l11 -3l14 -9l28 -5l37 1l9 4h8l15 9l12 3l12 28v8l4 3l13 92v33
l-3 2l-3 7l2 5l9 11l-5 10l-13 -12l-16 -3h-9l-7 9v8l-16 3v8l8 5h44l3 -4l3 4l-1 9l-7 21l3 5l-1 30l-9 19l-18 16l-14 4h-3l-3 -18v-5l-5 -6h-8l-13 18l-15 20l-3 5l-13 1h-2l-4 4l-3 -9l-5 -3h-6l-5 8v6l-14 2l-3 5l-8 -5l-17 -2h-5l-6 -6l-11 -2l-15 -15h-6l-12 -16
l-8 -22l-4 -4l-4 -21l-3 -18v-42l-2 -2l7 -4l3 -5v-5l-5 -4l-12 2v4l-7 5l-3 3l-8 -3l-4 -3l-2 -39l2 -4l3 -26l3 -4v-6l11 -17l19 -3v-7l-5 -4h-6l-13 7l-9 13l-8 21l-1 61l-7 8l2 5v4l5 3l5 14l18 3l1 30l15 49l15 34v9l4 4l5 3h16l2 2l7 1l18 13l3 33l3 16v25l2 1v4h14
l4 -5l1 -28l4 -7l2 -2l5 37v4l-2 1l9 5l11 -3zM127 484l4 -3h1v-7h-1v5l-4 4h-7l-2 24l7 -14zM194 488l1 2l-1 -14v12zM180 351l-2 -8l-5 -1l-6 -16l-10 -7h-21l-8 7l-3 7h-5l-4 -6h-5v8l11 8l9 8l28 10l16 -4zM155 336l-5 -3h-5l-3 5l4 5l5 -3zM319 269l-7 -8v-4l-13 -12
h-3l3 37v5l9 4l11 -2v-20zM32 263l2 -9v-6l5 -5h5l2 -5l-7 -9h-7l-7 9l-6 26l2 10l2 6h7zM245 273l-15 -18l-5 -1h-5v15l16 11h9v-7zM215 273v-4l-30 -12h-4l-5 12v5l25 3l2 1h10zM203 211l52 6h11v-13l-11 -5l-3 -21l-11 -6v-1l-12 -4l-16 2l-7 3l-5 -3l-32 2l-10 5l-13 18
l-5 12l-5 5l1 6l8 2l31 -4zM194 201l1 -12l-3 -4l-19 4l-9 6l3 8l22 -2h5zM238 189l-5 -4l-18 5v11l23 -2v-10zM39 125h-14l-12 9v2l-4 3l21 2l2 1l11 -10zM283 106l-10 -2h-7l9 5l14 -2zM101 93l-17 -6h-17l3 10l11 9l17 -4zM230 70l-10 11v3l13 3v-15zM173 67l-2 -2v-5
l-7 9l5 9h4v-11z" />
    <glyph glyph-name="ograve" unicode="&#xf2;" horiz-adv-x="489" 
d="M468 475l-2 -12l-20 -17l-17 -2l-18 2l-9 18l-14 -3l-26 -17l-12 -13l-6 -12l-3 -4l-5 2h-2l-3 3v13l8 8l14 11l38 23l3 4h-11l-33 -20l-21 -18l-11 -12l-10 -18l-25 -1l-9 21l-5 5h-4l-9 -12l-5 -42v-25l2 -2v-5l-5 -2l-6 -7h-5l-3 3v11l-6 11l-19 42l-21 36l-7 2l-8 8
l-10 -2l-3 -3l-9 5l3 10l9 9v4h2l33 49v3l9 9l14 21h-10l-35 -30v-3l-8 -3l-39 -53l-8 -29l-3 -19v-2l-8 4l-3 5l7 25l-2 1l-7 -6l-14 -4l-17 -21l-15 -25l-7 -17l-2 -9h-1l-19 -88l5 -7v-2l1 -2l-1 -4l-29 18l-20 23h-3v-33l11 -63l6 -11l5 -6h16l3 4h9v-9l-18 -12l-14 1
l-9 8l-9 14l-3 24l-5 25l-7 72l1 5v6l9 3l13 -17l9 -13l19 -17l7 12l12 63l16 41l11 18l24 37l11 5l9 -2l6 -5l8 12l10 20l39 44l35 35v4l8 6l-4 5l5 8l16 -4l10 -4l18 -5l19 -14l11 -12l-2 -16l-10 -8l-9 -6l-16 -3l-11 3l-14 20l-8 -8l-3 -6l-17 -20l-27 -44v-4l3 -1l3 3
l12 -2h20l28 -3l7 2h5l11 -9l8 -4l11 -9l9 -8v-4l9 -9l14 21l31 29l32 18l18 6l5 4l2 1v4h34l20 -10l9 -11zM353 248l-3 -18l-9 -9h-5l2 9v12l-4 8v5l5 5l11 -1zM320 220l-3 -11l-18 -12l-26 -13h-8l-1 7v6l5 3h10l11 6l7 1l11 9l-11 5l-28 -4l-5 -2v8l17 7l23 2l9 -4l5 -3z
M380 299l-2 -84l-7 -17l-5 -7l-11 -9l-12 4v2l-2 2h-5l-22 -52l-17 -31l-18 -25l-3 -14l-14 -3l-27 -16l-26 -8l-41 3l-17 8l-36 27l-22 26l-22 35l-10 25l-7 19l3 4l6 -2l5 -9l6 -15l28 -52l22 -26l5 -2l18 -16l26 -12l29 -4l26 7l14 9l13 9v5l9 9l6 2l16 21l9 16l5 7
l13 28v5h1l6 23l-2 9v4h32v-2l2 -2l6 4l8 21l3 34l-3 31v10l-2 3l-14 -24v-9l-16 -5l-2 2h-5l-9 -12l-4 -4l-15 2l-13 14v18l4 3l18 9l12 -2l9 -9l5 23v46l-9 27l-7 10v9l4 1l9 -1l10 -21l2 -16l4 -14v-44l1 -2l5 7l5 27l4 3l2 2h5v-2l2 -2h5zM204 264l-2 -11l-11 -9
l-20 -12l-27 2l-11 8l-4 9l-3 16l2 27l4 3h3l-3 -19l3 -19l14 -17h19l18 11l7 7v7l-12 21l-9 9h-14l-11 -9h-3l2 12l8 9l8 2l14 -3l8 -9l7 -7l7 -13zM281 144l-3 -6l-9 -1l-7 5h-3l-9 -10l-15 -14l-20 -6l-22 7l-17 23v11l-13 5l-3 4l5 3l44 -9l35 -3l4 6h7l1 -5l18 -1l4 -6
zM36 216l-5 -5h-14l-7 9l-4 10v20l-1 1l5 9l11 -1v-9l-4 -11l4 -13zM452 473l-8 12l-25 5v-2h1l4 -8v-19l11 -2l14 7zM276 549l-6 10l-17 14l-21 6l-2 -7l11 1l10 -8v-11l-3 -3l5 -9l3 -4l11 2zM237 383v14l-3 -10zM314 273v5l-5 5l-5 -7h-4v-3l6 -6h3zM239 140l-2 2l-33 2
l-14 5v-5l8 -12l11 -4l12 -2l14 7z" />
    <glyph glyph-name="oacute" unicode="&#xf3;" 
d="M176 501v-7l3 -4v-6l25 -4l44 -11l44 -23h5l9 9l25 26v9l11 8h5v-22l-7 -22l-16 -52l2 -105l3 -6l7 9l6 19l2 13l9 2h5l8 -15l2 -35l-4 -3l-1 -23l-9 -33l-4 -11l-15 -7l-16 -2l-4 -41l-10 -31l-9 -23l-9 -21l-14 -21l-9 -6l-7 -1l-1 -2l-9 2l-9 7l-35 5l-6 -2l-10 5
l-32 5l-23 8h-16l-3 3h-9l-16 20l-6 3l-14 27l-10 30l-5 19l-2 2l-7 -7l-39 10l-14 7l-8 16l-6 20l2 113l5 1h4l6 -18l20 -27l4 5l3 26l11 62l3 5l6 25l8 14l6 6l5 6l14 2l19 9l6 5l14 3l8 8h18l4 3v26l-6 7v13l6 5l12 -1zM165 481l-1 -17l-11 -10l-10 3l7 11l9 24h3z
M256 451l24 -14l4 -6l10 -9l-5 -6l8 -12l8 -5l5 -12v-57l-2 -2v2l-7 7l-17 -3l-13 -18l-4 -14v-2l6 -5h7l7 10v8l18 1l3 4h-2v3h2v-26l-5 4l-12 -4l-4 -16l-2 -4v-5l9 -9l11 -1h5v-13l-10 -7l-4 -5v-9l9 -33h-13l-14 3l-5 43l-7 19l-2 16l-5 16h-16l-3 -6l3 -10l9 -22l9 -44
l-2 -14v-5h-7l-2 2l-7 -4h-5l-2 2l-7 -7v-4l5 -5h23l5 -5h9l7 13v1l-1 -1l-2 2l1 1l9 -9l18 -3l-9 -35l-5 -8l-23 4v5h7l7 7l-4 7l-3 4l-78 5l-10 6h-6l-5 -6v-12l9 -9l5 -12l9 -8l12 -1h44v-4l4 -3h7l7 7h7l4 -4h2l-8 -16l-12 -19l-33 1l-53 9l-54 16v2l-4 4h-9l-23 22
l-12 29v7l-5 11l-4 17l-7 9l-14 -4l-27 2l-17 7l-4 5l-7 22v88l14 -22l25 -33l2 2v3h1l2 2l-5 4l-7 12l5 10l2 16l8 57l4 9l-1 6l5 11v7l12 20l10 1l13 14l7 2l7 7l9 2l5 5h17l-11 -8v-8l5 -6h6l4 3l9 -7l32 4l11 8l1 18l4 2l44 -8zM319 432l-5 2v7l10 13l-2 -13zM204 349
l13 -26l-8 -7h-10l-5 21l-4 4v7l-5 6l-3 12l-4 3l-18 -3l-30 -14h-5l-5 8l9 6l15 3l6 3l10 6h8l1 1l10 4h13zM195 313l4 -13l4 -3l-6 -13l-3 -3l-30 2v3l-5 4v23l15 10h9zM183 295l-5 2v11l9 -9zM349 261l-5 -22l-4 -9l-5 -4h-4l-3 4v12l8 19v9l9 9l5 14v-32h-1zM206 189
l3 -3v-5l-5 -4h-31l-16 -7l-4 -3h-7l-2 8l13 9l19 3l11 4l14 -2h5zM209 140h-5v5h5v-5zM248 138v-5h-16v12l15 -2z" />
    <glyph glyph-name="ocircumflex" unicode="&#xf4;" horiz-adv-x="325" 
d="M312 187l-5 -12l-5 -7l-19 -9l-3 -35l3 -2l-4 -4l-2 -12l-12 -23l-13 -18l-14 -5l-14 -9h-49l-48 3l-27 10l-40 35l-10 13l-14 26l1 2l-7 8l-15 3l-25 26l-11 19l2 26l12 22l13 5l5 5l-4 5v11l-6 4l-6 5v1l2 3l-5 10v30l3 19l6 18l14 3v23l12 21l3 11l4 7l-2 12l-16 13
l-4 10l4 13l9 12l11 16l10 16l5 21l16 10v4l6 4l30 1l5 4l12 1h7l4 -6l16 -13l58 -26l33 -18v-4l23 -22v-5l5 -4l4 -9l15 -18l-1 -21v-25l4 -9l-3 -6h-1l-1 -2v-3l5 -4l3 -48v-16l-2 -1l4 -4l-8 -10l3 -13l1 -1l4 -13l-2 -16v-5l9 -7l9 -16l1 -28zM271 342l-1 2v7l-5 5l-7 2
l5 -12l7 -5zM265 377l-2 3l-2 10l4 39l-15 17l-3 11l-20 19l-3 9l-16 12l-35 18l-20 7v1l-20 6l-18 12v2h-11l-31 -9l-27 -42l-12 -21l-2 -12l7 -8l6 -5l3 -7l2 -19l-7 -9v-7l-6 -9l2 -2l-5 -12l16 5l72 5l111 -5l8 -6zM252 307v5l-2 20l-6 5v4l-6 -14v-22l7 -2zM210 369
l-10 3l-4 -3l7 -14l2 1zM171 363v13h-9zM189 327v6h-2v-6h2zM259 258l-5 7l-5 1l-5 -1l1 -9l11 -2zM296 180v6l-2 24l-5 7l-1 -42zM164 324l-3 17l-4 5l-4 -28l4 -9h4l1 2zM142 369v8h-47l-14 -3l-1 -2l5 -5v-4l13 2l10 -5v-5l7 -11l5 18l9 14zM129 307l-2 20v-18zM103 316
l-4 7l-1 1v8l-3 -5v-22l3 2h2zM62 369h-7l-9 -4l2 -51l2 2v7l4 4v6l6 22v5l-1 2zM71 302l-2 12l-2 10l-5 -24h5zM18 347v6l-2 5l-1 2l-4 -2l-4 -17l8 -4v7zM30 294v11l-3 6l-2 -2v-16zM275 219v25h-5v-4l-2 -1l-23 -3l-18 18l-1 14l14 15l12 1l18 -10v9l-9 -3l-11 8h-15
l-16 3l-50 6l-33 -4l-46 -5h-16l-19 -8l-12 -6l-11 3l-3 -3h-9l1 -21l2 -3v-5l-2 -1h-9l-5 -4l-14 -18v-26l14 -18l25 -17l18 -5v-3l9 -26l15 -19l21 -14l8 -11l10 -5l34 -13l45 -1l35 7l17 11v5l1 2l5 1v4l9 9l6 17l1 14l4 32zM177 245l-6 -9l-9 -5l-10 -3l-21 3l-9 14
l2 21l12 13l7 1l25 -1l9 -16v-18zM235 166l-13 -5l-7 -5l-5 1v11l9 5l7 2h7l2 -4v-5zM197 171l-3 -3l-19 -2l-4 -4h-2l-3 4v2l11 7l10 2h7zM196 92l-4 -3h-9l-6 6l-20 -1l-1 -2l-4 2l17 9l14 1l6 -1l7 -5v-6zM48 186l-9 -6l-14 6l-2 5l-8 14l-4 12l4 2l14 -2l5 -8v-4l-2 -2
l5 -8l8 -4v-2zM162 258l-9 8h-3l-16 -7v-9l8 -6l11 -2l8 5z" />
    <glyph glyph-name="otilde" unicode="&#xf5;" horiz-adv-x="459" 
d="M146 568l23 -6l14 -7h5l3 -5l14 -5l6 -5l14 -8l51 -39l17 -19l11 -17l9 -20l7 -9l-5 -47l-5 -72l5 -48l3 -5l-5 -14l-11 -13l-3 -12l-6 -10l-15 -39l-11 -19l-3 -11l-4 -3l7 -4v-9l-9 -7l-1 2h-4l-4 -16l-11 -14l-8 -20l-1 -9l-6 -3l-5 2h-4l-3 9l2 5v3h3l6 8l5 10l-14 7
l-57 6l-12 5h-2l-1 -2l-16 16l-5 12v14l5 7l5 5l37 6l21 -4l47 -7l14 -8v-3l3 -1l8 10l2 7l7 9l2 9l-16 2l-51 3l-7 2h-6v16l14 4l4 7l23 9l11 6l15 -5l8 -10l10 -9v-2l2 -2l5 6l13 35v14l-16 7l-18 14v21l4 4l1 15l9 20l15 16l8 2l3 9v8l2 44l-7 9l-1 18l-8 12l-1 7l-44 44
l-8 1l-10 9l-12 9h-4l-7 7l-24 11l-23 8l-20 4l-33 -6l-13 -8l-10 -3l-26 -16l-35 -29l-27 -27l-6 -17l2 -1l-5 -9l-3 -86l1 -76l7 -60l4 -3v-2l-6 3l-5 18l-4 58l-3 73v91l18 26l35 34l18 14l9 3l6 8l23 10l7 7l27 12l4 6l17 -2zM396 379l-6 -5h-10l-5 -4v-3l-5 -3h-6v8
l6 7l9 9l10 5l7 -3v-11zM165 384l21 -5l22 -10l3 -22l2 -26l3 -19v-6l6 -5l-2 -10l-18 -14l-3 -6l-13 -10l-21 -9l-32 -5l-35 1l-16 5l-24 18l-4 11v4l5 5l13 -4l10 -18l16 -8l22 -4l41 4l8 5l12 3l9 11v3l1 3h-8l-7 -6l-16 -9l-30 -5l-27 7l-24 24l2 6l8 10l8 22l12 14
l14 14l30 -11l23 -16l14 -19h7l2 -2v25l-9 25l-7 10l-14 7h-102l-8 -3l-5 -9v-44l5 -23l-1 -2v-4l-9 -1h-4l-3 5v93l3 6l57 -6h63zM299 276h-7l-1 1h-4l-7 19l2 20l10 19l5 4v-62zM153 326l5 -6l2 -3h4v-3l5 -3l5 -18v-4l4 -3l-11 -9l-9 -1l-12 -6h-25l-18 12l-8 14v7l19 23
l6 4l10 1l20 -5h3zM426 320l-2 -8l-23 -3l-16 -7h-3l-3 7l1 5v2l4 4l17 1l9 4h7zM146 307l5 -9l-1 -14l-9 -8l-11 1l-10 12l-4 7l5 18l9 3l7 -1zM417 256v-9l-7 -4l-9 6l-19 2l-6 7l9 9l13 -2zM253 199l-39 2l-1 2l21 7l15 -5zM9 168l9 -30l24 -47l17 -15l61 -14l36 -5l27 1
l7 4l7 -2v-11l-6 -6h-45l-48 6l-7 4l-2 -1l-3 3l-39 5l-7 7v6l-17 26l-8 14l-21 57l-7 15l-5 9l3 4l9 -2zM223 141l6 -5l-46 4l-7 5l-21 -2l-4 -7l7 -12l6 -6l12 6l26 -4h23l5 -2h8l-4 -7h-16l-5 4l-53 3l-14 8l-11 15l12 9l4 2l48 -3z" />
    <glyph glyph-name="odieresis" unicode="&#xf6;" horiz-adv-x="426" 
d="M391 378l-6 -7l-2 -20v-13l4 -9l1 -13v-72l-3 -16l-5 -16l2 -5h-11v20l7 14v74l-7 15l2 49l7 8h11v-9zM188 385l-2 -14l-7 -6h-7l-18 39l-15 83l-4 13l-4 3l-8 -9l-2 -18l2 -56l12 -28l19 -18v-5l2 -1l-7 -4l-4 -5h-6l-30 33l-11 34l-5 47v19l-7 8h-9l-9 -15v-45l11 -34
l19 -19l11 -5l1 -8l-9 -9l-12 4l-18 19l-6 18l-9 23l-2 2l-2 -9l5 -19l9 -18l5 -7l-1 -9v-1l-9 -4l-26 15l-18 18l1 11l8 1h5l9 -15l7 -4l1 2l-3 4v16l-3 54l-2 7v5l5 4h11l5 10l1 11l18 12h15l10 -12l5 -16h2l9 24l7 9l5 6l11 -2l7 -9l3 -53l9 -47l14 -30h11zM368 154
l-2 -12l-13 -11h-5l-7 9l-51 4l-30 -4l-18 -45l-17 -25l-9 -5l-10 -3l-6 -5l-16 8l-42 6l-38 9l-9 6l-11 1l-5 5l-8 3l-14 15l-12 26l-5 43l2 1h5l4 -8l3 -28l7 -22l19 -21l15 -3l14 -7h10l5 -5l32 -6l3 -3l50 -2l14 11l14 24l10 25l-6 5h-60v2l-4 2h-5l-2 -2l-8 -3h-13
l-1 1v4l44 14l38 17l6 5l20 3l4 5l2 72l2 11v5l-2 1l-9 -10l-11 -7h-17l-5 3l-4 9l2 8l12 10l12 4h13v-3l7 -6l2 1l-8 14l2 11l6 4v14l-9 19h-2l-6 9l8 16l12 3h4l12 12l21 24l11 24v29l-11 24l-21 17l-18 9h-1v-12l7 -11l5 -22v-34l-18 -32l-14 -16l-21 -19h-5l-4 7v6l7 5
v3l12 9l18 19l9 16l4 22v17l-9 16l-27 21l-8 1v-10l3 -3l2 -16l3 -21l-1 -38l-15 -19l-15 -12l-2 2v5l17 19l6 11v46l-2 7l-7 24l-7 11h-14l-5 5l-2 4v5l8 5l11 -1l12 -7l11 10l4 2l15 -7l39 -13l19 -11l20 -24l7 -23v-19l-5 -17l-11 -22l-14 -16l-12 -12l9 -8l-4 -17
l-7 -12l-3 -32v-17l-8 -9l13 -10l12 -6l11 -14l-2 -15l-12 -18l-9 -9l-9 -7l-4 -4l-1 -14l-4 -4l5 -6l-1 -2l3 -4h12l25 -3l32 -2l9 9h7zM223 197l-5 -6h-6l-3 6l-2 1l5 5h4zM148 277l-6 -12l-9 -7l-9 4l-3 7h-7l-4 3v5l18 11l16 -3zM206 202l-31 -4l-1 2h-4l4 9l15 3h9
l8 -5v-5zM82 233l-21 -12l-7 4l-2 5v2l-9 4h-5l4 11l3 4l-7 7l-7 -3l-5 -6v-13l9 -15v-5h-6l-12 20l1 19l13 16l-4 1l-5 5v11h-18l-6 -12v-51l6 -22l6 -10l7 -5l12 1v-14h-11l-6 5l-13 18l-5 18l-3 17l1 44l16 20l-5 27l4 19l-3 16l6 6h7l4 -5v-7l-3 -2h9l6 4l21 2l2 2l4 -4
l-6 -5l-14 -4l-14 -7h12l19 7h4l4 -3l-13 -9l-14 -4l-14 -10h18l3 1h6l3 -6l-2 -2v-6l2 -1l2 -6v-5l-13 -13v-1l13 -4v-3l10 -5l-1 -7l-14 -7l-3 -2v-2h25v-5l-3 -4l7 -1h5v-8zM114 438l-2 18h-2l2 -18h2zM290 249l-4 4h-1l-13 2l2 -39l14 14zM244 276v5h-3l-9 -5v-4l1 -1h4
l2 1zM294 156v2h-8v-2h8zM237 156v3l-1 6h-4l-7 -4l-19 -7l1 -1z" />
    <glyph glyph-name="oslash" unicode="&#xf8;" 
d="M176 501v-7l3 -4v-6l25 -4l44 -11l44 -23h5l9 9l25 26v9l11 8h5v-22l-7 -22l-16 -52l2 -105l3 -6l7 9l6 19l2 13l9 2h5l8 -15l2 -35l-4 -3l-1 -23l-9 -33l-4 -11l-15 -7l-16 -2l-4 -41l-10 -31l-9 -23l-9 -21l-14 -21l-9 -6l-7 -1l-1 -2l-9 2l-9 7l-35 5l-6 -2l-10 5
l-32 5l-23 8h-16l-3 3h-9l-16 20l-6 3l-14 27l-10 30l-5 19l-2 2l-7 -7l-39 10l-14 7l-8 16l-6 20l2 113l5 1h4l6 -18l20 -27l4 5l3 26l11 62l3 5l6 25l8 14l6 6l5 6l14 2l19 9l6 5l14 3l8 8h18l4 3v26l-6 7v13l6 5l12 -1zM165 481l-1 -17l-11 -10l-10 3l7 11l9 24h3z
M256 451l24 -14l4 -6l10 -9l-5 -6l8 -12l8 -5l5 -12v-57l-2 -2v2l-7 7l-17 -3l-13 -18l-4 -14v-2l6 -5h7l7 10v8l18 1l3 4h-2v3h2v-26l-5 4l-12 -4l-4 -16l-2 -4v-5l9 -9l11 -1h5v-13l-10 -7l-4 -5v-9l9 -33h-13l-14 3l-5 43l-7 19l-2 16l-5 16h-16l-3 -6l3 -10l9 -22l9 -44
l-2 -14v-5h-7l-2 2l-7 -4h-5l-2 2l-7 -7v-4l5 -5h23l5 -5h9l7 13v1l-1 -1l-2 2l1 1l9 -9l18 -3l-9 -35l-5 -8l-23 4v5h7l7 7l-4 7l-3 4l-78 5l-10 6h-6l-5 -6v-12l9 -9l5 -12l9 -8l12 -1h44v-4l4 -3h7l7 7h7l4 -4h2l-8 -16l-12 -19l-33 1l-53 9l-54 16v2l-4 4h-9l-23 22
l-12 29v7l-5 11l-4 17l-7 9l-14 -4l-27 2l-17 7l-4 5l-7 22v88l14 -22l25 -33l2 2v3h1l2 2l-5 4l-7 12l5 10l2 16l8 57l4 9l-1 6l5 11v7l12 20l10 1l13 14l7 2l7 7l9 2l5 5h17l-11 -8v-8l5 -6h6l4 3l9 -7l32 4l11 8l1 18l4 2l44 -8zM319 432l-5 2v7l10 13l-2 -13zM204 349
l13 -26l-8 -7h-10l-5 21l-4 4v7l-5 6l-3 12l-4 3l-18 -3l-30 -14h-5l-5 8l9 6l15 3l6 3l10 6h8l1 1l10 4h13zM195 313l4 -13l4 -3l-6 -13l-3 -3l-30 2v3l-5 4v23l15 10h9zM183 295l-5 2v11l9 -9zM349 261l-5 -22l-4 -9l-5 -4h-4l-3 4v12l8 19v9l9 9l5 14v-32h-1zM206 189
l3 -3v-5l-5 -4h-31l-16 -7l-4 -3h-7l-2 8l13 9l19 3l11 4l14 -2h5zM209 140h-5v5h5v-5zM248 138v-5h-16v12l15 -2z" />
    <glyph glyph-name="ugrave" unicode="&#xf9;" horiz-adv-x="366" 
d="M351 191l-2 -17l-11 -24h-3l-6 -10l-6 -2l-10 -7h-9l-32 -87l-2 -15l-5 -20l-51 -9l-39 9l-11 6h-22l-2 1h-4v4l-16 16l-28 24l-40 46l-4 7l-8 11l5 11l11 -4l1 -2l13 -24l12 -13v-4l46 -40l19 -14l16 -4l14 -6l14 -4l12 -5l41 1l8 13l25 51l8 25l11 30l3 12l-13 19
l-10 9l-4 9l-2 -2h-5l-10 5l-29 4l-42 -20l-30 -15h-4l-3 -6l-11 -3l-17 -15v9l14 13l5 2l30 18l29 15l14 5l6 6h4l11 10l17 -3l23 -11l13 -9l14 -13h1l2 1l-3 10l1 11l5 2l9 14v3l-1 3l3 2v13l-3 4h-6l-2 -2v-6l-17 -10l-19 1l-8 11v6h4l9 14l12 5l14 -2l2 -1h3v-4l2 -2
l6 7l3 9l-2 16l-7 14v7l-7 12v9l-5 5l-5 21l-8 13l-1 12l-7 9l-2 10l-7 11l-2 -8v-6l6 -3l1 -7l-7 -9l2 -16l-4 -3v-8l-12 -8l-12 1l-4 9l2 9l-3 11l-13 22l-8 11v3l-23 23l-11 7l-2 6l-17 8h-38l-15 -15l-16 3l-18 -12l-4 -7l-8 -9l-18 -30l-5 -16h-2l-5 -17l2 -25l3 -13
l6 -10l8 -11h-8l-11 16l-2 5v4l-4 4l-3 -4l-3 -28l6 -26l3 -11v-5l-8 -4l4 -5l4 -9l-3 -5l-1 -2h-5l-13 16h-3l-7 -28l2 -32l5 -16l8 -12l11 -4h16l2 -5l-6 -9l-19 2l-21 17l-7 21l-2 53l4 4v9l9 16l7 5l5 -4l1 53l4 4l9 40l9 25l14 32l9 12l12 19l21 17l11 27l17 32l14 30
l7 18l9 10l9 20l32 45l12 18h10l9 -10l9 -57l6 -18l1 -12l4 -18l1 -15l13 -59l10 -24l15 -16l10 -30l10 -28l4 -18l23 -56l2 -13l5 -11l10 -11v-6h-1l-7 -10l-5 -20l13 -8zM182 224l-7 -10l-14 -9h-25l-7 5l-10 8l-5 15l5 21l3 4v1h4l3 -3l-3 -14v-14l10 -10h28l9 11l-1 16
l-11 11l-8 -3l-8 -6l-7 -9h-5l-2 2l5 13l11 9l11 5l14 -2l10 -12v-29zM255 145l-14 -2l-27 -5l-9 2l-2 1v4l29 9h19l4 -4v-5zM276 105l-4 -11l-5 -6l-9 -1h-3l-4 5h-57l-12 -4h-32v9l6 4l58 4h44l2 1zM242 55l-40 -2l-4 4v3l9 6l23 3l12 -1v-13zM36 161l-2 -2h-5l-11 9
l-14 25v8l9 8l9 -2l4 -25l10 -20v-1zM247 390v30l-3 23l-6 14l-10 54l-12 57l-2 2v6l-3 4l-3 13l-5 14l-1 1v6l-5 6l-17 -15l-12 -18l-9 -12l-9 -18l-6 -11l-27 -58l-6 -19l-2 -14l55 3l25 -10l18 -18l26 -36l5 -15h4zM294 237v3l-3 2h-10l-9 -7l10 -4zM335 184l-5 7l-9 -9
l-8 -17l1 -9l-5 -6v-7l20 14v8l5 3z" />
    <glyph glyph-name="uacute" unicode="&#xfa;" 
d="M176 501v-7l3 -4v-6l25 -4l44 -11l44 -23h5l9 9l25 26v9l11 8h5v-22l-7 -22l-16 -52l2 -105l3 -6l7 9l6 19l2 13l9 2h5l8 -15l2 -35l-4 -3l-1 -23l-9 -33l-4 -11l-15 -7l-16 -2l-4 -41l-10 -31l-9 -23l-9 -21l-14 -21l-9 -6l-7 -1l-1 -2l-9 2l-9 7l-35 5l-6 -2l-10 5
l-32 5l-23 8h-16l-3 3h-9l-16 20l-6 3l-14 27l-10 30l-5 19l-2 2l-7 -7l-39 10l-14 7l-8 16l-6 20l2 113l5 1h4l6 -18l20 -27l4 5l3 26l11 62l3 5l6 25l8 14l6 6l5 6l14 2l19 9l6 5l14 3l8 8h18l4 3v26l-6 7v13l6 5l12 -1zM165 481l-1 -17l-11 -10l-10 3l7 11l9 24h3z
M256 451l24 -14l4 -6l10 -9l-5 -6l8 -12l8 -5l5 -12v-57l-2 -2v2l-7 7l-17 -3l-13 -18l-4 -14v-2l6 -5h7l7 10v8l18 1l3 4h-2v3h2v-26l-5 4l-12 -4l-4 -16l-2 -4v-5l9 -9l11 -1h5v-13l-10 -7l-4 -5v-9l9 -33h-13l-14 3l-5 43l-7 19l-2 16l-5 16h-16l-3 -6l3 -10l9 -22l9 -44
l-2 -14v-5h-7l-2 2l-7 -4h-5l-2 2l-7 -7v-4l5 -5h23l5 -5h9l7 13v1l-1 -1l-2 2l1 1l9 -9l18 -3l-9 -35l-5 -8l-23 4v5h7l7 7l-4 7l-3 4l-78 5l-10 6h-6l-5 -6v-12l9 -9l5 -12l9 -8l12 -1h44v-4l4 -3h7l7 7h7l4 -4h2l-8 -16l-12 -19l-33 1l-53 9l-54 16v2l-4 4h-9l-23 22
l-12 29v7l-5 11l-4 17l-7 9l-14 -4l-27 2l-17 7l-4 5l-7 22v88l14 -22l25 -33l2 2v3h1l2 2l-5 4l-7 12l5 10l2 16l8 57l4 9l-1 6l5 11v7l12 20l10 1l13 14l7 2l7 7l9 2l5 5h17l-11 -8v-8l5 -6h6l4 3l9 -7l32 4l11 8l1 18l4 2l44 -8zM319 432l-5 2v7l10 13l-2 -13zM204 349
l13 -26l-8 -7h-10l-5 21l-4 4v7l-5 6l-3 12l-4 3l-18 -3l-30 -14h-5l-5 8l9 6l15 3l6 3l10 6h8l1 1l10 4h13zM195 313l4 -13l4 -3l-6 -13l-3 -3l-30 2v3l-5 4v23l15 10h9zM183 295l-5 2v11l9 -9zM349 261l-5 -22l-4 -9l-5 -4h-4l-3 4v12l8 19v9l9 9l5 14v-32h-1zM206 189
l3 -3v-5l-5 -4h-31l-16 -7l-4 -3h-7l-2 8l13 9l19 3l11 4l14 -2h5zM209 140h-5v5h5v-5zM248 138v-5h-16v12l15 -2z" />
    <glyph glyph-name="ucircumflex" unicode="&#xfb;" horiz-adv-x="362" 
d="M160 551l-1 -26l-2 -2l-7 4l-2 -39l2 -2h1l8 20l12 33v6l7 3l3 3l4 -1l7 -8l-6 -15l-6 -4l-4 -5l-5 -12l-5 -25v-5l1 -2l13 12l1 11l23 44l4 9l5 1l9 -10l-5 -35l-4 -9l-2 -14l-1 -9v-6l1 -1l23 47l4 14l7 4h3l6 -7v-11l-6 -11v-8l-3 -3v-9l-6 -11v-9l18 -10l18 -14
l8 -15l3 -9l6 -19l2 -19l9 -11l-2 -15l-3 -6v-12l5 -11l7 -12l17 -5l9 -9v-23l-10 -18l-10 -16l-4 -1l-7 -9l-11 -9l-5 -16l-2 -24l-9 -34l-3 -15v-3l16 -1l25 -2l5 -3l3 -4v-11l-35 -19v-10l-6 -8l-28 -3l-5 -4l4 -14v-3l-11 -11l-10 2v6l-23 20h-18l-6 -10v-32l-10 -7
l-5 2l-7 10l-2 11l-9 16l-12 16l-19 1h-4l-2 2l-9 -5l-53 2l-10 3l-4 4v8l11 14l-3 6l-5 -2l-34 14l-10 9l-13 9l-5 7l1 4l17 10l15 2h5l11 -9l4 16l14 -2l15 -7h2v21l-3 25l5 9h5l4 -29l8 -30l25 -15l14 -13l11 -3l14 -9l28 -5l37 1l9 4h8l15 9l12 3l12 28v8l4 3l13 92v33
l-3 2l-3 7l2 5l9 11l-5 10l-13 -12l-16 -3h-9l-7 9v8l-16 3v8l8 5h44l3 -4l3 4l-1 9l-7 21l3 5l-1 30l-9 19l-18 16l-14 4h-3l-3 -18v-5l-5 -6h-8l-13 18l-15 20l-3 5l-13 1h-2l-4 4l-3 -9l-5 -3h-6l-5 8v6l-14 2l-3 5l-8 -5l-17 -2h-5l-6 -6l-11 -2l-15 -15h-6l-12 -16
l-8 -22l-4 -4l-4 -21l-3 -18v-42l-2 -2l7 -4l3 -5v-5l-5 -4l-12 2v4l-7 5l-3 3l-8 -3l-4 -3l-2 -39l2 -4l3 -26l3 -4v-6l11 -17l19 -3v-7l-5 -4h-6l-13 7l-9 13l-8 21l-1 61l-7 8l2 5v4l5 3l5 14l18 3l1 30l15 49l15 34v9l4 4l5 3h16l2 2l7 1l18 13l3 33l3 16v25l2 1v4h14
l4 -5l1 -28l4 -7l2 -2l5 37v4l-2 1l9 5l11 -3zM127 484l4 -3h1v-7h-1v5l-4 4h-7l-2 24l7 -14zM194 488l1 2l-1 -14v12zM180 351l-2 -8l-5 -1l-6 -16l-10 -7h-21l-8 7l-3 7h-5l-4 -6h-5v8l11 8l9 8l28 10l16 -4zM155 336l-5 -3h-5l-3 5l4 5l5 -3zM319 269l-7 -8v-4l-13 -12
h-3l3 37v5l9 4l11 -2v-20zM32 263l2 -9v-6l5 -5h5l2 -5l-7 -9h-7l-7 9l-6 26l2 10l2 6h7zM245 273l-15 -18l-5 -1h-5v15l16 11h9v-7zM215 273v-4l-30 -12h-4l-5 12v5l25 3l2 1h10zM203 211l52 6h11v-13l-11 -5l-3 -21l-11 -6v-1l-12 -4l-16 2l-7 3l-5 -3l-32 2l-10 5l-13 18
l-5 12l-5 5l1 6l8 2l31 -4zM194 201l1 -12l-3 -4l-19 4l-9 6l3 8l22 -2h5zM238 189l-5 -4l-18 5v11l23 -2v-10zM39 125h-14l-12 9v2l-4 3l21 2l2 1l11 -10zM283 106l-10 -2h-7l9 5l14 -2zM101 93l-17 -6h-17l3 10l11 9l17 -4zM230 70l-10 11v3l13 3v-15zM173 67l-2 -2v-5
l-7 9l5 9h4v-11z" />
    <glyph glyph-name="udieresis" unicode="&#xfc;" 
d="M176 501v-7l3 -4v-6l25 -4l44 -11l44 -23h5l9 9l25 26v9l11 8h5v-22l-7 -22l-16 -52l2 -105l3 -6l7 9l6 19l2 13l9 2h5l8 -15l2 -35l-4 -3l-1 -23l-9 -33l-4 -11l-15 -7l-16 -2l-4 -41l-10 -31l-9 -23l-9 -21l-14 -21l-9 -6l-7 -1l-1 -2l-9 2l-9 7l-35 5l-6 -2l-10 5
l-32 5l-23 8h-16l-3 3h-9l-16 20l-6 3l-14 27l-10 30l-5 19l-2 2l-7 -7l-39 10l-14 7l-8 16l-6 20l2 113l5 1h4l6 -18l20 -27l4 5l3 26l11 62l3 5l6 25l8 14l6 6l5 6l14 2l19 9l6 5l14 3l8 8h18l4 3v26l-6 7v13l6 5l12 -1zM165 481l-1 -17l-11 -10l-10 3l7 11l9 24h3z
M256 451l24 -14l4 -6l10 -9l-5 -6l8 -12l8 -5l5 -12v-57l-2 -2v2l-7 7l-17 -3l-13 -18l-4 -14v-2l6 -5h7l7 10v8l18 1l3 4h-2v3h2v-26l-5 4l-12 -4l-4 -16l-2 -4v-5l9 -9l11 -1h5v-13l-10 -7l-4 -5v-9l9 -33h-13l-14 3l-5 43l-7 19l-2 16l-5 16h-16l-3 -6l3 -10l9 -22l9 -44
l-2 -14v-5h-7l-2 2l-7 -4h-5l-2 2l-7 -7v-4l5 -5h23l5 -5h9l7 13v1l-1 -1l-2 2l1 1l9 -9l18 -3l-9 -35l-5 -8l-23 4v5h7l7 7l-4 7l-3 4l-78 5l-10 6h-6l-5 -6v-12l9 -9l5 -12l9 -8l12 -1h44v-4l4 -3h7l7 7h7l4 -4h2l-8 -16l-12 -19l-33 1l-53 9l-54 16v2l-4 4h-9l-23 22
l-12 29v7l-5 11l-4 17l-7 9l-14 -4l-27 2l-17 7l-4 5l-7 22v88l14 -22l25 -33l2 2v3h1l2 2l-5 4l-7 12l5 10l2 16l8 57l4 9l-1 6l5 11v7l12 20l10 1l13 14l7 2l7 7l9 2l5 5h17l-11 -8v-8l5 -6h6l4 3l9 -7l32 4l11 8l1 18l4 2l44 -8zM319 432l-5 2v7l10 13l-2 -13zM204 349
l13 -26l-8 -7h-10l-5 21l-4 4v7l-5 6l-3 12l-4 3l-18 -3l-30 -14h-5l-5 8l9 6l15 3l6 3l10 6h8l1 1l10 4h13zM195 313l4 -13l4 -3l-6 -13l-3 -3l-30 2v3l-5 4v23l15 10h9zM183 295l-5 2v11l9 -9zM349 261l-5 -22l-4 -9l-5 -4h-4l-3 4v12l8 19v9l9 9l5 14v-32h-1zM206 189
l3 -3v-5l-5 -4h-31l-16 -7l-4 -3h-7l-2 8l13 9l19 3l11 4l14 -2h5zM209 140h-5v5h5v-5zM248 138v-5h-16v12l15 -2z" />
    <glyph glyph-name="yacute" unicode="&#xfd;" horiz-adv-x="366" 
d="M351 191l-2 -17l-11 -24h-3l-6 -10l-6 -2l-10 -7h-9l-32 -87l-2 -15l-5 -20l-51 -9l-39 9l-11 6h-22l-2 1h-4v4l-16 16l-28 24l-40 46l-4 7l-8 11l5 11l11 -4l1 -2l13 -24l12 -13v-4l46 -40l19 -14l16 -4l14 -6l14 -4l12 -5l41 1l8 13l25 51l8 25l11 30l3 12l-13 19
l-10 9l-4 9l-2 -2h-5l-10 5l-29 4l-42 -20l-30 -15h-4l-3 -6l-11 -3l-17 -15v9l14 13l5 2l30 18l29 15l14 5l6 6h4l11 10l17 -3l23 -11l13 -9l14 -13h1l2 1l-3 10l1 11l5 2l9 14v3l-1 3l3 2v13l-3 4h-6l-2 -2v-6l-17 -10l-19 1l-8 11v6h4l9 14l12 5l14 -2l2 -1h3v-4l2 -2
l6 7l3 9l-2 16l-7 14v7l-7 12v9l-5 5l-5 21l-8 13l-1 12l-7 9l-2 10l-7 11l-2 -8v-6l6 -3l1 -7l-7 -9l2 -16l-4 -3v-8l-12 -8l-12 1l-4 9l2 9l-3 11l-13 22l-8 11v3l-23 23l-11 7l-2 6l-17 8h-38l-15 -15l-16 3l-18 -12l-4 -7l-8 -9l-18 -30l-5 -16h-2l-5 -17l2 -25l3 -13
l6 -10l8 -11h-8l-11 16l-2 5v4l-4 4l-3 -4l-3 -28l6 -26l3 -11v-5l-8 -4l4 -5l4 -9l-3 -5l-1 -2h-5l-13 16h-3l-7 -28l2 -32l5 -16l8 -12l11 -4h16l2 -5l-6 -9l-19 2l-21 17l-7 21l-2 53l4 4v9l9 16l7 5l5 -4l1 53l4 4l9 40l9 25l14 32l9 12l12 19l21 17l11 27l17 32l14 30
l7 18l9 10l9 20l32 45l12 18h10l9 -10l9 -57l6 -18l1 -12l4 -18l1 -15l13 -59l10 -24l15 -16l10 -30l10 -28l4 -18l23 -56l2 -13l5 -11l10 -11v-6h-1l-7 -10l-5 -20l13 -8zM182 224l-7 -10l-14 -9h-25l-7 5l-10 8l-5 15l5 21l3 4v1h4l3 -3l-3 -14v-14l10 -10h28l9 11l-1 16
l-11 11l-8 -3l-8 -6l-7 -9h-5l-2 2l5 13l11 9l11 5l14 -2l10 -12v-29zM255 145l-14 -2l-27 -5l-9 2l-2 1v4l29 9h19l4 -4v-5zM276 105l-4 -11l-5 -6l-9 -1h-3l-4 5h-57l-12 -4h-32v9l6 4l58 4h44l2 1zM242 55l-40 -2l-4 4v3l9 6l23 3l12 -1v-13zM36 161l-2 -2h-5l-11 9
l-14 25v8l9 8l9 -2l4 -25l10 -20v-1zM247 390v30l-3 23l-6 14l-10 54l-12 57l-2 2v6l-3 4l-3 13l-5 14l-1 1v6l-5 6l-17 -15l-12 -18l-9 -12l-9 -18l-6 -11l-27 -58l-6 -19l-2 -14l55 3l25 -10l18 -18l26 -36l5 -15h4zM294 237v3l-3 2h-10l-9 -7l10 -4zM335 184l-5 7l-9 -9
l-8 -17l1 -9l-5 -6v-7l20 14v8l5 3z" />
    <glyph glyph-name="thorn" unicode="&#xfe;" horiz-adv-x="325" 
d="M312 187l-5 -12l-5 -7l-19 -9l-3 -35l3 -2l-4 -4l-2 -12l-12 -23l-13 -18l-14 -5l-14 -9h-49l-48 3l-27 10l-40 35l-10 13l-14 26l1 2l-7 8l-15 3l-25 26l-11 19l2 26l12 22l13 5l5 5l-4 5v11l-6 4l-6 5v1l2 3l-5 10v30l3 19l6 18l14 3v23l12 21l3 11l4 7l-2 12l-16 13
l-4 10l4 13l9 12l11 16l10 16l5 21l16 10v4l6 4l30 1l5 4l12 1h7l4 -6l16 -13l58 -26l33 -18v-4l23 -22v-5l5 -4l4 -9l15 -18l-1 -21v-25l4 -9l-3 -6h-1l-1 -2v-3l5 -4l3 -48v-16l-2 -1l4 -4l-8 -10l3 -13l1 -1l4 -13l-2 -16v-5l9 -7l9 -16l1 -28zM271 342l-1 2v7l-5 5l-7 2
l5 -12l7 -5zM265 377l-2 3l-2 10l4 39l-15 17l-3 11l-20 19l-3 9l-16 12l-35 18l-20 7v1l-20 6l-18 12v2h-11l-31 -9l-27 -42l-12 -21l-2 -12l7 -8l6 -5l3 -7l2 -19l-7 -9v-7l-6 -9l2 -2l-5 -12l16 5l72 5l111 -5l8 -6zM252 307v5l-2 20l-6 5v4l-6 -14v-22l7 -2zM210 369
l-10 3l-4 -3l7 -14l2 1zM171 363v13h-9zM189 327v6h-2v-6h2zM259 258l-5 7l-5 1l-5 -1l1 -9l11 -2zM296 180v6l-2 24l-5 7l-1 -42zM164 324l-3 17l-4 5l-4 -28l4 -9h4l1 2zM142 369v8h-47l-14 -3l-1 -2l5 -5v-4l13 2l10 -5v-5l7 -11l5 18l9 14zM129 307l-2 20v-18zM103 316
l-4 7l-1 1v8l-3 -5v-22l3 2h2zM62 369h-7l-9 -4l2 -51l2 2v7l4 4v6l6 22v5l-1 2zM71 302l-2 12l-2 10l-5 -24h5zM18 347v6l-2 5l-1 2l-4 -2l-4 -17l8 -4v7zM30 294v11l-3 6l-2 -2v-16zM275 219v25h-5v-4l-2 -1l-23 -3l-18 18l-1 14l14 15l12 1l18 -10v9l-9 -3l-11 8h-15
l-16 3l-50 6l-33 -4l-46 -5h-16l-19 -8l-12 -6l-11 3l-3 -3h-9l1 -21l2 -3v-5l-2 -1h-9l-5 -4l-14 -18v-26l14 -18l25 -17l18 -5v-3l9 -26l15 -19l21 -14l8 -11l10 -5l34 -13l45 -1l35 7l17 11v5l1 2l5 1v4l9 9l6 17l1 14l4 32zM177 245l-6 -9l-9 -5l-10 -3l-21 3l-9 14
l2 21l12 13l7 1l25 -1l9 -16v-18zM235 166l-13 -5l-7 -5l-5 1v11l9 5l7 2h7l2 -4v-5zM197 171l-3 -3l-19 -2l-4 -4h-2l-3 4v2l11 7l10 2h7zM196 92l-4 -3h-9l-6 6l-20 -1l-1 -2l-4 2l17 9l14 1l6 -1l7 -5v-6zM48 186l-9 -6l-14 6l-2 5l-8 14l-4 12l4 2l14 -2l5 -8v-4l-2 -2
l5 -8l8 -4v-2zM162 258l-9 8h-3l-16 -7v-9l8 -6l11 -2l8 5z" />
    <glyph glyph-name="Lslash" unicode="&#x141;" horiz-adv-x="426" 
d="M391 378l-6 -7l-2 -20v-13l4 -9l1 -13v-72l-3 -16l-5 -16l2 -5h-11v20l7 14v74l-7 15l2 49l7 8h11v-9zM188 385l-2 -14l-7 -6h-7l-18 39l-15 83l-4 13l-4 3l-8 -9l-2 -18l2 -56l12 -28l19 -18v-5l2 -1l-7 -4l-4 -5h-6l-30 33l-11 34l-5 47v19l-7 8h-9l-9 -15v-45l11 -34
l19 -19l11 -5l1 -8l-9 -9l-12 4l-18 19l-6 18l-9 23l-2 2l-2 -9l5 -19l9 -18l5 -7l-1 -9v-1l-9 -4l-26 15l-18 18l1 11l8 1h5l9 -15l7 -4l1 2l-3 4v16l-3 54l-2 7v5l5 4h11l5 10l1 11l18 12h15l10 -12l5 -16h2l9 24l7 9l5 6l11 -2l7 -9l3 -53l9 -47l14 -30h11zM368 154
l-2 -12l-13 -11h-5l-7 9l-51 4l-30 -4l-18 -45l-17 -25l-9 -5l-10 -3l-6 -5l-16 8l-42 6l-38 9l-9 6l-11 1l-5 5l-8 3l-14 15l-12 26l-5 43l2 1h5l4 -8l3 -28l7 -22l19 -21l15 -3l14 -7h10l5 -5l32 -6l3 -3l50 -2l14 11l14 24l10 25l-6 5h-60v2l-4 2h-5l-2 -2l-8 -3h-13
l-1 1v4l44 14l38 17l6 5l20 3l4 5l2 72l2 11v5l-2 1l-9 -10l-11 -7h-17l-5 3l-4 9l2 8l12 10l12 4h13v-3l7 -6l2 1l-8 14l2 11l6 4v14l-9 19h-2l-6 9l8 16l12 3h4l12 12l21 24l11 24v29l-11 24l-21 17l-18 9h-1v-12l7 -11l5 -22v-34l-18 -32l-14 -16l-21 -19h-5l-4 7v6l7 5
v3l12 9l18 19l9 16l4 22v17l-9 16l-27 21l-8 1v-10l3 -3l2 -16l3 -21l-1 -38l-15 -19l-15 -12l-2 2v5l17 19l6 11v46l-2 7l-7 24l-7 11h-14l-5 5l-2 4v5l8 5l11 -1l12 -7l11 10l4 2l15 -7l39 -13l19 -11l20 -24l7 -23v-19l-5 -17l-11 -22l-14 -16l-12 -12l9 -8l-4 -17
l-7 -12l-3 -32v-17l-8 -9l13 -10l12 -6l11 -14l-2 -15l-12 -18l-9 -9l-9 -7l-4 -4l-1 -14l-4 -4l5 -6l-1 -2l3 -4h12l25 -3l32 -2l9 9h7zM223 197l-5 -6h-6l-3 6l-2 1l5 5h4zM148 277l-6 -12l-9 -7l-9 4l-3 7h-7l-4 3v5l18 11l16 -3zM206 202l-31 -4l-1 2h-4l4 9l15 3h9
l8 -5v-5zM82 233l-21 -12l-7 4l-2 5v2l-9 4h-5l4 11l3 4l-7 7l-7 -3l-5 -6v-13l9 -15v-5h-6l-12 20l1 19l13 16l-4 1l-5 5v11h-18l-6 -12v-51l6 -22l6 -10l7 -5l12 1v-14h-11l-6 5l-13 18l-5 18l-3 17l1 44l16 20l-5 27l4 19l-3 16l6 6h7l4 -5v-7l-3 -2h9l6 4l21 2l2 2l4 -4
l-6 -5l-14 -4l-14 -7h12l19 7h4l4 -3l-13 -9l-14 -4l-14 -10h18l3 1h6l3 -6l-2 -2v-6l2 -1l2 -6v-5l-13 -13v-1l13 -4v-3l10 -5l-1 -7l-14 -7l-3 -2v-2h25v-5l-3 -4l7 -1h5v-8zM114 438l-2 18h-2l2 -18h2zM290 249l-4 4h-1l-13 2l2 -39l14 14zM244 276v5h-3l-9 -5v-4l1 -1h4
l2 1zM294 156v2h-8v-2h8zM237 156v3l-1 6h-4l-7 -4l-19 -7l1 -1z" />
    <glyph glyph-name="lslash" unicode="&#x142;" horiz-adv-x="336" 
d="M298 316l-14 -14l-16 -5h-30l-2 10l-7 11l-3 -4h-8l-5 5h-42l-7 -13l-7 -9l-21 -11l-23 -7l-19 2l-11 7l-5 7v7l-4 4v10l7 11l23 10l9 2l10 5l16 -2l22 -6v-3l3 -3h9l3 3h46l10 -6l17 12l8 5l11 4l21 -2l9 -10v-20zM243 248l-3 -13l-11 -7l-2 -2h-3l-4 8l7 10l-1 1l3 6
h11zM315 350l-3 -4l-13 4v1l-3 4l-21 3l-4 6h-3v11l17 8l-17 11v3l-9 4l-41 -4l-5 -3l-39 -6l-56 -16l-13 -6l-19 -6l-14 -5l-3 -4l-9 -9v-3l-16 -9v-5l-2 -2l8 -5l5 -5l-5 -9l6 -6v-5l-9 -5v-9l8 -12l12 -11l-7 -3l-5 -5v-11l14 -11h5l5 5l11 -3l4 -7l1 -17l8 -14l5 -6
l5 -11l7 -5l2 -7l10 -9l12 -12l18 -12h5l2 3v6h9v-2l2 -2h2l5 5v4l-7 4l-2 8l7 5l23 2l7 -10l16 1l15 21l18 37l-1 13l7 11l-4 10v19l16 4l12 2h2l3 -9l8 -7l-2 -16v-3l-12 -9l-14 -8l-36 -70l-12 -19l4 -9v-16l-4 -4h-5l-4 9l-5 13h-7l-4 -4l4 -14l-2 -4v-5h-12l-2 8v5
l-2 1l-9 -12h-5l-5 11v3l1 2l-3 3h-7l-23 7l-16 16l-16 18l-4 7l-8 10l-14 25l-5 14l-22 5l-12 14v32l-3 6l-4 9v1l-3 4l-6 -4h-3l-8 9l4 7l-4 3v13l6 2h2l1 1v4l-6 5l3 13l9 3l2 2v3l-6 4h-3l-16 18l-14 10l2 12l15 14v6l14 8l4 5l21 18l18 13l7 2l2 1v4l16 5l15 9v7
l-12 14l-2 5v5l4 4l9 -1h3l2 3v5l7 3l9 -3l5 -12l2 -13l3 -5l43 5l45 6l60 -2l12 -9h6l9 -12l-6 -23l-10 -28l-2 -18h-6l-1 -7l19 -11l2 -5v-5l-5 -5v-4l10 -5v-12zM217 239l-4 -4h-19l-7 -4h-5l-2 3v5l30 12l7 -2v-10zM236 173l-10 -3l-6 2l-7 7h-33l-7 -6l-15 -3l-3 -5
l-2 -2h-3v10l23 14l21 8l19 -2l22 -9l1 -5v-6zM259 482v3h-2v-5zM178 478h-11l-10 -1l-9 -6h2zM287 322v5l-7 6v-19h2v4h-2l2 1zM289 239v10h-4l2 -12zM152 311l-16 -11h2l5 2zM104 325h-1l-8 -6zM211 146h-12v-3l3 -5h8v5z" />
    <glyph glyph-name="Scaron" unicode="&#x160;" horiz-adv-x="459" 
d="M146 568l23 -6l14 -7h5l3 -5l14 -5l6 -5l14 -8l51 -39l17 -19l11 -17l9 -20l7 -9l-5 -47l-5 -72l5 -48l3 -5l-5 -14l-11 -13l-3 -12l-6 -10l-15 -39l-11 -19l-3 -11l-4 -3l7 -4v-9l-9 -7l-1 2h-4l-4 -16l-11 -14l-8 -20l-1 -9l-6 -3l-5 2h-4l-3 9l2 5v3h3l6 8l5 10l-14 7
l-57 6l-12 5h-2l-1 -2l-16 16l-5 12v14l5 7l5 5l37 6l21 -4l47 -7l14 -8v-3l3 -1l8 10l2 7l7 9l2 9l-16 2l-51 3l-7 2h-6v16l14 4l4 7l23 9l11 6l15 -5l8 -10l10 -9v-2l2 -2l5 6l13 35v14l-16 7l-18 14v21l4 4l1 15l9 20l15 16l8 2l3 9v8l2 44l-7 9l-1 18l-8 12l-1 7l-44 44
l-8 1l-10 9l-12 9h-4l-7 7l-24 11l-23 8l-20 4l-33 -6l-13 -8l-10 -3l-26 -16l-35 -29l-27 -27l-6 -17l2 -1l-5 -9l-3 -86l1 -76l7 -60l4 -3v-2l-6 3l-5 18l-4 58l-3 73v91l18 26l35 34l18 14l9 3l6 8l23 10l7 7l27 12l4 6l17 -2zM396 379l-6 -5h-10l-5 -4v-3l-5 -3h-6v8
l6 7l9 9l10 5l7 -3v-11zM165 384l21 -5l22 -10l3 -22l2 -26l3 -19v-6l6 -5l-2 -10l-18 -14l-3 -6l-13 -10l-21 -9l-32 -5l-35 1l-16 5l-24 18l-4 11v4l5 5l13 -4l10 -18l16 -8l22 -4l41 4l8 5l12 3l9 11v3l1 3h-8l-7 -6l-16 -9l-30 -5l-27 7l-24 24l2 6l8 10l8 22l12 14
l14 14l30 -11l23 -16l14 -19h7l2 -2v25l-9 25l-7 10l-14 7h-102l-8 -3l-5 -9v-44l5 -23l-1 -2v-4l-9 -1h-4l-3 5v93l3 6l57 -6h63zM299 276h-7l-1 1h-4l-7 19l2 20l10 19l5 4v-62zM153 326l5 -6l2 -3h4v-3l5 -3l5 -18v-4l4 -3l-11 -9l-9 -1l-12 -6h-25l-18 12l-8 14v7l19 23
l6 4l10 1l20 -5h3zM426 320l-2 -8l-23 -3l-16 -7h-3l-3 7l1 5v2l4 4l17 1l9 4h7zM146 307l5 -9l-1 -14l-9 -8l-11 1l-10 12l-4 7l5 18l9 3l7 -1zM417 256v-9l-7 -4l-9 6l-19 2l-6 7l9 9l13 -2zM253 199l-39 2l-1 2l21 7l15 -5zM9 168l9 -30l24 -47l17 -15l61 -14l36 -5l27 1
l7 4l7 -2v-11l-6 -6h-45l-48 6l-7 4l-2 -1l-3 3l-39 5l-7 7v6l-17 26l-8 14l-21 57l-7 15l-5 9l3 4l9 -2zM223 141l6 -5l-46 4l-7 5l-21 -2l-4 -7l7 -12l6 -6l12 6l26 -4h23l5 -2h8l-4 -7h-16l-5 4l-53 3l-14 8l-11 15l12 9l4 2l48 -3z" />
    <glyph glyph-name="scaron" unicode="&#x161;" 
d="M176 501v-7l3 -4v-6l25 -4l44 -11l44 -23h5l9 9l25 26v9l11 8h5v-22l-7 -22l-16 -52l2 -105l3 -6l7 9l6 19l2 13l9 2h5l8 -15l2 -35l-4 -3l-1 -23l-9 -33l-4 -11l-15 -7l-16 -2l-4 -41l-10 -31l-9 -23l-9 -21l-14 -21l-9 -6l-7 -1l-1 -2l-9 2l-9 7l-35 5l-6 -2l-10 5
l-32 5l-23 8h-16l-3 3h-9l-16 20l-6 3l-14 27l-10 30l-5 19l-2 2l-7 -7l-39 10l-14 7l-8 16l-6 20l2 113l5 1h4l6 -18l20 -27l4 5l3 26l11 62l3 5l6 25l8 14l6 6l5 6l14 2l19 9l6 5l14 3l8 8h18l4 3v26l-6 7v13l6 5l12 -1zM165 481l-1 -17l-11 -10l-10 3l7 11l9 24h3z
M256 451l24 -14l4 -6l10 -9l-5 -6l8 -12l8 -5l5 -12v-57l-2 -2v2l-7 7l-17 -3l-13 -18l-4 -14v-2l6 -5h7l7 10v8l18 1l3 4h-2v3h2v-26l-5 4l-12 -4l-4 -16l-2 -4v-5l9 -9l11 -1h5v-13l-10 -7l-4 -5v-9l9 -33h-13l-14 3l-5 43l-7 19l-2 16l-5 16h-16l-3 -6l3 -10l9 -22l9 -44
l-2 -14v-5h-7l-2 2l-7 -4h-5l-2 2l-7 -7v-4l5 -5h23l5 -5h9l7 13v1l-1 -1l-2 2l1 1l9 -9l18 -3l-9 -35l-5 -8l-23 4v5h7l7 7l-4 7l-3 4l-78 5l-10 6h-6l-5 -6v-12l9 -9l5 -12l9 -8l12 -1h44v-4l4 -3h7l7 7h7l4 -4h2l-8 -16l-12 -19l-33 1l-53 9l-54 16v2l-4 4h-9l-23 22
l-12 29v7l-5 11l-4 17l-7 9l-14 -4l-27 2l-17 7l-4 5l-7 22v88l14 -22l25 -33l2 2v3h1l2 2l-5 4l-7 12l5 10l2 16l8 57l4 9l-1 6l5 11v7l12 20l10 1l13 14l7 2l7 7l9 2l5 5h17l-11 -8v-8l5 -6h6l4 3l9 -7l32 4l11 8l1 18l4 2l44 -8zM319 432l-5 2v7l10 13l-2 -13zM204 349
l13 -26l-8 -7h-10l-5 21l-4 4v7l-5 6l-3 12l-4 3l-18 -3l-30 -14h-5l-5 8l9 6l15 3l6 3l10 6h8l1 1l10 4h13zM195 313l4 -13l4 -3l-6 -13l-3 -3l-30 2v3l-5 4v23l15 10h9zM183 295l-5 2v11l9 -9zM349 261l-5 -22l-4 -9l-5 -4h-4l-3 4v12l8 19v9l9 9l5 14v-32h-1zM206 189
l3 -3v-5l-5 -4h-31l-16 -7l-4 -3h-7l-2 8l13 9l19 3l11 4l14 -2h5zM209 140h-5v5h5v-5zM248 138v-5h-16v12l15 -2z" />
    <glyph glyph-name="Zcaron" unicode="&#x17d;" horiz-adv-x="426" 
d="M391 378l-6 -7l-2 -20v-13l4 -9l1 -13v-72l-3 -16l-5 -16l2 -5h-11v20l7 14v74l-7 15l2 49l7 8h11v-9zM188 385l-2 -14l-7 -6h-7l-18 39l-15 83l-4 13l-4 3l-8 -9l-2 -18l2 -56l12 -28l19 -18v-5l2 -1l-7 -4l-4 -5h-6l-30 33l-11 34l-5 47v19l-7 8h-9l-9 -15v-45l11 -34
l19 -19l11 -5l1 -8l-9 -9l-12 4l-18 19l-6 18l-9 23l-2 2l-2 -9l5 -19l9 -18l5 -7l-1 -9v-1l-9 -4l-26 15l-18 18l1 11l8 1h5l9 -15l7 -4l1 2l-3 4v16l-3 54l-2 7v5l5 4h11l5 10l1 11l18 12h15l10 -12l5 -16h2l9 24l7 9l5 6l11 -2l7 -9l3 -53l9 -47l14 -30h11zM368 154
l-2 -12l-13 -11h-5l-7 9l-51 4l-30 -4l-18 -45l-17 -25l-9 -5l-10 -3l-6 -5l-16 8l-42 6l-38 9l-9 6l-11 1l-5 5l-8 3l-14 15l-12 26l-5 43l2 1h5l4 -8l3 -28l7 -22l19 -21l15 -3l14 -7h10l5 -5l32 -6l3 -3l50 -2l14 11l14 24l10 25l-6 5h-60v2l-4 2h-5l-2 -2l-8 -3h-13
l-1 1v4l44 14l38 17l6 5l20 3l4 5l2 72l2 11v5l-2 1l-9 -10l-11 -7h-17l-5 3l-4 9l2 8l12 10l12 4h13v-3l7 -6l2 1l-8 14l2 11l6 4v14l-9 19h-2l-6 9l8 16l12 3h4l12 12l21 24l11 24v29l-11 24l-21 17l-18 9h-1v-12l7 -11l5 -22v-34l-18 -32l-14 -16l-21 -19h-5l-4 7v6l7 5
v3l12 9l18 19l9 16l4 22v17l-9 16l-27 21l-8 1v-10l3 -3l2 -16l3 -21l-1 -38l-15 -19l-15 -12l-2 2v5l17 19l6 11v46l-2 7l-7 24l-7 11h-14l-5 5l-2 4v5l8 5l11 -1l12 -7l11 10l4 2l15 -7l39 -13l19 -11l20 -24l7 -23v-19l-5 -17l-11 -22l-14 -16l-12 -12l9 -8l-4 -17
l-7 -12l-3 -32v-17l-8 -9l13 -10l12 -6l11 -14l-2 -15l-12 -18l-9 -9l-9 -7l-4 -4l-1 -14l-4 -4l5 -6l-1 -2l3 -4h12l25 -3l32 -2l9 9h7zM223 197l-5 -6h-6l-3 6l-2 1l5 5h4zM148 277l-6 -12l-9 -7l-9 4l-3 7h-7l-4 3v5l18 11l16 -3zM206 202l-31 -4l-1 2h-4l4 9l15 3h9
l8 -5v-5zM82 233l-21 -12l-7 4l-2 5v2l-9 4h-5l4 11l3 4l-7 7l-7 -3l-5 -6v-13l9 -15v-5h-6l-12 20l1 19l13 16l-4 1l-5 5v11h-18l-6 -12v-51l6 -22l6 -10l7 -5l12 1v-14h-11l-6 5l-13 18l-5 18l-3 17l1 44l16 20l-5 27l4 19l-3 16l6 6h7l4 -5v-7l-3 -2h9l6 4l21 2l2 2l4 -4
l-6 -5l-14 -4l-14 -7h12l19 7h4l4 -3l-13 -9l-14 -4l-14 -10h18l3 1h6l3 -6l-2 -2v-6l2 -1l2 -6v-5l-13 -13v-1l13 -4v-3l10 -5l-1 -7l-14 -7l-3 -2v-2h25v-5l-3 -4l7 -1h5v-8zM114 438l-2 18h-2l2 -18h2zM290 249l-4 4h-1l-13 2l2 -39l14 14zM244 276v5h-3l-9 -5v-4l1 -1h4
l2 1zM294 156v2h-8v-2h8zM237 156v3l-1 6h-4l-7 -4l-19 -7l1 -1z" />
    </font>
</defs>
</svg>
